<svg xmlns="http://www.w3.org/2000/svg" xmlns:xlink="http://www.w3.org/1999/xlink" viewBox="0 0 205.79 472.82"><defs><style>.cls-1{isolation:isolate;}.cls-2{fill:#547f8c;}.cls-3{fill:#110b09;}.cls-4{fill:#d9d9d9;}.cls-5{fill:#aaa;}.cls-6{fill:#66433a;}.cls-7{fill:#4f332a;}.cls-14,.cls-22,.cls-24,.cls-32,.cls-49,.cls-54,.cls-58,.cls-7,.cls-8{mix-blend-mode:screen;}.cls-8{fill:#291b16;}.cls-9{fill:#4e332b;}.cls-10{fill:#c2a79f;}.cls-10,.cls-17,.cls-18,.cls-19,.cls-20,.cls-30,.cls-42,.cls-45,.cls-48,.cls-52,.cls-60,.cls-65{mix-blend-mode:multiply;}.cls-11{fill:#3c2317;}.cls-12{fill:#c0f4f9;}.cls-13{fill:#cafaff;}.cls-14{fill:#23353b;}.cls-15{fill:#a3dee8;}.cls-16{fill:#90d1e0;}.cls-17{fill:#daeaed;}.cls-18{fill:#f0f0f0;}.cls-19{fill:#d5e5e8;}.cls-20{fill:#f2ece9;}.cls-21{fill:#725049;}.cls-22{fill:#0f0906;}.cls-23{fill:#aadae2;}.cls-24,.cls-28{fill:#5b8089;}.cls-25{fill:#703521;}.cls-26{fill:#8c4222;}.cls-27{fill:#30150f;}.cls-29{fill:#a84827;}.cls-30{fill:#deb0a0;}.cls-31{fill:#280f0a;}.cls-32{fill:#381d14;}.cls-33{fill:#699faf;}.cls-34{fill:#dfc29f;}.cls-35{fill:#ffe2bb;}.cls-36,.cls-41,.cls-43{fill:#5e402f;}.cls-36{opacity:0.2;}.cls-37{fill:#ffeac6;}.cls-38{fill:#d8bfa0;}.cls-39{fill:url(#linear-gradient);}.cls-40{fill:url(#linear-gradient-2);}.cls-41,.cls-42,.cls-48,.cls-49,.cls-52{opacity:0.5;}.cls-42{fill:#c97106;}.cls-44{fill:url(#linear-gradient-3);}.cls-45,.cls-53{fill:#573220;}.cls-46{fill:#fff5eb;}.cls-47{fill:#ffd9ac;}.cls-48,.cls-58{fill:#782600;}.cls-49,.cls-54,.cls-59{fill:#fff;}.cls-50,.cls-60{fill:#ce755d;}.cls-51{fill:url(#linear-gradient-4);}.cls-55{fill:url(#linear-gradient-5);}.cls-56{fill:url(#linear-gradient-6);}.cls-57{fill:url(#linear-gradient-7);}.cls-60{opacity:0.7;}.cls-61{fill:#c2e3ff;}.cls-62{fill:url(#linear-gradient-8);}.cls-63{fill:#139ab0;}.cls-64{fill:url(#linear-gradient-9);}.cls-66{fill:#1d1d1b;fill-rule:evenodd;}</style><linearGradient id="linear-gradient" x1="14.42" y1="82.74" x2="196.85" y2="82.74" gradientTransform="translate(-19.73 33.25) rotate(-15.91)" gradientUnits="userSpaceOnUse"><stop offset="0" stop-color="#ffe699"/><stop offset="0.3" stop-color="#ffe194"/><stop offset="0.66" stop-color="#ffd286"/><stop offset="1" stop-color="#ffbd73"/></linearGradient><linearGradient id="linear-gradient-2" x1="14.42" y1="81.01" x2="196.85" y2="81.01" gradientTransform="translate(-19.73 33.25) rotate(-15.91)" gradientUnits="userSpaceOnUse"><stop offset="0" stop-color="#fff7a8"/><stop offset="0.27" stop-color="#fff2a4"/><stop offset="0.6" stop-color="#ffe398"/><stop offset="0.97" stop-color="#ffca84"/><stop offset="1" stop-color="#ffc782"/></linearGradient><linearGradient id="linear-gradient-3" x1="61.46" y1="89.6" x2="94.27" y2="89.6" gradientTransform="translate(-19.73 33.25) rotate(-15.91)" gradientUnits="userSpaceOnUse"><stop offset="0" stop-color="#de7f7c"/><stop offset="1" stop-color="#b5586c"/></linearGradient><linearGradient id="linear-gradient-4" x1="64.21" y1="115.61" x2="94.98" y2="115.61" xlink:href="#linear-gradient-2"/><linearGradient id="linear-gradient-5" x1="14.42" y1="107.44" x2="188.32" y2="107.44" xlink:href="#linear-gradient"/><linearGradient id="linear-gradient-6" x1="108.66" y1="15.19" x2="131.47" y2="15.19" xlink:href="#linear-gradient-2"/><linearGradient id="linear-gradient-7" x1="110.02" y1="23.08" x2="116.58" y2="23.08" xlink:href="#linear-gradient-2"/><linearGradient id="linear-gradient-8" x1="-1083.18" y1="-127.09" x2="-1083.18" y2="-137.9" gradientTransform="matrix(-1.27, -0.06, -0.05, 1, -1278.34, 136.53)" gradientUnits="userSpaceOnUse"><stop offset="0" stop-color="#733300"/><stop offset="1"/></linearGradient><linearGradient id="linear-gradient-9" x1="-1027.96" y1="-20.94" x2="-1027.96" y2="-29.69" gradientTransform="matrix(-0.99, 0.29, 0.32, 1.08, -938.68, 398.15)" xlink:href="#linear-gradient-8"/></defs><title>ЛЕв</title><g class="cls-1"><g id="Layer_1" data-name="Layer 1"><polygon class="cls-2" points="73.61 269.59 95.81 270.9 95.55 269.94 73.61 268.82 73.61 269.59"/><polygon class="cls-2" points="73.64 282.85 95.81 284.51 95.38 285.43 73.5 283.62 73.64 282.85"/><path class="cls-3" d="M110.2,276.1c.71,0,.8,1.54,0,1.54S109.5,276.09,110.2,276.1Z"/><path class="cls-3" d="M91.92,276.39c.71,0,.79,1.54,0,1.54S91.21,276.37,91.92,276.39Z"/><path class="cls-4" d="M76.54,275.41a3,3,0,0,1,0,1.46l-2.15-.14v0l-1.27-.08-1.33-.09a1,1,0,0,1,0-1.4l1.33.08,1.27.06Z"/><path class="cls-5" d="M74.51,269.5c-.06,1.15-.12,3.19-.12,5.78l-1.27-.06c0-2.63.07-4.66.09-5.82,0-.69.06-1.07.06-1.07s5.84.06,12.23.33c3.83.16,7.84.42,10.92.79,0,0,0,.29,0,.8,0,2.09.13,8,0,14.4,0,.49,0,1,0,1.52-3.11-.11-5.94-.29-8.46-.48s-4.5-.38-6.34-.59c-5.44-.61-8.35-1.22-8.35-1.22,0-.36,0-.69,0-1-.07-2.26-.09-4.34-.11-6.22l1.27.08v0c0,1.89,0,4,.12,6.27l.26.05a168.51,168.51,0,0,0,20.42,2v-.37c.12-6.25,0-12.07,0-14.27l-1.58-.14c-6.7-.6-15.82-.79-19.08-.84Z"/><path class="cls-3" d="M66.81,175.34c-.88.36-1.79.71-2.77,1l-.19-.43c-8.5-30.83-28.24-49.69-28.24-49.69L44.49,116S56.63,121.74,66.81,175.34Z"/><path class="cls-6" d="M68.21,116.08a135.9,135.9,0,0,1,3.75,18,140,140,0,0,1,.71,32.1c-.41,4.35-.9,6.84-.9,6.84a51.85,51.85,0,0,1-5,2.27C56.63,121.74,44.49,116,44.49,116c14.39-10.3,21.65-6.5,21.65-6.5.67,2,1.31,4,1.88,6A6.44,6.44,0,0,0,68.21,116.08Z"/><path class="cls-7" d="M49,120.81c-2.73-4-4.49-4.82-4.49-4.82l-8.88,10.25s1.82,1.74,4.59,5A40.34,40.34,0,0,0,49,120.81Z"/><path class="cls-8" d="M56.15,117.8c-1.13.46,6.39-2.51,11.46-3.7-.46-1.54-1-3.07-1.47-4.61,0,0-7.26-3.8-21.65,6.5,0,0,1.82.88,4.65,5.05,4.46,6.6,11.44,21.47,17.67,54.3l1.09-.45A177.68,177.68,0,0,0,56.15,117.8Z"/><path class="cls-9" d="M27.92,145.78l0,0s-1.09,3.63-2.94,9c-1-4.6-2.42-11.94-1.58-14.68,0,0,2.48-9.75,12.23-13.93,0,0,19.74,18.86,28.24,49.69l.19.43a41.7,41.7,0,0,1-8.12,1.94s-2.18-1.85-6.18-6.08a253.55,253.55,0,0,1-16.58-19.5Q30.66,149.5,27.92,145.78Z"/><path class="cls-10" d="M71.1,167.24c-3.17,7.52-11.95,8.18-20.27,6.11,3.29,3.42,5.09,5,5.09,5A41.7,41.7,0,0,0,64,176.36c1-.31,1.89-.66,2.77-1a51.85,51.85,0,0,0,5-2.27s.49-2.49.9-6.84c.07-.7.14-1.46.2-2.25C72.28,165.09,71.69,166.18,71.1,167.24Z"/><path class="cls-8" d="M29,138.35a73,73,0,0,1,10.68-7.77c-2.45-2.84-4-4.34-4-4.34-9.75,4.18-12.23,13.93-12.23,13.93a12.12,12.12,0,0,0-.19,4,71.33,71.33,0,0,0,1.4,9c0-3.78.66-10.48.61-10A19.66,19.66,0,0,1,27.85,146a1.35,1.35,0,0,0,0-.18l0,0q2.73,3.72,5.24,6.94a253.55,253.55,0,0,0,16.58,19.5c4,4.23,6.18,6.08,6.18,6.08,1-.13,2-.31,2.95-.52C50.81,164.16,39.69,150.17,29,138.35Z"/><path class="cls-9" d="M31.54,221.4c-1.67,11-8.42,46.73-8.42,46.73-4.19-3.73-8.07-10.39-8.07-10.39s4.52-15.9,8.07-29.94A55.2,55.2,0,0,0,31.54,221.4Z"/><path class="cls-3" d="M40.9,212.13s-2.45,38.29-5.8,60.69a32.13,32.13,0,0,1-9.19-2.73,12,12,0,0,1-2.79-2s6.75-35.7,8.42-46.73C34.55,218.71,37.68,215.55,40.9,212.13Z"/><path class="cls-11" d="M50.9,235.68s.85,42.19-3.6,61.54a0,0,0,0,0,0,0c-1.07,2.28-2.12,4.64-3.09,7,0,0-.41,3.59-1,9.33-11.07.67-15.54-6.82-15.54-6.82s1.26-6.12,5.56-23.44c.67-2.72,1.33-6.35,1.94-10.51,3.35-22.4,5.8-60.69,5.8-60.69.49-.51,1-1,1.47-1.55,0,0,.71-.1,1.82-.34A138.67,138.67,0,0,0,50.9,235.68Z"/><path class="cls-3" d="M55.92,267.44v12.64S51.58,288,47.3,297.22c4.45-19.35,3.6-61.54,3.6-61.54,2.39,6.87,4.22,12.09,3.72,16.26C53.77,258.79,52.78,265.65,55.92,267.44Z"/><path class="cls-10" d="M54.62,251.94c.5-4.17-1.33-9.39-3.72-16.26a138.67,138.67,0,0,1-6.71-25.44c-1.11.24-1.82.34-1.82.34-.49.53-1,1-1.47,1.55-3.22,3.42-6.35,6.58-9.36,9.27a55.2,55.2,0,0,1-8.42,6.4c-.51,2-1,4-1.56,6a54.84,54.84,0,0,0,17.78-12.41c13.07,25.29,18.23,57.46.17,82.22A79.05,79.05,0,0,0,36.76,313a20.28,20.28,0,0,0,6.38.6c.64-5.74,1-9.33,1-9.33,1-2.36,2-4.72,3.09-7a0,0,0,0,1,0,0c4.28-9.27,8.62-17.14,8.62-17.14V267.44C52.78,265.65,53.77,258.79,54.62,251.94Z"/><path class="cls-12" d="M103.46,134.53c1.74,1,.15,3.31-1,3.13S101.73,133.56,103.46,134.53Z"/><path class="cls-12" d="M96.46,165.13a1.36,1.36,0,0,1,.83,1.25c0,1-.9,2-1.68,1.91-.55-.07-.78-.95-.71-1.81S95.52,164.64,96.46,165.13Z"/><path class="cls-12" d="M93.93,197.5a1.34,1.34,0,0,1,.95,1.28c0,.88-.75,1.83-1.5,1.79s-1-1-.86-1.94S93,197.16,93.93,197.5Z"/><path class="cls-13" d="M170.94,220.18c-8.23-9-16.9-27.77-16.9-27.77-4.44-41.81-3-59.7,17.36-63a5.17,5.17,0,0,1,1,1c4.22,5.77,34.62,64.93,33.36,98.84,0,0-13.83,19.69-47.3,43.37a40.94,40.94,0,0,0-17.56-11.48c.45-.69,1-1.48,1.59-2.36,6.44-9.41,20.61-28.57,25.69-35.66A14.7,14.7,0,0,1,170.94,220.18Z"/><path class="cls-14" d="M172.39,130.37c.18-.37-.58-.67-1-1a22.85,22.85,0,0,0-10.61,4.27c18.75,27.86,31.93,60.54,39.83,93.87A296.55,296.55,0,0,1,157,271c.5.5,1,1,1.5,1.55,23.7-16.77,37.53-31.52,43.61-38.71,2.5-3,3.69-4.66,3.69-4.66C179,225.66,161.31,152.71,172.39,130.37Z"/><path class="cls-15" d="M200.62,227.51c-7.9-33.33-21.08-66-39.83-93.87-10.07,7.87-10.24,26-6.75,58.77,0,0,8.67,18.75,16.9,27.77a14.7,14.7,0,0,0-2.77,2.9c-5.08,7.09-19.25,26.25-25.69,35.66-.6.88-1.14,1.67-1.59,2.36A40.37,40.37,0,0,1,157,271,296.55,296.55,0,0,0,200.62,227.51Z"/><path class="cls-16" d="M189.05,228.67c-4.48-3.78-14-5.35-19.83-6.85a14.3,14.3,0,0,0-1.05,1.26c-5.08,7.09-19.25,26.25-25.69,35.66-.6.88-1.14,1.67-1.59,2.36a38.07,38.07,0,0,1,10,4.89C163.76,255.31,180.82,242.2,189.05,228.67Z"/><path class="cls-16" d="M186.4,220.42c-9.35-18.06-18-36.51-21.47-56.43-2-8.69-5.36-22.37-1.26-32.18-12.89,6.65-13.43,24.9-9.63,60.6,0,0,8.67,18.75,16.9,27.77l-.06.07A43.76,43.76,0,0,1,186.4,220.42Z"/><path class="cls-17" d="M140.89,261.1a40.94,40.94,0,0,1,17.56,11.48c1.58-1.12,3.1-2.23,4.6-3.32a47.53,47.53,0,0,0-20.63-10.42C141.85,259.68,141.32,260.43,140.89,261.1Z"/><path class="cls-13" d="M158.45,272.58c.23.22.45.46.66.7-2.32,6.8-8,13.23-8,13.23-3.53-9.27-11.84-12.28-16-13.23a23,23,0,0,0-2.5-.42l.55-1.23,2.42-5.37,2.63-5.84a21.21,21.21,0,0,1,2.68.68A40.94,40.94,0,0,1,158.45,272.58Z"/><path class="cls-15" d="M139.25,274.6c2.1-3.87,4.2-7.75,6.37-11.62a35.16,35.16,0,0,0-4.73-1.88,21.21,21.21,0,0,0-2.68-.68l-2.63,5.84-2.42,5.37-.55,1.23a23,23,0,0,1,2.5.42A27.37,27.37,0,0,1,139.25,274.6Z"/><path class="cls-18" d="M155.71,269.87c-2.15,4.11-4.53,8.1-7.07,12a20.58,20.58,0,0,1,2.48,4.64s5.67-6.43,8-13.23c-.21-.24-.43-.48-.66-.7C157.54,271.59,156.62,270.7,155.71,269.87Z"/><path class="cls-13" d="M139.1,121.36s25.75,2.87,32.3,8c-20.32,3.34-21.8,21.23-17.36,63,0,0-13.26,43.61-11.56,66.33-.6.88-1.14,1.67-1.59,2.36a21.21,21.21,0,0,0-2.68-.68l-2.63,5.84c-3.32.75-6.7,1.36-10.08,1.87h0c-2.57.4-5.16.73-7.73,1,0-.32-.09-.66-.13-1l-5.06.49s0,.35.09,1c-5.55.44-11,.63-16.21.66,0-.51,0-.8,0-.8.43-6.46-1.27-11.29-2.44-16.07-1-4,.83-10.67,2.5-19.73.3-1.64.6-3.37.88-5.16,1.56-10.18,1.77-19.63,2.27-29.55.1-1.51.17-3,.26-4.54.68-10.8.74-20.3,1.69-29.53.06-.71.15-1.41.23-2.12,1.16-9.92,4.73-22.28,9.58-28.55,2.07,3.8,3.51,7.31,3.51,7.31s10-8.8,15.91-13.8A66.64,66.64,0,0,1,139.1,121.36Z"/><path class="cls-19" d="M96.23,263.49a30.47,30.47,0,0,1,.19,6s0,.29,0,.8c5.22,0,10.66-.22,16.21-.66-.05-.62-.09-1-.09-1l5.06-.49c0,.34.1.68.13,1,2.57-.27,5.16-.6,7.73-1h0c3.38-.51,6.76-1.12,10.08-1.87l2-4.47A150,150,0,0,1,96.23,263.49Z"/><path class="cls-17" d="M135.58,266.26l2.63-5.84a21.21,21.21,0,0,1,2.68.68c.45-.69,1-1.48,1.59-2.36C140.78,236,154,192.41,154,192.41a290.08,290.08,0,0,1-2-30.73c-12.89,33.69-23.3,70.06-25.63,106.31C129.45,267.51,132.54,267,135.58,266.26Z"/><path class="cls-14" d="M139.1,121.36s-2.37,1.4-8.29,6.62l-1.61,1.44A196.78,196.78,0,0,1,161,134a22.42,22.42,0,0,1,10.41-4.29C164.85,124.35,139.1,121.36,139.1,121.36Z"/><path class="cls-19" d="M139.1,121.36s-2.37,1.4-8.29,6.62-15.91,14.39-15.91,14.39-1.44-3.66-3.51-7.62a31.77,31.77,0,0,0-2.84,4.82,70,70,0,0,1,5.27,11c8.2-9.94,17.73-19.35,25.81-29.11Z"/><path class="cls-6" d="M146.33,307c0-2.06-.11-3.12-.11-3.12V296a57.88,57.88,0,0,0,3.69-7.41c7.71,27.45-1.16,18.14-1.72,35.35s1.2,10.27-.64,23.45c-1.46,10.56-3.45,9.21-2.42,14.34l-4.61.5a47.5,47.5,0,0,1-1.68-10.52c0-6.41,2.75,5.31,5.48-15.54A202.19,202.19,0,0,0,146.33,307Z"/><path class="cls-20" d="M135.11,273.28c-6.79,1.07-15.57,2.65-16.51,7.29v.32c0,.45,0,.89,0,1.38a7.12,7.12,0,0,1,.11,1.77c-.15,5.08-4.76,8.58-4.76,8.58-.61.52-.11.79,1,.73,4.51-3.54,8-7.87,9.48-12.79a77.23,77.23,0,0,0,17.38-4.75A25.6,25.6,0,0,0,135.11,273.28Z"/><path class="cls-20" d="M126.76,282.67v1.61a45.05,45.05,0,0,0,15.58,21.93c.51-.76,1-1.54,1.43-2.32A77,77,0,0,1,126.76,282.67Z"/><path class="cls-6" d="M146.54,367.09c3.49,11.83-2.86,46.23-5.71,57.84s2.5,14.3.29,18.1-2.44,7.09-3.12,12.28c-.64,4.86-4.82,12.48-7.92,17a9.33,9.33,0,0,0-2.34-5c2.08-2,5.19-8.23,5.08-12.83s.32-9.91,1.8-11.32,3.06-3.06,2-9.47-.73-16.23,1-25.76,4.86-27.62,4.54-35.45a57.88,57.88,0,0,0-1.59-10.24l4.61-.5C145.39,363.05,145.85,364.73,146.54,367.09Z"/><path class="cls-21" d="M146.33,307a202.19,202.19,0,0,1-2,29.19c-2.73,20.85-5.48,9.13-5.48,15.54a47.5,47.5,0,0,0,1.68,10.52,57.88,57.88,0,0,1,1.59,10.24c.32,7.83-2.86,25.92-4.54,35.45s-2,19.35-1,25.76-.52,8-2,9.47-1.91,6.7-1.8,11.32-3,10.8-5.08,12.83a13.91,13.91,0,0,0-1.07-1.12c7.47-9.57,2.25-19.62,6.49-23.79s-.86-13.1,2.42-32.16,6.41-34,3.52-46.32-2.58-10.86,0-33.79c2.45-21.67,5.13-5.8,5.21-24.08C145,306.39,145.64,306.71,146.33,307Z"/><path class="cls-6" d="M146.22,308.94s.07,1.28.11,3.76c-.69-.36-1.37-.75-2-1.13,0-1.3,0-2.6,0-3.92C144.92,308.1,145.56,308.52,146.22,308.94Z"/><path class="cls-11" d="M146.22,299.44v10c-.66-.42-1.3-1.34-1.91-1.79s-1.84-.44-2.47-.94A69.77,69.77,0,0,0,146.22,299.44Z"/><path class="cls-6" d="M144.31,307.65c0,1.32,0,2.62,0,3.92C127.68,301.85,124.38,288,124.38,288a12.35,12.35,0,0,0,2.21-4.34s3,12.64,15.75,22.52C143,306.71,143.63,307.19,144.31,307.65Z"/><path class="cls-9" d="M93.42,327.11a14.57,14.57,0,0,0-2.23-2.31c-2-1.64-5.25-3.91-7.8-7.49a17,17,0,0,1-1.17-1.84q-.42-.74-.78-1.53a4.65,4.65,0,0,1-.31-.87l.31,0c8.68,1.35,2.42-16.68,6.34-27.83,2.51.16,5.34.31,8.46.4,0-.42,0-.85,0-1.26h0c5.68-.13,11.65-.65,17.16-1.31,0,.46,0,.9,0,1.31l5.05-.5c-.15,4.19-4.77,7.08-4.77,7.08-1.81,1.28,6.1.82,10.45-3.79,0,0,5.31,13.41,21.93,21.44-.08,18.28-4.76.41-7.2,22.08-2.59,22.93-2.91,21.41,0,33.79s-.24,27.26-3.52,46.32,1.83,28-2.43,32.16,1,14.22-6.48,23.79a11.2,11.2,0,0,0-1-.85c-1.67-1.24-17.34-2.67-26.89-2.09.21-.45.4-.9.56-1.34,2.29-5.33,4.19-9.29,3.23-15-.53-3.17-.47-5.05.32-6.5a5.28,5.28,0,0,1,.89-1.19A18.94,18.94,0,0,1,107.2,437c.91-.6,1.81-3,2.66-6.49h0c3.34-14.17,5.46-46.62,2.4-53.07-3.79-8-1.69-5.06-3.79-32.76C106.6,320.06,99.54,334.61,93.42,327.11Z"/><path class="cls-22" d="M125.17,445.18c-6.36-16.83-9.55-35.9,0-49.36,5.91-9.4-6.06-15.88-14.16-22.16.35.91.81,1.93,1.44,3.25,3,6.45.94,38.9-2.41,53.07h0c-.84,3.51-1.74,5.89-2.66,6.49a19.27,19.27,0,0,0-3.62,2.74,5,5,0,0,0-.88,1.19c-.79,1.45-.85,3.33-.32,6.5,1,5.74-.94,9.7-3.23,15-.17.44-.36.89-.56,1.34a127,127,0,0,1,23.83,1.25C124.19,457.24,127.39,450.67,125.17,445.18Z"/><path class="cls-23" d="M139.1,121.36s-2.37,1.4-8.29,6.62-15.91,14.39-15.91,14.39-1.44-3.66-3.51-7.62c-2.49-4.81-5.89-10-8.63-9.6,0,0,16.21-7.69,23-11.1h0c1.69-.86,2.82-1.44,3-1.58.77-.7.68-4.91-2.54-7.45,0-.67.1-1.34.15-2C133,108.37,139.1,121.36,139.1,121.36Z"/><path class="cls-24" d="M126.38,103c0,.65-.1,1.32-.15,2,3.22,2.54,3.31,6.75,2.54,7.45-.15.14-1.28.72-3,1.58h0c-6.83,3.41-23,11.1-23,11.1,1.56-.25,3.32,1.32,5,3.6a112.79,112.79,0,0,0,26.36-16.31C131.92,109,129.2,105.3,126.38,103Z"/><path class="cls-25" d="M135.58,266.26l-2.42,5.37a57.94,57.94,0,0,0-7.66-3.5C128.88,267.62,132.26,267,135.58,266.26Z"/><path class="cls-26" d="M133.16,271.63l-.55,1.23a23,23,0,0,1,2.5.42c-6.79,1.07-15.57,2.65-16.51,7.29a70.7,70.7,0,0,0-.85-11.44c2.57-.27,5.16-.6,7.73-1h0A57.94,57.94,0,0,1,133.16,271.63Z"/><path class="cls-27" d="M98.77,463.28c9.55-.58,25.22.85,26.89,2.09a12.55,12.55,0,0,1,1,.85,13.91,13.91,0,0,1,1.07,1.12,9.33,9.33,0,0,1,2.34,5c-2.4.73-33.24.68-45.91,0,1.31-2.77,2-5.25,6.14-7.16a22.54,22.54,0,0,1,3-1.09A26.62,26.62,0,0,1,98.77,463.28Z"/><path class="cls-28" d="M126.23,105c3.22,2.54,3.31,6.75,2.54,7.45-.15.14-1.28.72-3,1.58C125.9,110.94,126.05,107.92,126.23,105Z"/><path class="cls-20" d="M95,127.56l-.66,1.61c-3.72-5.6-9.15-9.37-15.52-11.79a19.1,19.1,0,0,1-.58,2.71h0c4.84,1.69,8.23,2.58,8.23,2.58,1.87,1.45,4,7.32,5.51,12.28,1.17,3.81,2,7.09,2,7.4,2.61-8.75,8.78-17.21,8.78-17.21s16.21-7.69,23-11.1h0c0-.77.07-1.51.09-2.26C114.41,118.32,97.78,121.26,95,127.56Z"/><path class="cls-29" d="M112.65,269.59c-.05-.62-.09-1-.09-1l5.06-.49c0,.34.1.68.13,1a70.7,70.7,0,0,1,.85,11.44,4.21,4.21,0,0,0,0,1.7,7.12,7.12,0,0,1,.11,1.77l-5,.61c0-.5,0-1,0-1.59C113.53,278.33,112.92,272,112.65,269.59Z"/><path class="cls-30" d="M133.16,271.63l2.42-5.37c-1.32.3-2.66.56-4,.82-1.08,1.65-2.17,2.91-3.24,2.91-7.66,1.64-12.28,5-14.88,9.27.08,1.31.14,2.61.16,3.8,0,.56,0,1.09,0,1.59l5-.61a7.12,7.12,0,0,0-.11-1.77,4.21,4.21,0,0,1,0-1.7c.94-4.64,9.72-6.22,16.51-7.29a23,23,0,0,0-2.5-.42Z"/><path class="cls-26" d="M112.65,269.59c.27,2.41.88,8.74,1,13.47a152.13,152.13,0,0,1-17.17,1.59h0c.13-6.42,0-12.31,0-14.4C101.66,270.22,107.1,270,112.65,269.59Zm-2.45,8.05c.8,0,.71-1.52,0-1.54S109.44,277.64,110.2,277.64Z"/><path class="cls-30" d="M112.65,269.59l-1.79.13a57.42,57.42,0,0,1,.7,13.62l2.07-.28C113.53,278.33,112.92,272,112.65,269.59Z"/><path class="cls-6" d="M110,430h0c-.84,3.51-1.74,5.89-2.66,6.49a19.27,19.27,0,0,0-3.62,2.74,77.72,77.72,0,0,1-3.23-14.88c-1-7.22-3-18.76-9.51-26.5S76.33,383.33,73.61,378s1.59-7-1.26-8.84-9.4-3.58-8.35-5.9c.58-1.26,2.59-2.5,4.26-3.81l2.7.34c-1.26,1.37.9,2.63,3.08,3.1,8.16,1.73,7,.9,5.07,6s4.87,8.26,12.08,19.21S106.78,416.94,110,430Z"/><path class="cls-21" d="M103.76,439.22a5,5,0,0,0-.88,1.19c-7.36-18.47-.7-32-21.26-50.68S77.94,371.67,67.57,368c-7.75-2.73-6.74-5.64-.9-9.59s-2.35-5.95,0-29.18c2.27-22.6,15-13,15.74-14.29a18.57,18.57,0,0,0,1.16,1.84S77,330.63,73.51,340.91s-5.61-9.93-5.38-2.12,2.1,14.37,2.46,17.13c.17,1.24-1,2.39-2.33,3.48-1.67,1.31-3.68,2.55-4.26,3.81-1,2.32,5.5,4,8.35,5.9s-1.44,3.47,1.26,8.84S84.49,390.09,91,397.84s8.55,19.28,9.51,26.5A77.72,77.72,0,0,0,103.76,439.22Z"/><path class="cls-11" d="M102.56,446.91c1,5.74-.94,9.7-3.23,15-12.23-7.58-29.51-10.72-29.51-10.72s7.37-7.74,3.58-11.61,4.43-4,3.17-7.74C72.18,419,38.35,372.45,35.2,369.17s.62,7.26,2.54-14.78c1.31-15.37,3.93-35.72,5.4-46.65.64-4.74,1-7.7,1-7.7,1-2,2-3.89,3.09-5.77a0,0,0,0,1,0,0c4.28-7.65,8.62-14.15,8.62-14.15l2,.33c.1.91.17,1.46.17,1.46l3.92.5c-.09-.44-.15-.9-.22-1.39,2.87.39,6.7.89,11.44,1.39,0,.28,0,.55,0,.85a41.35,41.35,0,0,0,8.1,1.38s-2.06,21.18-.05,28a4.66,4.66,0,0,0,.3.87c.24.53.51,1,.79,1.53-.7,1.27-13.47-8.31-15.74,14.29-2.35,23.23,5.81,25.24,0,29.18s-6.85,6.86.9,9.59c10.37,3.64-6.49,3,14.05,21.7s13.9,32.21,21.26,50.68C102.09,441.86,102,443.74,102.56,446.91Z"/><path class="cls-22" d="M93.36,434c0-3.36-8-6.73-8-7.85-1.37-23.19-24-38.9-47.5-53.56,8.84,11.58,34.85,48.15,38.66,59.32,1.26,3.72-7,3.87-3.17,7.74s-3.58,11.61-3.58,11.61a113.25,113.25,0,0,1,17.84,5.1C91.4,449.13,94.1,441.79,93.36,434Z"/><path class="cls-31" d="M99.33,461.94c-.17.44-.36.89-.56,1.34a26.62,26.62,0,0,0-5.43.76,22.54,22.54,0,0,0-3,1.09c-26.23,1.38-57.75-.88-56.33-3.48s23-6.77,35.84-10.43C69.82,451.22,87.1,454.36,99.33,461.94Z"/><path class="cls-16" d="M102.76,125s-6.17,8.11-8.78,16.5h0c-.22.67-.41,1.35-.56,2a205.46,205.46,0,0,0-3,20.73c-.95,8.56-1.82,18.29-2.34,27.08-.15,2.47-.29,4.87-.38,7.15a1,1,0,0,0,0,.24c-.63,15.28-1,25.81-2.18,34.16-.28,1.93-.6,3.74-1,5.47-2.07,9.21-4.13,15-1.91,20.17,1.61,3.7,2.87,6.72,2.92,10.13,3.83.16,7.84.42,10.92.79.43-6.46-1.27-11.29-2.44-16.07-1-4,.83-10.67,2.5-19.73.3-1.64.6-3.37.88-5.16,1.56-10.18,1.77-19.63,2.27-29.55.1-1.51.17-3,.26-4.54.68-10.8.74-20.3,1.69-29.53.06-.71.15-1.41.23-2.12,1.16-9.92,4.73-22.28,9.58-28.55C108.9,129.58,105.5,124.56,102.76,125ZM90.83,267.81c-1.16.21-2.33-3.41-.32-3.09A1.61,1.61,0,0,1,90.83,267.81ZM91.9,233c-.26.9-1.37,1.69-2.1,1.46-.39-.11-.51-.64-.43-1.22.17-1.07,1-2.34,2-1.58A1.25,1.25,0,0,1,91.9,233Zm1.48-32.45c-.62,0-1-1-.86-1.94s.51-1.47,1.41-1.13a1.34,1.34,0,0,1,.95,1.28C94.88,199.66,94.13,200.61,93.38,200.57Zm2.23-32.28c-.55-.07-.78-.95-.71-1.81s.62-1.84,1.56-1.35a1.36,1.36,0,0,1,.83,1.25C97.29,167.35,96.39,168.37,95.61,168.29Zm6.84-30.63c-1.17-.18-.72-4.1,1-3.13S103.61,137.84,102.45,137.66Z"/><path class="cls-15" d="M87,253.69c1.2-6.53,2-13,2.57-19.35a1.39,1.39,0,0,1-.2-1.08,3.16,3.16,0,0,1,.38-1c1.49-18.18,1.32-36.05,3.61-54.63.35-4.19.88-8.32,1.55-12.4a3.35,3.35,0,0,1,0-.55,2.59,2.59,0,0,1,.2-.75,161.38,161.38,0,0,1,7.08-27c-.77-.64-.33-3.47,1.11-2.94q1.36-3.63,2.91-7.26c-1.18-1.15-2.36-1.83-3.44-1.66,0,0-6.17,8.11-8.78,16.5h0c-.22.67-.41,1.35-.56,2a205.46,205.46,0,0,0-3,20.73c-.95,8.56-1.82,18.29-2.34,27.08-.15,2.47-.29,4.87-.38,7.15a1,1,0,0,0,0,.24c-.63,15.28-1,25.81-2.18,34.16-.28,1.93-.6,3.74-1,5.47-2.07,9.21-4.13,15-1.91,20.17,1.61,3.7,2.87,6.72,2.92,10.13l3.24.16C87.25,263.62,86.37,258.54,87,253.69Z"/><path class="cls-19" d="M102.76,125.15s-.91,1.27-2.2,3.31a40.38,40.38,0,0,1,7.74,11.63,32,32,0,0,1,3.09-5.34C108.9,129.94,105.5,124.7,102.76,125.15Z"/><path class="cls-19" d="M84,261.9a19.52,19.52,0,0,1,1.52,6.76c3.83.16,7.84.42,10.92.79a31,31,0,0,0-.32-6.93A58.61,58.61,0,0,1,84,261.9Zm6.85,5.91c-1.16.21-2.33-3.41-.32-3.09A1.61,1.61,0,0,1,90.83,267.81Z"/><path class="cls-29" d="M95.17,270.41c0,2.2.14,8,0,14.27-2.73,0-5.37-.05-7.85-.27-4.65-.42-8.87-.9-12.57-1.36l-.26-.05c-.08-2.26-.12-4.38-.12-6.27l2.15.14a3,3,0,0,0,0-1.46l-2.15-.13c0-2.59.06-4.63.12-5.78,5.57.4,12,.72,19.08.77Zm-3.25,7.52c.79,0,.71-1.52,0-1.54S91.17,277.93,91.92,277.93Z"/><path class="cls-32" d="M95.17,270.41l-1.58-.14c-1.86,0-3.68,0-5.46-.1a33,33,0,0,1,.26,14.3c2.18.16,4.45.24,6.8.21C95.31,278.43,95.22,272.61,95.17,270.41Zm-3.25,7.52c-.75,0-.71-1.56,0-1.54S92.71,277.93,91.92,277.93Z"/><path class="cls-6" d="M91.38,324.3a14.57,14.57,0,0,1,2.23,2.31c-8.26,12.33-15.46,6.57-15.46,14.56S81,356.37,75,357.93c-2.22.57-3.48,1.2-4,1.81l-2.7-.34c1.37-1.09,2.5-2.24,2.33-3.48-.36-2.76-2.25-9.31-2.46-17.13s1.89,12.4,5.38,2.12,10.06-24.1,10.06-24.1C86.12,320.39,89.35,322.66,91.38,324.3Z"/><path class="cls-12" d="M91.38,231.68A1.25,1.25,0,0,1,91.9,233c-.26.9-1.37,1.69-2.1,1.46-.39-.11-.51-.64-.43-1.22C89.54,232.19,90.38,230.92,91.38,231.68Z"/><path class="cls-12" d="M90.51,264.72a1.61,1.61,0,0,1,.32,3.09C89.67,268,88.5,264.4,90.51,264.72Z"/><path class="cls-33" d="M86.42,122.63s-4.35,4.68-7.84,14.41L72,133.61a128.81,128.81,0,0,1,.71,30.78c9.18,1.2,12.32,4.7,10.47,8.19a27.27,27.27,0,0,1-2.27,3.16l.07.08a4.83,4.83,0,0,1,1.51,5.32c.91,1.24,3.58,3.11.84,6.66.43,1.09,1.24,1.84,1.16,3.54a3.22,3.22,0,0,1-.94,1.89,18.16,18.16,0,0,1-6,3.86l0,0a84.78,84.78,0,0,1-22.83,6h0c-.66,1.4-.41,2.38-1.65,3.34a23.2,23.2,0,0,1-8.78,3.78,138.67,138.67,0,0,0,6.71,25.44c2.39,6.87,4.22,12.09,3.72,16.26-.85,6.85-1.84,13.71,1.3,15.5,0,0,.69.13,2,.31,0-.43.1-.85.17-1.27L62,267s0,.45-.09,1.24c2.91.35,6.76.75,11.29,1.12,0-.69.06-1.07.06-1.07s5.84.06,12.23.33c0-3.41-1.31-6.43-2.92-10.13-2.22-5.15-.16-11,1.91-20.17.37-1.73.69-3.54,1-5.47,1.21-8.35,1.55-18.88,2.18-34.16a1,1,0,0,1,0-.24c.09-2.28.23-4.68.38-7.15.52-8.79,1.39-18.52,2.34-27.08a205.46,205.46,0,0,1,3-20.73c.15-.67.34-1.35.56-2h0C93.82,140.82,89.73,125.08,86.42,122.63Z"/><path class="cls-13" d="M56.18,202.89l-1.56.22h0c-.66,1.4-.41,2.38-1.65,3.34a23.2,23.2,0,0,1-8.78,3.78,138.67,138.67,0,0,0,6.71,25.44c2.39,6.87,4.22,12.09,3.72,16.26-.85,6.85-1.84,13.71,1.3,15.5,0,0,.69.13,2,.31,0-.43.1-.85.17-1.27L62,267s0,.45-.09,1.24c1,.13,2.27.26,3.56.4A94,94,0,0,0,60,245.53C54.33,232.07,52.72,216.58,56.18,202.89Z"/><path class="cls-13" d="M86.42,122.63s-4.35,4.68-7.84,14.41L72,133.61a128.81,128.81,0,0,1,.71,30.78c9.18,1.2,12.32,4.7,10.47,8.19a27.27,27.27,0,0,1-2.27,3.16l.07.08a4.83,4.83,0,0,1,1.51,5.32c.91,1.24,3.58,3.11.84,6.66.43,1.09,1.24,1.84,1.16,3.54a3.22,3.22,0,0,1-.94,1.89,18.16,18.16,0,0,1-6,3.86l0,0a84,84,0,0,1-21.27,5.78c-3.46,13.69-1.85,29.18,3.78,42.64a94,94,0,0,1,5.52,23.15c2.26.24,4.84.49,7.73.72,0-.69.06-1.07.06-1.07s5.84.06,12.23.33c0-3.41-1.31-6.43-2.92-10.13-2.22-5.15-.16-11,1.91-20.17.37-1.73.69-3.54,1-5.47,1.21-8.35,1.55-18.88,2.18-34.16a1,1,0,0,1,0-.24c.09-2.28.23-4.68.38-7.15.52-8.79,1.39-18.52,2.34-27.08a205.46,205.46,0,0,1,3-20.73c.15-.67.34-1.35.56-2h0C93.82,140.82,89.73,125.08,86.42,122.63Z"/><path class="cls-15" d="M80.64,155.84c-4-11.05,1-19.29,10-25.26-1.31-3.59-2.82-6.93-4.2-8,0,0-4.35,4.68-7.84,14.41L72,133.61a128.81,128.81,0,0,1,.71,30.78c9.18,1.2,12.32,4.7,10.47,8.19-1,1.8-3.81,2-4.2,2.76,1.42,2.75,2.27,4.3.7,1.7,1.26,1.2,2.27,1.89,1.41,4.1.92,1.24,5,3.11,2.24,6.66.43,1.09,1.24,1.84,1.16,3.54a3.22,3.22,0,0,1-.94,1.89,18.16,18.16,0,0,1-6,3.86l0,0a84.78,84.78,0,0,1-22.83,6h0c-.66,1.4-.41,2.38-1.65,3.34a23.2,23.2,0,0,1-8.78,3.78c.32,2.13.71,4.16,1.12,6.12a31.17,31.17,0,0,1,3.52-2.09c3.18-1.35,12.72,0,11.13-8.15a77.59,77.59,0,0,0,27.59-5.26c0-.92.07-1.7.09-2.13a1,1,0,0,1,0-.24c.09-2.28.23-4.68.38-7.15.52-8.79,1.39-18.52,2.34-27.08,0-.32.07-.64.11-1C86.74,159.61,80.64,157.72,80.64,155.84Z"/><path class="cls-16" d="M49.24,170.72h0c-2.31,1.12-4.14,3.65-5.53,6.31,0,0-4-14.76-11-25.82A253.55,253.55,0,0,0,49.24,170.72Z"/><path class="cls-19" d="M53.78,261.5c0,2.84.55,5,2.14,5.94,0,0,.69.13,2,.31,0-.43.1-.85.17-1.27L62,267s0,.45-.09,1.24c2.91.35,6.76.75,11.29,1.12,0-.69.06-1.07.06-1.07s5.84.06,12.23.33a18.35,18.35,0,0,0-1.29-6.15A162,162,0,0,1,53.78,261.5Z"/><path class="cls-6" d="M87.71,285.19c-3.92,13.5,2.34,33.83-6.34,32.2l-.3.05c-2-8.23.3-32.84.3-32.84C83.21,284.81,85.33,285,87.71,285.19Z"/><path class="cls-34" d="M81.14,190c1.27-1.08,3.37-.27,3.31,1.32v.05a3.22,3.22,0,0,1-.94,1.89l-.22.24a2.06,2.06,0,0,1-3.47-.91,6.08,6.08,0,0,1-.19-1.29v-.12C80.19,190.74,80.69,190.34,81.14,190Z"/><path class="cls-34" d="M83.29,187.8a18.93,18.93,0,0,1-3.66,3.35v.12a13.86,13.86,0,0,0,.26,1.73,23.48,23.48,0,0,0,3.48-5C83.35,187.92,83.31,187.86,83.29,187.8Z"/><path class="cls-23" d="M86.42,122.68s-4.35,4.88-7.84,15L72,134.13a135.9,135.9,0,0,0-3.75-18c3.54,1.63,7,3,10,4C83,121.79,86.42,122.68,86.42,122.68Z"/><path class="cls-23" d="M72,134.13l6.62,3.58a57.45,57.45,0,0,1,5.2-11.27,46,46,0,0,1-15.16-8.77A135,135,0,0,1,72,134.13Z"/><path class="cls-24" d="M78.19,120.1c-3-1-6.44-2.39-10-4,.15.53.27,1.06.41,1.59a46,46,0,0,0,15.16,8.77,28.86,28.86,0,0,1,2.64-3.76S83,121.79,78.19,120.1Z"/><path class="cls-19" d="M68.21,116.08a135.9,135.9,0,0,1,3.75,18l3.64,2a66.53,66.53,0,0,0-3.14-18.19C71.07,117.34,69.65,116.74,68.21,116.08Z"/><path class="cls-35" d="M81.11,182.23c.11-.2.21-.41.3-.61a4.7,4.7,0,0,0-1.26-5.06l.61-.6.18-.14-.07-.08a27.27,27.27,0,0,0,2.27-3.16c1.85-3.49-1.29-7-10.47-8.19-.41,4.17-.9,6.56-.9,6.56a53.63,53.63,0,0,1-5,2.18c-.88.33-1.79.67-2.77,1A44,44,0,0,1,55.92,176s-2.18-1.77-6.18-5.83h0c-2.31,1.08-4.14,3.5-5.53,6.05a34.6,34.6,0,0,0-1.95,4.23,39.55,39.55,0,0,0-1.35,4.14,46.74,46.74,0,0,0,9.47,19c1.39-.09,2.82-.22,4.26-.41a84.78,84.78,0,0,0,22.83-6l0,0c2.73-1.28,4.39-1.94,5.54-2.9a4.9,4.9,0,0,0,1.48-3c0-1.08-.18-3.34-1.2-3.35.3-.5,1.8-4.7-1.88-6.18"/><path class="cls-34" d="M42.21,180.49a39.89,39.89,0,0,0-1.32,4.07,46.74,46.74,0,0,0,9.47,19c1.39-.09,2.82-.22,4.26-.41.69-.09,1.39-.19,2.08-.3C49.33,197.24,44.5,189,42.21,180.49Z"/><path class="cls-20" d="M72.67,166.23c-.41,4.35-.9,6.84-.9,6.84a51.85,51.85,0,0,1-5,2.27c-.88.36-1.79.71-2.77,1a41.7,41.7,0,0,1-8.12,1.94s-2.18-1.85-6.18-6.08h0A12.3,12.3,0,0,0,45.08,177a29.89,29.89,0,0,0,9.68,4.89c8.76-1.74,15.54-4.56,20.42-9.29a52,52,0,0,0-1.11-6.1C73.61,166.38,73.16,166.3,72.67,166.23Z"/><path class="cls-28" d="M78.3,109.09a20.85,20.85,0,0,1-.11,11h0c-3-1-6.44-2.39-10-4a6.44,6.44,0,0,1-.19-.64c2.85-5.35,6.45-7.14,6.9-7.34C75.94,108.42,77.08,108.77,78.3,109.09Z"/><path class="cls-24" d="M68,115.44a6.44,6.44,0,0,0,.19.64c.86.4,1.73.78,2.59,1.15A29.43,29.43,0,0,1,77,108.72l-2.06-.62C74.47,108.3,70.87,110.09,68,115.44Z"/><path class="cls-28" d="M78.19,120.1h0a20.85,20.85,0,0,0,.11-11L77,108.72a29.43,29.43,0,0,0-6.18,8.51C73.43,118.35,76,119.31,78.19,120.1Z"/><path class="cls-26" d="M73.21,269.4c0,1.16-.07,3.19-.09,5.82l-1.33-.08a1,1,0,0,0,0,1.4l1.33.09c0,1.88,0,4,.11,6.22-4.74-.61-8.57-1.2-11.44-1.68a82.78,82.78,0,0,1,.13-12.89C64.83,268.63,68.68,269,73.21,269.4Z"/><path class="cls-30" d="M73.12,276.63l-1.33-.09a1,1,0,0,1,0-1.4l1.33.08c0-2.63.07-4.66.09-5.82l-2.35-.2a57.49,57.49,0,0,1,.47,13.4l1.9.25C73.16,280.59,73.14,278.51,73.12,276.63Z"/><path class="cls-29" d="M61.92,268.28a82.78,82.78,0,0,0-.13,12.89c.07.59.13,1.15.22,1.68l-3.92-.61s-.07-.65-.17-1.76a70.45,70.45,0,0,1,0-12.73c0-.43.1-.85.17-1.27L62,267S62,267.49,61.92,268.28Z"/><path class="cls-26" d="M57.92,267.75a70.45,70.45,0,0,0,0,12.73l-2-.4V267.44S56.61,267.57,57.92,267.75Z"/><path class="cls-16" d="M54.62,203.11h0c-.66,1.4-.41,2.38-1.65,3.34-.94-1-1.82-2-2.61-2.94C51.75,203.43,53.18,203.3,54.62,203.11Z"/><path class="cls-23" d="M44.19,210.24c-1.11.24-1.82.34-1.82.34C27.6,204.94,29.7,188.74,29.7,188.74a91.17,91.17,0,0,1,10.47-8.27,27.06,27.06,0,0,0,.72,4.09,46.74,46.74,0,0,0,9.47,19c.79,1,1.67,2,2.61,2.94A23.2,23.2,0,0,1,44.19,210.24Z"/><path class="cls-15" d="M41.73,187.58c-.35-1.1-.64-2.13-.84-3a27.06,27.06,0,0,1-.72-4.09,91.17,91.17,0,0,0-10.47,8.27,24.62,24.62,0,0,0,.67,8.29A92.44,92.44,0,0,1,41.73,187.58Z"/><path class="cls-13" d="M41.73,187.58A92.44,92.44,0,0,0,30.37,197a19,19,0,0,0,6.5,10.43,75.42,75.42,0,0,0,11-7.24A46.68,46.68,0,0,1,41.73,187.58Z"/><path class="cls-16" d="M47.89,200.22a75.42,75.42,0,0,1-11,7.24,20.2,20.2,0,0,0,5.5,3.12s.71-.1,1.82-.34A23.2,23.2,0,0,0,53,206.46c-.94-1-1.82-2-2.61-2.94S48.64,201.31,47.89,200.22Z"/><path class="cls-33" d="M40.17,180.47a91.17,91.17,0,0,0-10.47,8.27,67.28,67.28,0,0,0-8.35,2.82h0c-.55.08-11.17,1.73-18.71,7.44,2.52-4.23,6.59-9.65,11-18.48A247.37,247.37,0,0,0,25,153.47c1.85-5.19,2.94-8.67,2.94-8.67l0,0q2.73,3.56,5.24,6.66c7,10.59,11,24.75,11,24.75a34.6,34.6,0,0,0-1.95,4.23c-.79.36-1.16-.54-2,0Z"/><path class="cls-13" d="M27.92,144.78l0,0s-1.09,3.48-2.94,8.67a247.37,247.37,0,0,1-11.3,27.05c-4.44,8.83-8.51,14.25-11,18.48,5.08-3.84,11.54-5.84,15.39-6.76,9.06-12.54,14.65-26.51,14.65-41.41C31.15,148.93,29.57,146.93,27.92,144.78Z"/><path class="cls-16" d="M33.16,151.44l-.49-.61c0,14.9-5.59,28.87-14.65,41.41,1.87-.45,3.14-.65,3.32-.68h0a67.28,67.28,0,0,1,8.35-2.82,91.17,91.17,0,0,1,10.47-8.27l0,0c.87-.56,1.24.34,2,0a34.6,34.6,0,0,1,1.95-4.23S40.19,162,33.16,151.44Z"/><path class="cls-19" d="M44.19,178.54s-4-14.76-11-25.82q-2.5-3.22-5.24-6.94l0,0s-1,3.38-2.75,8.49A139.14,139.14,0,0,1,43.6,179.76C43.8,179.35,44,178.94,44.19,178.54Z"/><path class="cls-16" d="M40.21,180.47c.87-.59,1.24.35,2,0a42.76,42.76,0,0,0-1.35,4.31,29.15,29.15,0,0,1-.72-4.26Z"/><path class="cls-15" d="M42.32,210.51l-1.46,1.56c-3.23,3.42-6.36,6.57-9.37,9.27a54.6,54.6,0,0,1-8.42,6.39c-4.47,2.63-8.5,3.53-12,1.83C4.35,226.27,1.19,213.27.35,209.19c4-7.33,7.37-9.66,10.73-12.14a48.28,48.28,0,0,1,10.21-5.55h0a64.72,64.72,0,0,1,8.35-2.82S27.56,204.87,42.32,210.51Z"/><path class="cls-16" d="M42.37,210.58C27.6,204.94,29.7,188.74,29.7,188.74l-1.37.38c-3.11,6.2-4.34,15.07,1.42,22.44a25.49,25.49,0,0,0,5.81,6c1.75-1.72,3.53-3.55,5.34-5.47C41.39,211.62,41.88,211.11,42.37,210.58Z"/><path class="cls-13" d="M29.61,190.4a15.8,15.8,0,0,1,.09-1.66,67.28,67.28,0,0,0-8.35,2.82h0a48.28,48.28,0,0,0-10.21,5.55C7.77,199.6,4.43,201.92.4,209.25c.84,4.09,4,17.09,10.73,20.38a9.13,9.13,0,0,0,5.6.71c-.46-.79-.9-1.61-1.3-2.47C9.91,214.89,16.37,198.86,29.61,190.4Z"/><path class="cls-16" d="M2.63,199c7.54-5.71,18.16-7.36,18.71-7.44a48.28,48.28,0,0,0-10.21,5.55C7.77,199.6,4.43,201.92.4,209.25.23,208.46.15,208,.15,208-.41,205,.62,202.39,2.63,199Z"/><path class="cls-16" d="M2.63,199c-2,3.39-3,6-2.48,9,0,0,.08.45.25,1.24a38.78,38.78,0,0,1,4.2-6.31,21.6,21.6,0,0,1,3.23-7.09A33.2,33.2,0,0,0,2.63,199Z"/><path class="cls-36" d="M82.93,184.31c-.18-.22-.35-.42-.48-.61-.55,1.42-1.82,2.94-4.3,4.48a6.14,6.14,0,0,1,.07,1.33v.19A12.7,12.7,0,0,0,82.93,184.31Z"/><path class="cls-34" d="M82.45,181.14c.91,1.24,3.58,3.11.84,6.66a18.93,18.93,0,0,1-3.66,3.35c0-3.79-1.5-2.87-1.41-4.44a5.58,5.58,0,0,0-.07-1.27C80.63,184,81.9,182.51,82.45,181.14Z"/><path class="cls-34" d="M80.94,178.15a5.18,5.18,0,0,1,1.51,5.55,7.65,7.65,0,0,1-2.16,2.91,2.05,2.05,0,0,1-2.94-.23c-1-1.21-2.35-1.63-2.22-2.83a7.18,7.18,0,0,0,.05-.9,21.66,21.66,0,0,0,5.58-4.35Z"/><path class="cls-36" d="M81.05,178.27l-.11-.12-.18.15a21.66,21.66,0,0,1-5.58,4.35,7.18,7.18,0,0,1-.05.9,1.51,1.51,0,0,0,.59,1.29A23.86,23.86,0,0,0,81.05,178.27Z"/><path class="cls-37" d="M75.18,180.13A21.63,21.63,0,0,0,80.76,176l.18-.14-.07-.08a27.27,27.27,0,0,0,2.27-3.16c1.07-2,.47-4-2-5.59-.21,10.37-15.3,9.61-10.07,14.73,3.79,3.72,5.3,9.76,6.91,14.91,2.92-2.63,1.62-3.76,1.62-5.36a3.48,3.48,0,0,0-.48-2.76c-.91-1.39.13-2.87-.59-4.12s-2.73-1.63-3-2.27,0-1.74-.43-2"/><path class="cls-38" d="M142.5,50.67s-1.09-21.16,10.72-19.57,17.61,19.19-6.42,24.69l-3-1.35,4-1.47S146.48,51.72,142.5,50.67Z"/><path class="cls-39" d="M109.32,1.66s2.2,8.22-12.5,11.35c-5.43,1.68-9.9,3.69-8.93,7.94-1.43-.53-1.1-3.05-.09-4-4.13,1.6-4.52,3.95-4,6.16-1.78-2.51-3.87-1.66-3.87-1.66s2,.8,2,4.17c-3.3.14-11.4,4.82-16,10.13S39.31,50.78,34,45.49c-.6,3.1,2.4,4.5,2.4,4.5S21,51.07,16,59c-3.32,5.31-2,10.38.46,16.16,1.25,3.29.29,5-2.95,5.64,1.12,2.35,4.19,1.56,4.19,1.56s-12.47,8.55.51,20c6.38,4.82,6.82,5.55,3.31,8.88,0,0,3.53,1.13,5.46-1.9-2.12,5.94-2.46,9.45,5,12.81s15.06,1.94,10.34,8.1A2.43,2.43,0,0,0,46,130.1S41,135.89,58.16,141.8c13.54,4.9,15.06,6.4,15.47,9.72s-4.73,5.91-4.73,5.91,6.51,3.16,17-1.46c8.58-2.4,10.75-2.83,16-.9s18.52,4.6,26.45-6.48c-1.05,4.49-.13,5.31-.13,5.31s.36-4.41,8.89-2.51,17.91,1.16,20.32-5.68a6.62,6.62,0,0,0,3.15,2.77s-3.18-5.8,3.19-5.71,20.45.1,19.84-20.23a3.56,3.56,0,0,0,4.92,1.77c-3.9-1-5.12-6.58,1.34-8.09s12.73-8.18,5-18.44c3.36,1.39,4.4.31,4.4.31s-6.5-2.17-2.3-9.27c2.28-4.52-2.36-9.13-2.36-9.13s3.76.88,4.11,3.14c-.3-6.08-4.58-15.57-29.4-28.92-12-6.46-34.38-17.11-29.08-25.1a8.15,8.15,0,0,0-6.75,1.38s.25-6.5-3.57-9.52a4.33,4.33,0,0,1-1.56,4.85s-.74-6.27-6.53-8.81S115.06,8.39,109.32,1.66Z"/><path class="cls-40" d="M189.42,114.56c6.47-1.52,12.72-8.18,5-18.44,3.36,1.39,4.4.31,4.4.31s-6.49-2.17-2.3-9.27c2.29-4.52-2.35-9.13-2.35-9.13s3.76.89,4.11,3.14c-.31-6.08-4.58-15.57-29.41-28.92-12-6.46-34.37-17.11-29.07-25.1A8.15,8.15,0,0,0,133,28.53s.25-6.5-3.57-9.52a4.32,4.32,0,0,1-1.57,4.85s-.73-6.27-6.53-8.81-6.74-8.31-12.49-15c0,0,0,.18.08.47a46.45,46.45,0,0,1,3.8,9.51c3.12,11.23,13.49,7.7,13.87,16.6,3,1.05,4.6-2.38,4.6-2.38s1.54,4.9,1.18,7.19a16.2,16.2,0,0,1,4.64-1s-.23,12.07-4.34,21.19c3.1-3.09,3.71-3.11,3.71-3.11l-.27,6.08s3.71-1.75,6-1.75c-2.53,1.85-2.86,3.21-2.86,3.21a35.54,35.54,0,0,1,9.5,2.32c6.11,2.63,6.6,1.55,17.87-.16s25.76,17.27,25.76,17.27-2.88-2-5.91,1.44c10.57,3.54,4.23,15.58.46,17,7.71,2.91,2.65,9.25,2.65,9.25s.48-8.49-8.44-3.59c-12,6.26-27-8.76-25.6-5.68s0,6.64,0,6.64-1.07-2.94-5.72-7.9C131.26,74.81,77.13,75.67,59.3,75s-27,14.57-27,14.57-4.18-3-3.87-12.62C25.1,81,19.51,78,19.51,78s7.23.94,2.12-10.51S33.94,51.65,43.15,52.12c-2.57-.5-5.49-4-2.21-2.78s7.34-.76,7.34-.76S44.8,56,47.67,52.14c6-8.36,13.18-4.31,13.18-4.31L59.7,42.06l4.18,3,1-3.7s1,6,2.93-1.07c3-10.82,11.66-13.74,14.92-13.26,0-5.93,3.35-7.16,3.35-7.16l2.58,1.21a9.6,9.6,0,0,1,1.76-7.37c-2.29,1.34-3.61,3.07-3,5.58-1.43-.53-1.11-3.05-.1-4-4.12,1.6-4.52,3.95-4,6.16-1.79-2.51-3.87-1.66-3.87-1.66s2,.8,2,4.17c-3.31.14-11.4,4.82-16,10.13s-26.61,15-31.88,9.74c-.61,3.1,2.4,4.5,2.4,4.5s-15.41,1.08-20.39,9c-3.32,5.31-2,10.38.46,16.16,1.24,3.29.29,5-3,5.64,1.13,2.35,4.2,1.56,4.2,1.56s-12.47,8.55.51,20c6.37,4.82,6.82,5.55,3.31,8.88,0,0,3.52,1.13,5.45-1.9-2.11,5.94-2.45,9.45,5,12.81s15.06,1.94,10.34,8.1a2.41,2.41,0,0,0,3.6-.14s-4.93,5.79,12.19,11.7c13.55,4.9,15.07,6.4,15.47,9.72s-4.72,5.91-4.72,5.91,6.5,3.16,17-1.46c8.58-2.4,10.74-2.83,16-.89S120,158,127.89,146.94c-1,4.48-.12,5.3-.12,5.3s.36-4.41,8.89-2.51,17.9,1.16,20.32-5.68a6.57,6.57,0,0,0,3.15,2.77s-3.18-5.8,3.18-5.7,20.46.1,19.85-20.24a3.56,3.56,0,0,0,4.92,1.77C184.17,121.69,183,116.07,189.42,114.56Z"/><path class="cls-41" d="M80.4,62.27a25.61,25.61,0,0,1,2.74-7.55A39.39,39.39,0,0,1,85,59.52s8.28-15.16,21.43-19.4c0,0,17.83,8.51,24.52,22.85a11.16,11.16,0,0,0-4.16.42,13.3,13.3,0,0,1,4.59,2.82,7.55,7.55,0,0,0-4.18.65,18.84,18.84,0,0,1,3.72,1.07c-3.51.47-8,5.95-10.58,10.9,8.05,1.91,29.13,8.34,31.18,15.53-4.31-1.74-5-1.1-5-1.1a12.66,12.66,0,0,1,3.07,6.14c-3.59-2.37-3.92-2-3.92-2a7.48,7.48,0,0,1,1.41,4.68c-2.45-1.28-5.29-.53-8.4,2.86s-3.74,6.33-7.47,6.8-14.9.29-19.82,3.29c-3.32,2-7.17,9-9.84,11.38,3.48,2.26,3.78,2.77,3.78,2.77a21,21,0,0,1-7.67,1.31l2.35,1.79a19.2,19.2,0,0,1-12.67-1.63,26.22,26.22,0,0,1,0,3.6,13.44,13.44,0,0,1-3.21-2.62c-2.42,1.93-7.13,1.93-7.13,1.93l2-3.08a29.26,29.26,0,0,0-7,.75,8.16,8.16,0,0,1,3.23-3.06s-5.88-1.36-6.56-3.76,3.15-6.14,3.15-6.14-9.3-5.24-8.71-9.15c-2.26-3-9.21-10.26-15.49-9.87a5.11,5.11,0,0,1,1.68-2.82,6.49,6.49,0,0,0-3.16.46,9.54,9.54,0,0,1,1.08-5.49s-2.89.86-3.68,1.78c-2.26-2.9-1.59-7.66-.2-8.67-2.9.86-3.35,2.22-3.35,2.22a6.76,6.76,0,0,1,3.36-6,15,15,0,0,0-3.47.51s6.39-6,22.74-7.37c-.44-2.8-3.42-5.11-3.42-5.11a8,8,0,0,1,4.57-1.28,14.84,14.84,0,0,0-5.56-4.72s3.17-.27,4.73.55c-2.82-3.63-8.19-7.15-8.19-7.15A11.54,11.54,0,0,1,59.63,51c3.58-1.93,4.09-4,6.79-4.85s7.44-3.08,7.44-3.08,5.14,7.39,4.93,10.8S80.4,62.27,80.4,62.27Z"/><path class="cls-35" d="M81.3,63.58a24.49,24.49,0,0,1,2.59-7.13A40.36,40.36,0,0,1,85.67,61s7.8-14.32,20.23-18.33c0,0,16.84,8,23.17,21.59a10.29,10.29,0,0,0-3.92.39,12.55,12.55,0,0,1,4.33,2.66,7.25,7.25,0,0,0-4,.62,18.22,18.22,0,0,1,3.52,1c-3.31.43-7.58,5.62-10,10.3,7.61,1.8,27.53,7.88,29.46,14.67-4.08-1.64-4.76-1-4.76-1a11.89,11.89,0,0,1,2.92,5.81c-3.4-2.25-3.71-1.87-3.71-1.87a7.11,7.11,0,0,1,1.33,4.42c-2.3-1.21-5-.5-7.93,2.7s-3.54,6-7,6.43-14.09.27-18.73,3.11c-3.14,1.92-6.77,8.52-9.29,10.74,3.27,2.14,3.57,2.63,3.57,2.63a19.93,19.93,0,0,1-7.25,1.23l2.22,1.69a18.15,18.15,0,0,1-12-1.54,25.09,25.09,0,0,1,0,3.4,12.64,12.64,0,0,1-3-2.47C82.51,131,78.06,131,78.06,131L80,128.05a28.17,28.17,0,0,0-6.62.71,7.85,7.85,0,0,1,3.06-2.9s-5.55-1.28-6.2-3.54,3-5.81,3-5.81-8.79-4.94-8.23-8.63c-2.13-2.87-8.71-9.7-14.63-9.34a4.76,4.76,0,0,1,1.58-2.65,6,6,0,0,0-3,.43,9,9,0,0,1,1-5.19s-2.74.82-3.5,1.68c-2.12-2.73-1.49-7.24-.18-8.19-2.73.81-3.16,2.1-3.16,2.1a6.37,6.37,0,0,1,3.18-5.67,14.19,14.19,0,0,0-3.28.47s6-5.63,21.49-7c-.43-2.63-3.24-4.83-3.24-4.83a7.61,7.61,0,0,1,4.31-1.21,14,14,0,0,0-5.24-4.46s3-.25,4.47.53C62.11,61.15,57,57.83,57,57.83a10.92,10.92,0,0,1,4.65-4.9c3.37-1.82,3.85-3.78,6.41-4.59s7-2.9,7-2.9,4.85,7,4.65,10.19S81.3,63.58,81.3,63.58Z"/><path class="cls-36" d="M143,96.8s.31-.38,3.71,1.87a11.89,11.89,0,0,0-2.92-5.81s.68-.6,4.76,1C146.57,87.11,126.65,81,119,79.23c2.42-4.68,6.69-9.87,10-10.3a18.22,18.22,0,0,0-3.52-1,7.25,7.25,0,0,1,4-.62,12.55,12.55,0,0,0-4.33-2.66,10.29,10.29,0,0,1,3.92-.39c-6.33-13.56-23.17-21.59-23.17-21.59-7.69,2.47-13.6,8.89-17,13.42,0,.13-.06.26-.09.37,6-8.42,17.6-11.91,23.79-6.66s11.33,15.49,8.27,20.34-5.79,5.67-17.23,6.08c34.13,7.05,39.94,18.67,37.49,18.31s-5,2.36-2.81,2.08,3.69,2.78,2.39,2.17-3-.87-7.53,3.81-17.27,8.41-21.58,5.87-2.85-7.35,1.18-7.56,7.66-3,4.91-2.68-6.54,1.13-7.86-.53-1.13-6.54-2.72-2.58-7.88,2.32-7.93-3.18S97,76,96.94,79.36C96.65,83.93,98.5,94,90.55,89.7s-20-3.6-24.13-2.11,2-6.42,6.1-10.24c-12.85,7.88-14,19.88-17.27,16.78s-.14-9.22-.14-9.22a10,10,0,0,0-4.33.87C50.67,81.53,55,80.67,55,80.67a17.7,17.7,0,0,1-3-.34C56.58,76.71,72.88,74,72.88,74c-9.1-.44-2.79-7.73-6.95-12.81S68.7,49.67,72.6,48.61s7.47,11,7.47,11l.08-.13a15.9,15.9,0,0,1-.37-3.82c.2-3.22-4.65-10.19-4.65-10.19s-4.47,2.09-7,2.9-3,2.77-6.41,4.59A10.92,10.92,0,0,0,57,57.83s5.07,3.32,7.75,6.76c-1.48-.78-4.47-.53-4.47-.53a14,14,0,0,1,5.24,4.46,7.61,7.61,0,0,0-4.31,1.21s2.81,2.2,3.24,4.83C49,75.89,43,81.52,43,81.52a14.19,14.19,0,0,1,3.28-.47,6.37,6.37,0,0,0-3.18,5.67s.43-1.29,3.16-2.1c-1.31.95-1.94,5.46.18,8.19.76-.86,3.5-1.68,3.5-1.68a9,9,0,0,0-1,5.19,6,6,0,0,1,3-.43,4.76,4.76,0,0,0-1.58,2.65c5.92-.36,12.5,6.47,14.63,9.34-.56,3.69,8.23,8.63,8.23,8.63s-3.62,3.54-3,5.81,6.2,3.54,6.2,3.54a7.85,7.85,0,0,0-3.06,2.9,28.17,28.17,0,0,1,6.62-.71L78.06,131s4.45,0,6.74-1.82a12.64,12.64,0,0,0,3,2.47,25.09,25.09,0,0,0,0-3.4,18.15,18.15,0,0,0,12,1.54l-2.22-1.69a19.93,19.93,0,0,0,7.25-1.23s-.3-.49-3.57-2.63c2.52-2.22,6.15-8.82,9.29-10.74,4.64-2.84,15.21-2.66,18.73-3.11s4.12-3.22,7-6.43,5.63-3.91,7.93-2.7A7.11,7.11,0,0,0,143,96.8Z"/><path class="cls-35" d="M134.93,47.92a64.42,64.42,0,0,0,4.21-15c1.7-9.64,7.32-13.29,17.41-9.46s17.95,13.64,17,21.17S164.84,54.94,159,55a19.16,19.16,0,0,0-9.16,2.1s-5.57-2.94-6.12-3,4-1.47,4-1.47a13.11,13.11,0,0,0-9.63-1.92s-.4-3.45.37-5.1A7.92,7.92,0,0,0,134.93,47.92Z"/><path class="cls-42" d="M76.14,56.57s-2.57-.08-12.21,5.48c1.28-2.26,6.14-6.53,11.34-9.11C75.29,53.5,76.14,56.57,76.14,56.57Z"/><path class="cls-43" d="M76.49,56.16S73.85,56,64.2,61.5c1.28-2.26,6.18-6.46,11.39-9A36.12,36.12,0,0,0,76.49,56.16Z"/><path class="cls-44" d="M66.62,89.44a31,31,0,0,1,6.84-1,35.12,35.12,0,0,1,14.11,2.09c7.58,2.75,13.59,7.15,4.23,13.81-8,5.32-11.22,7.24-16.68,4.77C71,107.2,58.72,97.35,62.51,92A7.52,7.52,0,0,1,66.62,89.44Z"/><path class="cls-45" d="M82.51,109.66s.6-4.07,3.46-5.55,3.72-3.91,0-3.45-4.9,2.11-4.46,4.56S82.51,109.66,82.51,109.66Z"/><path class="cls-45" d="M71.5,106.9s-.44-3.39-2.94-4.85S67,99.43,69,100s3,4.58,3.15,7.34Z"/><path class="cls-35" d="M68.67,104.59S61,106,67.06,112s11.46,7,12.6,6.21c5,3.35,10.77,2,16.41-2.49s10.54-12.19,6.33-14.41-16,9.52-24.25,8.8C74,109.72,68.67,104.59,68.67,104.59Z"/><path class="cls-41" d="M107.74,95.17s0,.19,0,.51A8,8,0,0,0,108,97a4.37,4.37,0,0,0,.66,1.58,2.84,2.84,0,0,0,1.46,1,4.41,4.41,0,0,0,1,.19,6.5,6.5,0,0,0,1,0c.33,0,.65,0,1-.07s.58-.08.86-.11c.52-.1,1-.15,1.31-.22l.49-.08s-.16.11-.44.26a4.12,4.12,0,0,1-.52.27c-.21.08-.44.2-.7.3a8.15,8.15,0,0,1-.87.27l-.49.13c-.17,0-.35,0-.52.08a6,6,0,0,1-1.13.06,4.78,4.78,0,0,1-1.17-.2A3.35,3.35,0,0,1,107.93,99a3.85,3.85,0,0,1-.38-1,3.49,3.49,0,0,1-.12-.93,5.23,5.23,0,0,1,.16-1.37A4.8,4.8,0,0,1,107.74,95.17Z"/><path class="cls-41" d="M109.2,99.74s0,.09,0,.25-.07.43-.16.75-.2.68-.35,1.1a14.12,14.12,0,0,1-.61,1.39,17.78,17.78,0,0,1-.85,1.58c-.35.53-.69,1.11-1.11,1.67s-.82,1.14-1.3,1.68l-.71.84c-.26.27-.51.53-.76.81s-.51.54-.76.79-.55.5-.81.76l-.78.73-.8.67c-.54.45-1,.88-1.55,1.26s-1,.73-1.44,1-.86.59-1.24.83l-1,.62-.86.52.75-.67c.47-.44,1.19-1,2-1.73.41-.37.84-.76,1.32-1.17s.93-.88,1.44-1.33l.76-.7c.24-.25.5-.5.75-.75l.77-.74.74-.79.75-.79c.25-.27.47-.53.71-.8.48-.53.92-1.07,1.34-1.6s.81-1,1.18-1.55.69-1,1-1.46.52-.88.74-1.27.39-.73.51-1A8.51,8.51,0,0,0,109.2,99.74Z"/><path class="cls-46" d="M69.81,107.19A62.19,62.19,0,0,1,77,111c1.37,1,3.67,4.77,1.2,5.7-2.71,1-8-3-9.68-4.83C65.43,108.38,66.86,106,69.81,107.19Z"/><path class="cls-47" d="M173.6,44.86a14.37,14.37,0,0,0-2.1-8.64c3.84,8.89-2.24,16.41-6,14.9-4-1.59,5.31-8-4.28-17.7s-18.56,0-17.62-4.83,4.91-6.6,14.94-4l.31.08c-.73-.35-1.48-.68-2.23-1-10.1-3.83-15.71-.18-17.41,9.45a64.68,64.68,0,0,1-4.22,15,7.93,7.93,0,0,1,3.56-2.27c-.78,1.65-.38,5.09-.38,5.09a13.14,13.14,0,0,1,9.63,1.93s-4.58,1.43-4,1.47,6.12,3,6.12,3a19.16,19.16,0,0,1,9.16-2.1C164.89,55.13,172.67,52.38,173.6,44.86Z"/><path class="cls-46" d="M94.74,105s-12.4,4.68-13.53,8.16,3.14,6,9.51,3.85C98.65,114.36,107.09,99.92,94.74,105Z"/><path class="cls-46" d="M69.15,86.77s6.34-13,15.14-12.8S90.55,89.7,90.55,89.7,82.15,85.26,69.15,86.77Z"/><path class="cls-48" d="M67.17,74.37l.56-.06c.37,0,.91-.1,1.6-.15,1.37-.1,3.36-.25,5.73-.34,1.19,0,2.47-.09,3.83-.1l2.1,0,2.19,0c1.48,0,3,.06,4.57.12s3.14.18,4.72.27,3.17.27,4.72.43c.77.11,1.55.2,2.3.28s1.51.19,2.25.32c1.46.24,2.88.43,4.22.72s2.6.52,3.76.8l3.14.83c.47.12.89.26,1.29.39l1.09.36,2.06.7-2.12-.52-1.1-.29c-.41-.1-.84-.21-1.31-.29-1-.19-2-.4-3.16-.65s-2.44-.39-3.77-.64c-.67-.11-1.36-.2-2.07-.3s-1.42-.18-2.15-.29c-1.46-.21-3-.31-4.52-.5s-3.13-.27-4.69-.41-3.15-.22-4.7-.29-3.08-.17-4.56-.21L81,74.48l-2.09,0c-1.35,0-2.64-.05-3.82-.07-2.37,0-4.35,0-5.73,0Z"/><path class="cls-49" d="M74.71,86.48s5.72-12.11,9.38-12.08-.45,12.81-.45,12.81A32.28,32.28,0,0,0,74.71,86.48Z"/><path class="cls-50" d="M142.41,50.37S141.32,29.2,153.14,30.8s17.6,19.18-6.42,24.69l-3-1.35,4-1.47S146.39,51.41,142.41,50.37Z"/><path class="cls-51" d="M75.34,118.63a6.25,6.25,0,0,0,4.73,1c5.8,2.43,9.83,2.4,17.77-3.28s4,3.59,0,6.66c-1,.64,2.81,1.58,3.28,2.53s-3.15,1.09-6.17.31c-2.16-.65-.27,1,1.54,2s-5.28.72-8.7-1.69c-.77,1.46-.48,2.78-1,2.83s-1.53-2.17-1.53-2.17-3.3,2.55-4.23,2.4,1.66-3.15,1.66-3.15-4.16.88-4.87.64,2.72-2.29,2.72-2.29-4.61.67-7.44-1.65S74.37,118,75.34,118.63Z"/><path d="M85.93,111.7l1.09-.06c.69,0,1.67-.09,2.86-.12s2.57-.11,4.05-.14l4.64-.1,4.65,0c1.48,0,2.86,0,4,0s2.17,0,2.87,0,1.08,0,1.08,0l-1.08.07-2.86.12c-1.19,0-2.57.11-4.06.14l-4.63.1-4.65,0c-1.49,0-2.87,0-4,0s-2.19,0-2.87,0Z"/><path d="M86.57,113.34l1,0c.6,0,1.47,0,2.52,0s2.26,0,3.56.06l4.09.11,4.08.17c1.31.06,2.52.14,3.56.2s1.91.13,2.52.17l1,.08-1,0c-.61,0-1.49,0-2.53,0s-2.26,0-3.57-.05L97.68,114l-4.08-.17c-1.3-.06-2.52-.15-3.56-.2s-1.91-.14-2.51-.17Z"/><path d="M87.11,115.39l.81.17c.51.12,1.24.27,2.12.48s1.9.44,3,.72,2.25.57,3.41.88,2.31.62,3.4.93,2.08.61,3,.86,1.57.5,2.08.65l.78.26-.81-.17c-.51-.12-1.24-.26-2.12-.48s-1.9-.44-3-.72-2.25-.57-3.41-.88-2.32-.62-3.41-.93L90,116.29c-.88-.25-1.59-.49-2.09-.64Z"/><path d="M71.57,110.27l-3.17.24c-.47,0-1,0-1.53.11l-1.71.14c-.6,0-1.21.12-1.83.18l-1.89.18-1.87.23c-.63.09-1.24.13-1.82.23l-1.7.25c-.53.09-1,.15-1.52.24-.93.2-1.7.35-2.26.46l-.86.16.85-.25c.53-.15,1.29-.38,2.22-.63.46-.11,1-.21,1.51-.32l1.7-.32c.58-.12,1.2-.19,1.82-.28l1.89-.25c1.26-.1,2.53-.23,3.73-.29s2.31-.1,3.26-.11,1.76,0,2.31,0Z"/><path d="M71.85,111.38l-.8.18-2.1.5-3,.67c-1.08.25-2.23.51-3.38.8s-2.3.56-3.38.84-2.07.55-2.92.81l-1.15.38c-.34.11-.64.21-.87.31l-.77.29.72-.38c.24-.12.53-.25.86-.38a8.81,8.81,0,0,1,1.13-.46c.84-.32,1.83-.67,2.89-1s2.21-.62,3.37-.91l1.73-.39,1.68-.35c1.11-.22,2.12-.38,3-.53s1.62-.24,2.13-.32Z"/><path d="M72.6,112.84l-.72.44c-.45.27-1.11.67-1.9,1.12L67.26,116l-3.15,1.72-3.17,1.67c-1,.53-2,1-2.79,1.41s-1.52.74-2,1-.77.35-.77.35l.72-.43c.46-.28,1.12-.68,1.91-1.13s1.72-1,2.73-1.55,2.07-1.13,3.14-1.71l3.17-1.67c1-.53,2-1,2.79-1.41s1.51-.73,2-1Z"/><g class="cls-52"><path class="cls-53" d="M89.15,91.12c3.57,1.73,7.65,4.12,6.68,5.65-1.65,2.6-11,1.52-13.59,3.89a6.41,6.41,0,0,1-9.55-.7c-2.79-3.37-4.23-2.26-8.85-4.73-1.48-.8-1.82-1.78-1.63-2.74-2.77,5.43,8.88,14.77,12.91,16.6,5.46,2.47,8.67.55,16.68-4.77C100.49,98.12,95.92,93.89,89.15,91.12Z"/></g><path class="cls-54" d="M92.05,94.38c-.16.31-.92.21-1.68-.2s-1.27-1-1.1-1.3.92-.21,1.68.21S92.2,94.09,92.05,94.38Z"/><path class="cls-54" d="M66.06,90.72s10.56-2.13,20.78,1.89C90.26,94.08,82.89,86.66,66.06,90.72Z"/><path class="cls-55" d="M189.42,114.56c3.4-.8,6.74-3,8-6.43-4.65,5.68-18,2.77-17.19,8,2.79,11.51-9.16,17-15.62,16.8s-7.61,6.66-7.61,6.66a11.26,11.26,0,0,1-.85-6.94C148.62,147.92,132.93,143,132.93,143l-5.61-5.48c-1.68,11.47-19.84,13.6-27.88,9.84s-13.18,2.83-21.56,5c6.19-3.64,1.65-12.3-7-14.72-15.49-4.31-20.57-7.57-20.3-16-1.1,2.35-4.68,4.76-4.68,4.76s2.79-7.68-4.53-8.66S30.61,112,30.82,101c-1.25,2.67-5.2,4.11-5.2,4.11s3.9-3.09.35-6c-9.75-5.37-11.11-13-4.8-18.58a22.93,22.93,0,0,0-4.58.67c-2.41,2-9.89,9.68,1.19,19.43,6.37,4.82,6.82,5.55,3.31,8.88,0,0,3.52,1.13,5.45-1.9-2.11,5.94-2.45,9.45,5,12.81s15.06,1.94,10.34,8.1a2.41,2.41,0,0,0,3.6-.14s-4.93,5.79,12.19,11.7c13.55,4.9,15.07,6.4,15.47,9.72s-4.72,5.91-4.72,5.91,6.5,3.16,17-1.46c8.58-2.4,10.74-2.83,16-.89S120,158,127.89,146.94c-1,4.48-.12,5.3-.12,5.3s.36-4.41,8.89-2.51,17.9,1.16,20.32-5.68a6.57,6.57,0,0,0,3.15,2.77s-3.18-5.8,3.18-5.7,20.46.1,19.85-20.24a3.56,3.56,0,0,0,4.92,1.77C184.17,121.69,183,116.07,189.42,114.56Z"/><path class="cls-56" d="M109.15,5.8s-2,6.31-12.07,7.6c-7.14,1.08-8.67,5.73-6.24,10.65-.35-8,2.86-7.49,7.72-7.75S108.84,13.22,109.15,5.8Z"/><path class="cls-57" d="M97.62,19.66s-5.8,2.95-2.18,9.39C90.54,27.38,91.72,18.78,97.62,19.66Z"/><path class="cls-58" d="M87.05,28.33s-10.86.86-14.55,11C72.78,34.22,76.79,25.64,87.05,28.33Z"/><path class="cls-46" d="M160.34,28.8s7.46,5.92,7.3,12.18,4.92,2,3.17-4.36S156.26,23.65,160.34,28.8Z"/><path class="cls-59" d="M76.11,74a136.71,136.71,0,0,1,25,1C91.35,72,81,72.58,76.11,74Z"/><path class="cls-60" d="M152.28,53.72c-11.21,1.45-7.21-20.74,3.28-17.27,7.71,2.54,5.74,9.42,4.15,12.9C167.38,42,161.93,32,153.14,30.8c-11.82-1.6-10.73,19.57-10.73,19.57,4,1,5.33,2.3,5.33,2.3l-4,1.47,3,1.35a41.19,41.19,0,0,0,5.61-1.7Z"/><path class="cls-42" d="M101.48,57.4s3.06-.51,14.92,5.07c-1.7-2.61-7.91-7.65-14.28-10.15C102.14,53,101.48,57.4,101.48,57.4Z"/><path class="cls-43" d="M101.07,56.85s3.06-.51,14.93,5.08c-1.71-2.62-7.86-7.15-14.23-9.65C101.81,53,101.07,56.85,101.07,56.85Z"/><path d="M114.25,70.83A11.82,11.82,0,0,1,106.77,74a21.4,21.4,0,0,1-8.45-1.26l-3.12.77.37-2.08s2.32-8.4,8.63-9.77c0,0,7.16-2.19,12.2,5.85C116.4,67.48,118.41,70,114.25,70.83Z"/><path class="cls-59" d="M96,72.06c1.56-3.91,2.42-7.63,7.72-9.54,5.45-2,10.31,2.53,11.64,6.36a11.64,11.64,0,0,1-7.76,4.59,18.9,18.9,0,0,1-9.27-1.3Z"/><path class="cls-61" d="M96,72.06c1.56-3.91,2.42-7.63,7.72-9.54,5.45-2,10.31,2.53,11.64,6.36a11.74,11.74,0,0,1-6.57,4.37l-3.93-9.17S99,65.14,97.43,70.4a6.67,6.67,0,0,0,2.77,2.44,14.65,14.65,0,0,1-1.92-.67Z"/><path class="cls-62" d="M100.85,67.72a6,6,0,1,0,6.26-5.29A5.8,5.8,0,0,0,100.85,67.72Z"/><path class="cls-63" d="M101.52,67.75a5.34,5.34,0,1,0,5.56-4.7A5.17,5.17,0,0,0,101.52,67.75Z"/><path d="M103.06,67.83a3.8,3.8,0,1,0,4-3.35A3.66,3.66,0,0,0,103.06,67.83Z"/><path class="cls-46" d="M106.33,66.33a2.22,2.22,0,1,0,2.31-2A2.15,2.15,0,0,0,106.33,66.33Z"/><path class="cls-35" d="M103.11,70.45a1.35,1.35,0,1,0,1.4-1.19A1.29,1.29,0,0,0,103.11,70.45Z"/><path d="M115.26,68.89c-1.61-3.83-6.41-7.84-11.81-6-4.89,1.68-6,5.53-7.39,9.18,0,.1-.25,0-.21-.06,1.5-3.8,3.07-8.65,8.51-10.05,5.61-1.43,9.8,3.11,11,6.9,0,0-.07.06-.09,0Z"/><path d="M80.31,73c-.13-.81-.29-1.84-.43-2.5-.26-1.21-2.22-6.84-5.89-7.92s-7.09-.37-8.89,4.79c0,0-1.59,1.42,1.44,3.13,0,0,2.67,3.3,5.49,3.34a12.67,12.67,0,0,0,5.2-1.16l2.54.62S80.41,73.72,80.31,73Z"/><path class="cls-59" d="M66.62,68.59c0-2.7,1.25-6.42,5.86-5.54,4,.78,6.33,4.38,7.12,8.41l.24.84-2.39-.1s-4.83,2.15-7.46.58A7.93,7.93,0,0,1,66.62,68.59Z"/><path class="cls-61" d="M70,72.78a7.93,7.93,0,0,1-3.37-4.19c0-2.7,1.25-6.42,5.86-5.54,4,.78,6.33,4.38,7.12,8.41l.24.84-2.39-.1s-.26.12-.68.27l-2.09-5.1L72,64a3.87,3.87,0,0,0-3.83,4.07c-.07,4.1,2.13,5.23,4.07,5.25h.18A4.63,4.63,0,0,1,70,72.78Z"/><path class="cls-64" d="M69.26,69.7c-.81-2.68.35-5.39,2.57-6s4.69,1,5.49,3.69A5.06,5.06,0,0,1,76,72.74a12.27,12.27,0,0,1-3.36.61A5.34,5.34,0,0,1,69.26,69.7Z"/><path class="cls-63" d="M69.7,69.57c.72,2.39,2.9,3.86,4.88,3.28s3-3,2.29-5.37S74,63.62,72,64.2,69,67.19,69.7,69.57Z"/><path d="M70.74,69.27a3,3,0,0,0,3.47,2.33,3,3,0,0,0,1.63-3.82,3,3,0,0,0-3.47-2.33A3,3,0,0,0,70.74,69.27Z"/><path class="cls-46" d="M72.46,67.2a1.75,1.75,0,0,0,2,1.36,1.71,1.71,0,0,0,1-2.23,1.74,1.74,0,0,0-2-1.36A1.72,1.72,0,0,0,72.46,67.2Z"/><path class="cls-35" d="M71.54,71.51A1,1,0,1,0,73.35,71a1.07,1.07,0,0,0-1.23-.83A1.06,1.06,0,0,0,71.54,71.51Z"/><path d="M79.56,71.47c-.62-3-1.94-6.53-5.67-7.82-1.7-.59-4.19-.66-5.59.84-1.16,1.25-1.2,2.74-1.54,4.08,0,.12-.25.17-.28.06a4.92,4.92,0,0,1,5.64-6,8.27,8.27,0,0,1,4.69,2.79,12,12,0,0,1,2.83,6s-.07.06-.08,0Z"/><path class="cls-47" d="M68.09,39.3a71.63,71.63,0,0,1,2.74-12.15C73,20.24,69.53,15.06,60,17.91S41.33,30.45,40.6,36.78s10,9.48,10.31,11.85c3.08-2.2,6.71-3.71,8.87-2.79-3.1-2.7-2.61-3.36-2.61-3.36s4.56-.27,7.46,1.17c-.84-5.46-.6-6-.6-6L66.75,42Z"/><path class="cls-35" d="M68.05,39.36A72.33,72.33,0,0,1,70.8,27.2c1.74-5.58-.17-10-6-10,12.28,3.06-1.09,19.7-.3,14.16S61.65,17.93,53.32,24s-7.27,17.79-9.89,15c-2.72-3.76,3.2-12.28,3.75-13.07-3.67,3.62-6.23,7.71-6.61,10.93-.74,6.33,10,9.48,10.31,11.85C54,46.48,57.6,45,59.76,45.89c-3.11-2.69-2.62-3.35-2.62-3.35s4.57-.27,7.46,1.17c-.84-5.46-.59-6-.59-6L66.72,42Z"/><path class="cls-46" d="M65.26,25.32s-2-8-13.09-2.21c-2.73,1.34,2.11-4,9-5.22S67.48,29,65.26,25.32Z"/><path class="cls-50" d="M59.77,42.51s7.6-13.86.27-18.33c-5.62-3.67-17,13.49-11.59,19.18,5.43,4.63,9.78.91,9.78.91S56.78,43,57.17,42.48,59.77,42.51,59.77,42.51Z"/><g class="cls-65"><path class="cls-50" d="M59.77,42.51s7.6-13.86.27-18.33c-4-2.58-10.79,5.17-12.57,12,.08-.19,4.69-9.59,9.87-7.17,4.89,2.28,1.63,16.36-5.52,16.36a7,7,0,0,0,6.41-1.06S56.78,43,57.17,42.48,59.77,42.51,59.77,42.51Z"/></g><path class="cls-34" d="M151.12,286.24s-.44,1.57-1.33,4v0a77.41,77.41,0,0,1-4.06,9.27v0a58.51,58.51,0,0,1-4.27,7c-14-10.2-16.46-19.53-16.46-19.53a11,11,0,0,1-2.28,4.25c-4.78,5.77-14.48,2.84-12.48,1.24,0,0,5.07-3.61,5.23-8.86a7.06,7.06,0,0,0-.12-1.82c0-.63,0-1.21,0-1.76,1-4.8,10.68-6.42,18.15-7.53A27.92,27.92,0,0,1,143.83,277,21,21,0,0,1,151.12,286.24Z"/><path class="cls-35" d="M125.6,288.55c1.74,4.59,7.28,12.17,16,18.51a57,57,0,0,0,4.23-6.85L146,300c1.83-3.51,2.57-6.78,3.46-9.22v0a30.67,30.67,0,0,0,1.71-4.23,21.76,21.76,0,0,0-6.4-8.74C137.32,280,130.17,283.73,125.6,288.55Z"/><path class="cls-66" d="M108.63,295.22c-.42-.65,1.15-3,2.17-4.24s2.66-1.58,3.47-.87.27,2.14-1,3.46a7,7,0,0,1-2.64,1.54C109.64,295.42,108.82,295.47,108.63,295.22Z"/></g></g></svg>