<svg id="Слой_1" data-name="Слой 1" xmlns="http://www.w3.org/2000/svg" viewBox="0 0 151 151"><defs><style>.cls-1{fill:#fff;}.cls-2{fill:#b04687;}.cls-3{opacity:0.1;}.cls-4{fill:#139ab0;}.cls-5{fill:#e8f5f8;}.cls-6{fill:#13181b;}.cls-7{fill:#1d1d1b;}.cls-8{fill:#eb5032;}</style></defs><title>Услуги</title><g id="Слой_4" data-name="Слой 4"><path class="cls-1" d="M109.32,130.15a5.29,5.29,0,0,1-1.06-.1,8.86,8.86,0,0,1-5.87-3.47,13.19,13.19,0,0,1-2.58-10.33l.07-.48a22.61,22.61,0,0,0,.27-2.72,7.12,7.12,0,0,0-1.25-4.63c-3.28-4.68-4.33-7.69-4.33-12.37,0-8.84,5.89-12,11.4-12a10.41,10.41,0,0,1,6.9,2.83,1.52,1.52,0,0,0,.6.32.83.83,0,0,0,.24,0,1.28,1.28,0,0,0,.48-.09,1.56,1.56,0,0,0,.65-.35A10.49,10.49,0,0,1,121.73,84c6.93,0,11.41,4.71,11.41,12,0,4.61-1.06,7.62-4.33,12.36a7.11,7.11,0,0,0-1.26,4.6c.06.72.15,1.84.35,3.25a13.05,13.05,0,0,1-2.58,10.33,9,9,0,0,1-5.89,3.47,5.83,5.83,0,0,1-1,.09,5.44,5.44,0,0,1-1.06-.1h-.07l-.06,0c-1.2-.61-1.29-1.26-1.28-1.87V128a63.6,63.6,0,0,0-.09-7,1.75,1.75,0,0,0-1.43-.94h-.13l-.09.08h-.88c-.14,0-1.27.26-1.43,1a65.53,65.53,0,0,0-.09,7v.12c0,.61-.08,1.25-1.28,1.86l-.06,0h-.07A5.44,5.44,0,0,1,109.32,130.15Z"/><path class="cls-2" d="M121.74,84.48c6,0,10.9,3.74,10.9,11.49,0,4.46-1,7.32-4.24,12.08a7.48,7.48,0,0,0-1.34,4.92c.06.9.16,2,.34,3.28a12.52,12.52,0,0,1-2.48,10,8.52,8.52,0,0,1-5.56,3.28,5.27,5.27,0,0,1-1.94,0c-1.1-.56-1-1.07-1-1.51a63.18,63.18,0,0,0-.1-7.15,2.18,2.18,0,0,0-1.92-1.35h-.31l-.1.08h-.69c-.47.08-1.7.4-1.92,1.35a65.61,65.61,0,0,0-.1,7.15c0,.45.1.95-1,1.51a5.22,5.22,0,0,1-1.93,0,8.51,8.51,0,0,1-5.57-3.28,12.64,12.64,0,0,1-2.47-10,27.65,27.65,0,0,0,.34-3.28,7.51,7.51,0,0,0-1.35-4.92c-3.33-4.76-4.23-7.62-4.23-12.08,0-7.79,4.89-11.49,10.9-11.49a10,10,0,0,1,6.56,2.69,2,2,0,0,0,.81.45,2.33,2.33,0,0,0,.37,0,1.84,1.84,0,0,0,.66-.12,2,2,0,0,0,.8-.45,10,10,0,0,1,6.57-2.69m0-1h0a11,11,0,0,0-7.22,3,.89.89,0,0,1-.38.21h0l0,0a.73.73,0,0,1-.3.06l-.14,0a1,1,0,0,1-.36-.2,10.94,10.94,0,0,0-7.22-3c-7.25,0-11.92,4.9-11.92,12.49,0,4.8,1.07,7.88,4.42,12.65A6.57,6.57,0,0,1,99.65,113v.08a21.12,21.12,0,0,1-.27,2.65l-.07.5A13.66,13.66,0,0,0,102,126.89a9.42,9.42,0,0,0,6.21,3.66,5.69,5.69,0,0,0,1.12.1,6.38,6.38,0,0,0,1.15-.1l.14,0,.13-.07a2.33,2.33,0,0,0,1.55-2.31v-.09a62.4,62.4,0,0,1,.09-7,1.6,1.6,0,0,1,1-.52h1l.1-.08a1.35,1.35,0,0,1,.88.55,61.28,61.28,0,0,1,.09,6.91v.12a2.32,2.32,0,0,0,1.55,2.32l.13.07.14,0a6.4,6.4,0,0,0,1.15.11,6.31,6.31,0,0,0,1.15-.11,9.4,9.4,0,0,0,6.18-3.66,13.48,13.48,0,0,0,2.66-10.72c-.14-1-.24-2-.33-3.18a6.57,6.57,0,0,1,1.17-4.28c3.34-4.85,4.42-7.92,4.42-12.65,0-7.59-4.67-12.49-11.9-12.49Z"/><g class="cls-3"><path class="cls-4" d="M105.56,126.56c-1.64-1.53-5.11-6.57-3.58-11.72a6.38,6.38,0,0,1,6-4.82c-.51,0-2.71-.3-7.83-7.08-4.15-5.4-3.1-11.85-2.09-15.24a11.73,11.73,0,0,0-2.79,8.2c0,4.63,1,7.54,4.6,12.61a5.58,5.58,0,0,1,1,3.56,28.33,28.33,0,0,1-.41,4.05,12.71,12.71,0,0,0,2.48,10,8.63,8.63,0,0,0,5.56,3.29,5.27,5.27,0,0,0,1.94,0c1.1-.55,1-1.05,1-1.51v-.45A5.21,5.21,0,0,1,105.56,126.56Z"/></g><g class="cls-3"><path class="cls-4" d="M132.75,95.9c0-7.73-4.92-11.48-10.9-11.48A10,10,0,0,0,115,87.48l-1,.27-1-.27a10.06,10.06,0,0,0-6.84-3.06c-6,0-10.92,3.75-10.92,11.48,0,4.63,1,7.54,4.6,12.61a5.58,5.58,0,0,1,1,3.56,28.33,28.33,0,0,1-.41,4.05,12.71,12.71,0,0,0,2.48,10,8.63,8.63,0,0,0,5.56,3.29,5.27,5.27,0,0,0,1.94,0c1.1-.55,1-1.05,1-1.51a63,63,0,0,1,.1-7.14c.28-1.2,2.1-1.38,2.1-1.38h.66a3.64,3.64,0,0,1,1.52.56A2.84,2.84,0,0,0,114,119h-.65s-1.78.18-2,1.33a59.16,59.16,0,0,0-.1,6.92c0,.45.1.94-1,1.46a4.84,4.84,0,0,1-1.82,0,8.3,8.3,0,0,1-5.4-3.29,12.28,12.28,0,0,1-2.39-9.65c.24-1.64.34-3,.39-4a5.38,5.38,0,0,0-1-3.45c-3.53-4.92-4.46-7.73-4.46-12.22,0-7.5,4.72-11.08,10.57-11.08a9.83,9.83,0,0,1,6.66,2.9l.93.27,1-.27a9.82,9.82,0,0,1,6.56-2.9c5.84,0,10.57,3.58,10.57,11.08,0,4.49-.94,7.31-4.45,12.22a5.38,5.38,0,0,0-1,3.45,37.46,37.46,0,0,0,.39,4,12.22,12.22,0,0,1-2.34,9.65,8.3,8.3,0,0,1-5.4,3.29,5.34,5.34,0,0,1-1.87,0,2.5,2.5,0,0,1-.56-.35c0,.31.26.66,1,1a5.27,5.27,0,0,0,1.94,0,8.62,8.62,0,0,0,5.56-3.28,12.65,12.65,0,0,0,2.48-10c-.2-1.34-.34-2.69-.41-4.05a5.6,5.6,0,0,1,1-3.56C131.78,103.44,132.75,100.53,132.75,95.9Z"/></g><path class="cls-5" d="M128.81,89a7.42,7.42,0,0,0-.9-1c-.2,0-.76.41-4,2a7.72,7.72,0,0,1,1.82,2.42,11.92,11.92,0,0,1,.61,5.13,15,15,0,0,0,4.3-.85C130.65,92.62,129.75,90.08,128.81,89Z"/><path class="cls-5" d="M125.86,99.91a13.14,13.14,0,0,1-1.77,3.77c-1.07,1.64-1.65,2.48-2.07,3l-.43.45,5.76-1.37a14.6,14.6,0,0,0,3-6.57A15.34,15.34,0,0,1,125.86,99.91Z"/><path class="cls-5" d="M121.79,121a7,7,0,0,1-.41.92,18.67,18.67,0,0,1-2.09,3.12s-.52,1.56,1.3.82a10,10,0,0,0,4.59-4.66l-.57.13A5,5,0,0,1,121.79,121Z"/><path class="cls-5" d="M125.89,118.37a7.55,7.55,0,0,0-.51-4.4,7,7,0,0,0-.59-.87l-3.48.86a12.35,12.35,0,0,1,.82,5.58h.31A5.14,5.14,0,0,0,125.89,118.37Z"/><polygon class="cls-5" points="107.46 83.55 104.52 87.34 107.54 91.08 103.75 88.14 100.01 91.16 102.95 87.37 99.93 83.63 103.72 86.56 107.46 83.55"/><polygon class="cls-5" points="103.77 90.22 103.44 87.65 100.86 87.39 103.42 87.06 103.7 84.48 104.03 87.04 106.61 87.32 104.03 87.65 103.77 90.22"/><path class="cls-6" d="M121,94a6.5,6.5,0,0,1,2.4,1.15,5.79,5.79,0,0,0-2.19-1.89C121.2,93.34,121,94,121,94Z"/><path class="cls-6" d="M106.2,94.1a6.62,6.62,0,0,0-2.38,1.13A6,6,0,0,1,106,93.34,6.53,6.53,0,0,0,106.2,94.1Z"/><path class="cls-7" d="M109.27,98.82A1.28,1.28,0,1,1,108,97.53a1.29,1.29,0,0,1,1.32,1.25Z"/><path class="cls-1" d="M107.81,98.23a.33.33,0,0,1-.66,0,.32.32,0,0,1,.33-.32h0A.32.32,0,0,1,107.81,98.23Z"/><path class="cls-1" d="M108.25,98.43a.18.18,0,0,1-.18.18h0a.18.18,0,0,1-.18-.18h0a.19.19,0,0,1,.16-.2h0a.2.2,0,0,1,.2.2Z"/><path class="cls-7" d="M120.75,98.82a1.25,1.25,0,1,1-1.24-1.28,1.27,1.27,0,0,1,1.24,1.28Z"/><path class="cls-1" d="M119.29,98.23a.33.33,0,1,1-.65,0,.32.32,0,0,1,.33-.32h0A.32.32,0,0,1,119.29,98.23Z"/><path class="cls-1" d="M119.74,98.43a.18.18,0,0,1-.18.18h0a.18.18,0,0,1-.2-.16v0a.2.2,0,0,1,.2-.2h0a.18.18,0,0,1,.18.18Z"/><path class="cls-1" d="M101.59,112.76a.83.83,0,0,1-.58-.25l-.59-.2c-1.85-.72-6.19-2.39-7-9.2a.82.82,0,1,1,1.64-.18c.66,5.82,4.2,7.2,5.91,7.86a2.87,2.87,0,0,1,1.22.67.83.83,0,0,1-.1,1.15A.87.87,0,0,1,101.59,112.76Z"/><path class="cls-1" d="M133.6,114.12c-4.57,0-8.79-3.91-9-4.09a.82.82,0,0,1,1.11-1.2s4.12,3.86,8.21,3.65a.82.82,0,1,1,0,1.64Z"/><path class="cls-1" d="M118.7,104.11c0,1.07-2.1,3.12-4.67,3.12s-4.68-2-4.68-3.12c0-.54,2.34.38,4.68.38S118.7,103.55,118.7,104.11Z"/><path class="cls-8" d="M114,107.83c-2.88,0-5.29-2.29-5.29-3.74v-.29l.26-.3c.4-.31,1-.21,2,0a12.47,12.47,0,0,0,6,0c1.1-.21,1.64-.31,2,0l.21.2v.39C119.31,105.54,116.9,107.83,114,107.83Zm-3.86-3.28a4.69,4.69,0,0,0,7.71,0l-.67.13a13.45,13.45,0,0,1-6.37,0Z"/></g><path class="cls-1" d="M48.58,129.48a16,16,0,0,1-2.84-.26,19.71,19.71,0,0,1-12.89-7.69A29.58,29.58,0,0,1,27,98.28c.36-2.36.63-4.8.85-7.65a18.51,18.51,0,0,0-3.2-11.79C17.07,68,14.75,61.4,14.75,50.53c0-19.64,13.11-26.63,25.38-26.63a22.94,22.94,0,0,1,15.21,6.26,4.88,4.88,0,0,0,2,1.09,5,5,0,0,0,1.33.18A4.94,4.94,0,0,0,60,31.25a4.89,4.89,0,0,0,2-1.1A22.87,22.87,0,0,1,77.05,23.9c12.29,0,25.4,7,25.4,26.63,0,10.83-2.32,17.44-9.94,28.31a18.5,18.5,0,0,0-3.19,11.79c.18,2.58.45,5.08.85,7.66a29.66,29.66,0,0,1-5.8,23.23,19.7,19.7,0,0,1-12.94,7.7,15.16,15.16,0,0,1-2.79.26q-.67,0-1.35-.06H67.2l-.08,0c-2.05-1-2.2-1.88-2.2-3V124.8c.13-5.67.25-13.45-.25-15.62-.54-2.33-3.24-3.15-4.81-3.43H59.5a2.82,2.82,0,0,0-.41,0h-.9a3.47,3.47,0,0,0-.44,0,2.68,2.68,0,0,0-.4,0c-1.52.27-4.23,1.09-4.76,3.42-.5,2.17-.38,9.95-.25,15.61v1.56c0,1.15-.12,2-2.19,3l-.09,0H50C49.51,129.46,49,129.48,48.58,129.48Z"/><path class="cls-2" d="M77.07,24.4c12,0,24.88,6.86,24.88,26.13,0,10.73-2.32,17.28-9.85,28a18.87,18.87,0,0,0-3.28,12.11c.18,2.59.46,5.1.85,7.69A29.13,29.13,0,0,1,84,121.21a19.36,19.36,0,0,1-12.62,7.52,14.64,14.64,0,0,1-2.72.25c-.43,0-.87,0-1.3-.06-1.92-.93-1.92-1.67-1.92-2.57V124.8c.14-6.17.24-13.55-.27-15.74-.62-2.72-3.84-3.56-5.2-3.8a5.07,5.07,0,0,0-.9,0h-.86l-.44,0-.44,0c-1.36.24-4.58,1.08-5.2,3.8-.51,2.19-.41,9.57-.27,15.74v1.55c0,.93,0,1.6-1.92,2.57-.44,0-.89.06-1.34.06a14.78,14.78,0,0,1-2.74-.25,19.35,19.35,0,0,1-12.59-7.5,29.11,29.11,0,0,1-5.73-22.87c.4-2.57.66-5.1.86-7.69a18.93,18.93,0,0,0-3.29-12.11c-7.55-10.74-9.84-17.3-9.84-28,0-19.27,12.85-26.13,24.88-26.13A22.39,22.39,0,0,1,55,30.52a5.37,5.37,0,0,0,2.2,1.22,5.67,5.67,0,0,0,2.91,0,5.37,5.37,0,0,0,2.2-1.22A22.46,22.46,0,0,1,77.07,24.4m0-1h0a23.43,23.43,0,0,0-15.43,6.39,4.29,4.29,0,0,1-1.77,1,4.51,4.51,0,0,1-2.38,0,4.27,4.27,0,0,1-1.79-1A23.41,23.41,0,0,0,40.15,23.4c-12.54,0-25.9,7.13-25.9,27.13,0,11,2.34,17.67,10,28.6a18,18,0,0,1,3.1,11.46c-.22,2.84-.49,5.26-.85,7.62a30.08,30.08,0,0,0,5.93,23.63,20.18,20.18,0,0,0,13.23,7.87,15.31,15.31,0,0,0,2.89.27c.48,0,1,0,1.43-.06l.19,0,.17-.08c2.33-1.16,2.5-2.22,2.47-3.49V124.8c-.08-3.61-.31-13.14.24-15.51.48-2.09,3.17-2.82,4.36-3h2.38c1.19.22,3.88,1,4.36,3,.55,2.37.32,11.9.24,15.49v1.57c0,1.24.18,2.35,2.48,3.47l.16.08.19,0c.46,0,.93.06,1.39.06a15.65,15.65,0,0,0,2.9-.27,20.18,20.18,0,0,0,13.24-7.9,30.21,30.21,0,0,0,5.88-23.62c-.39-2.55-.67-5-.84-7.59a18,18,0,0,1,3.1-11.48c7.68-11,10-17.64,10-28.59,0-20-13.37-27.13-25.88-27.13Z"/><g class="cls-3"><path class="cls-4" d="M38.91,122.77c-4-3.6-12-15.53-8.42-27.64C33.77,84.07,43,84,44.67,83.64c-1.23.1-6.43-.7-18.49-16.67C16.33,54,18.87,39,21.25,31.05c-4.08,4.44-6.56,10.83-6.56,19.3,0,10.91,2.28,17.79,10.85,29.73A13.16,13.16,0,0,1,28,88.55c-.13,2.31-.36,5.48-1,9.6a29.83,29.83,0,0,0,5.89,23.47,20.2,20.2,0,0,0,13.13,7.83,12.28,12.28,0,0,0,4.56.13c2.6-1.3,2.38-2.48,2.38-3.56v-1.23C49.33,127.17,43,126.44,38.91,122.77Z"/></g><g class="cls-3"><path class="cls-4" d="M103.08,50.43c0-18.25-11.49-26.95-25.7-26.95A23.74,23.74,0,0,0,61.2,30.55l-2.3.64-2.3-.64a23.79,23.79,0,0,0-16.2-7.07c-14.19,0-25.7,8.7-25.7,27,0,10.91,2.29,17.79,10.85,29.73A13.18,13.18,0,0,1,28,88.55c-.13,2.31-.36,5.48-1,9.6a29.83,29.83,0,0,0,5.89,23.47,20.2,20.2,0,0,0,13.13,7.83,12.28,12.28,0,0,0,4.56.13c2.6-1.3,2.38-2.48,2.38-3.56s-.44-14,.22-16.86,4.92-3.28,4.92-3.28h1.51a8.38,8.38,0,0,1,3.61,1.31,6.77,6.77,0,0,0-4.4-2.18H57.37s-4.18.41-4.8,3.14-.22,15.29-.22,16.41.22,2.2-2.31,3.46a11.74,11.74,0,0,1-4.42-.13,19.61,19.61,0,0,1-12.7-7.6,29,29,0,0,1-5.71-22.75q.7-4.64.94-9.32A12.72,12.72,0,0,0,25.78,80c-8.3-11.59-10.52-18.25-10.52-28.84,0-17.72,11.16-26.16,25-26.16A23.12,23.12,0,0,1,55.9,31.9l2.21.61,2.25-.61A23.06,23.06,0,0,1,76.07,25C89.84,25,101,33.46,101,51.18,101,61.77,98.8,68.43,90.48,80a12.71,12.71,0,0,0-2.35,8.2c.11,2.25.33,5.32.92,9.32a29,29,0,0,1-5.66,22.78,19.68,19.68,0,0,1-12.72,7.55,11.59,11.59,0,0,1-4.43.13,7.52,7.52,0,0,1-1.32-.83c.13.75.63,1.64,2.33,2.41a12.32,12.32,0,0,0,4.57-.13,20.16,20.16,0,0,0,13.12-7.83,29.83,29.83,0,0,0,5.85-23.47c-.61-4.12-.82-7.29-1-9.6a13.1,13.1,0,0,1,2.42-8.39C100.8,68.22,103.08,61.34,103.08,50.43Z"/></g><path class="cls-5" d="M93.79,34.11a17.12,17.12,0,0,0-2.13-2.21c-.48-.12-1.78,1-9.54,4.64a18,18,0,0,1,4.3,5.73,27.48,27.48,0,0,1,1.43,12,35.64,35.64,0,0,0,10.17-2C98.14,42.6,95.87,36.69,93.79,34.11Z"/><path class="cls-5" d="M86.82,59.8a30.39,30.39,0,0,1-4.17,8.89c-2.51,3.71-4,5.88-4.93,7.09-.18.25-1,1.12-1,1.12l13.61-3.28a34.8,34.8,0,0,0,7.1-15.4A35.7,35.7,0,0,1,86.82,59.8Z"/><path class="cls-5" d="M77.23,109.67a11.5,11.5,0,0,1-1,2.18,44.33,44.33,0,0,1-4.92,7.36s-1.2,3.67,3.07,1.93a23.55,23.55,0,0,0,10.85-11l-1.33.31A12,12,0,0,1,77.23,109.67Z"/><path class="cls-5" d="M86.91,103.44a17.78,17.78,0,0,0-1.23-10.38A14.43,14.43,0,0,0,84.3,91l-8.2,2A29.73,29.73,0,0,1,78,106.14l.74.1A12.1,12.1,0,0,0,86.91,103.44Z"/><polygon class="cls-5" points="43.41 21.27 36.48 30.23 43.6 39.04 34.64 32.11 25.83 39.25 32.76 30.27 25.64 21.46 34.59 28.39 43.41 21.27"/><polygon class="cls-5" points="34.69 37.04 33.92 30.96 27.83 30.32 33.91 29.55 34.55 23.46 35.32 29.54 41.41 30.18 35.33 30.95 34.69 37.04"/><path class="cls-6" d="M75.38,45.87s1.21,0,5.64,2.69a14.05,14.05,0,0,0-5.17-4.45C75.84,44.37,75.38,45.87,75.38,45.87Z"/><path class="cls-6" d="M40.44,46.18s-1.23,0-5.65,2.67A14.5,14.5,0,0,1,40,44.4C40,44.67,40.44,46.18,40.44,46.18Z"/><path class="cls-7" d="M47.69,57.3a3,3,0,1,1-2.95-3,3,3,0,0,1,2.95,3Z"/><path class="cls-1" d="M44.21,55.94a.77.77,0,1,1-.77-.77.76.76,0,0,1,.77.77Z"/><path class="cls-1" d="M45.26,56.38a.45.45,0,0,1-.44.45.45.45,0,1,1,.44-.45Z"/><path class="cls-7" d="M74.77,57.3a3,3,0,1,1-2.94-3,3,3,0,0,1,2.94,3Z"/><path class="cls-1" d="M71.32,55.94a.77.77,0,1,1-1.54,0,.77.77,0,0,1,1.54,0Z"/><path class="cls-1" d="M72.39,56.38a.46.46,0,0,1-.46.45.45.45,0,0,1,0-.89A.46.46,0,0,1,72.39,56.38Z"/><path class="cls-8" d="M58.79,75.64a10.23,10.23,0,0,1-8.21-3.5l1.31-1a9.13,9.13,0,0,0,8.21,2.76,9.84,9.84,0,0,0,7.4-4.38l1.44.79a11.48,11.48,0,0,1-8.64,5.22C59.79,75.6,59.29,75.63,58.79,75.64Z"/><path class="cls-8" d="M68.14,71.88c0-.59-.41-2.35-1.41-2.6l.39-1.64c2.35.58,2.64,3.91,2.66,4.06Z"/><path class="cls-1" d="M21.43,103.44a1.65,1.65,0,0,1-1.64-1.33c-2.08-10.72,4.1-23,6.09-24A1.64,1.64,0,0,1,27.52,81c-1.08,1.18-6.33,11.24-4.53,20.51a1.64,1.64,0,0,1-1.29,1.92Zm6-22.31"/><path class="cls-1" d="M94.28,102.71h0a1.64,1.64,0,0,1-1.64-1.64V100a31.75,31.75,0,0,0-.7-11.49,35.16,35.16,0,0,0-6.13-10.8,1.65,1.65,0,0,1,0-2.32,1.63,1.63,0,0,1,2.32,0l.1.1a37.65,37.65,0,0,1,6.79,12,34.77,34.77,0,0,1,.85,12.69v1A1.63,1.63,0,0,1,94.28,102.71Z"/></svg>