<svg id="Слой_1" data-name="Слой 1" xmlns="http://www.w3.org/2000/svg" viewBox="0 0 151 151"><defs><style>.cls-1{fill:#fff;}.cls-2{opacity:0.1;}.cls-3{fill:#139ab0;}.cls-4{fill:#e8f5f8;}.cls-5{fill:#b04687;}.cls-6{fill:#d7d9d8;}.cls-7{fill:#13181b;}.cls-8{fill:#848887;}.cls-9{fill:#5a595d;}.cls-10{fill:#a4a4a6;}.cls-11{fill:#eb5032;}.cls-12{opacity:0.6;}</style></defs><title>Услуги</title><path class="cls-1" d="M71.24,105a3.22,3.22,0,0,0-.61.06c-1.1.19-4,.91-4.52,3.16-.64,2.8-.21,15.71-.21,16.78s.21,2.26-2.37,3.55c-.77.39-3.13.07-4.55-.13a20,20,0,0,1-13.07-7.83c-4.09-5.29-7.37-12.91-5.83-23.38.45-3,.69-5.57.84-7.6a17.84,17.84,0,0,0-3.17-11.53C29.93,67,27.81,60.26,27.81,49.76c0-18.14,11.5-26.84,25.6-26.84a23.2,23.2,0,0,1,15.31,6.31,4.78,4.78,0,0,0,1.87,1h0a4.63,4.63,0,0,0,2.45,0h0a4.78,4.78,0,0,0,1.87-1c4.46-3.95,9.8-6.31,15.31-6.31,14.14,0,25.6,8.67,25.6,26.84,0,10.5-2.12,17.23-9.94,28.39a17.84,17.84,0,0,0-3.17,11.53c.15,2,.38,4.56.84,7.6,0,0,3.55,23.67,9,27.17s-14.24,7.39-20.94,4.17-11.3-15.14-12.3-20S74,105,73,105C72.51,105,71.49,105,71.24,105Z"/><g class="cls-2"><path class="cls-3" d="M52,121.07c-4-3.58-12-15.47-8.38-27.53,3.28-11,12.48-11,14.11-11.35-1.21.09-6.43-.71-18.43-16.57-9.73-12.94-7.25-27.91-4.85-35.81C30.4,34.24,27.91,40.62,27.91,49c0,10.87,2.27,17.71,10.81,29.59A13.14,13.14,0,0,1,41.14,87a91.75,91.75,0,0,1-1,9.56C38.64,107,41.92,114.62,46,119.93a20.17,20.17,0,0,0,13.07,7.79c1.42.19,3.78.51,4.55.13,2.58-1.29,2.37-2.48,2.37-3.55v-1.22C62.31,125.44,56.1,124.73,52,121.07Z"/></g><g class="cls-2"><path class="cls-3" d="M102.69,88.36A13.14,13.14,0,0,1,105.11,80c8.54-11.89,10.81-18.73,10.81-29.6,0-18.18-11.46-26.84-25.61-26.84-5.85,0-11.5,2.65-16.12,7.05l-2.29.63-2.27-.62c-4.62-4.4-10.27-7-16.12-7-14.14-.06-25.6,8.6-25.6,26.78,0,10.87,2.27,17.71,10.81,29.6a13.14,13.14,0,0,1,2.42,8.36,91.75,91.75,0,0,1-1,9.56C38.6,108.39,41.88,116,46,121.29A20.14,20.14,0,0,0,59,129.09c1.42.19,3.78.51,4.55.12,2.58-1.29,2.37-2.47,2.37-3.54s-.43-14,.21-16.78,5-3.23,5-3.23h1.51A8.41,8.41,0,0,1,76.31,107c-1.24-1.86-4.38-2.18-4.38-2.18H70.42s-4.17.42-4.8,3.13-.21,15.24-.21,16.28.21,2.19-2.29,3.44c-.75.38-3,.07-4.41-.12A19.48,19.48,0,0,1,46,120c-4-5.13-7.15-12.52-5.65-22.68.59-4,.8-7,.92-9.27A12.76,12.76,0,0,0,39,79.9C30.66,68.35,28.46,61.72,28.46,51.17c0-17.63,11.12-26,24.84-26,5.67,0,11.16,2.58,15.64,6.84l2.22.62L73.38,32c4.47-4.26,10-6.84,15.64-6.84,13.71,0,24.83,8.41,24.83,26,0,10.55-2.2,17.18-10.48,28.73A12.63,12.63,0,0,0,101,88"/></g><path class="cls-4" d="M99.72,59.79a30.38,30.38,0,0,1-4.15,8.83c-2.51,3.68-4,5.83-4.88,7.06-.17.24-1,1.1-1,1.1l13.56-3.16a34.52,34.52,0,0,0,7.06-15.37A35.81,35.81,0,0,1,99.72,59.79Z"/><path class="cls-4" d="M101.56,108.75a13,13,0,0,0,.75,2.26,45.05,45.05,0,0,0,4.1,7.81s.8,3.76-3.25,1.59c-3.3-1.77-7.72-6.66-9.55-12.08.39.16.82.31,1.28.47A12.1,12.1,0,0,0,101.56,108.75Z"/><path class="cls-4" d="M92.13,105.34c-2.17-4.21-2.59-7-2.4-10.12a14.76,14.76,0,0,1,.58-2.38l8.38-.9a29.75,29.75,0,0,0,2.72,13c-.22.12-.43.23-.67.34C97.82,106.68,94.31,106,92.13,105.34Z"/><path class="cls-5" d="M98.92,130.37a19,19,0,0,1-7.53-1.25c-7.08-3.38-11.68-16.11-12.54-20.36-.75-3.77-3.7-3.47-5.28-3.31H70.72c-.85.15-3.66.79-4.12,2.79-.53,2.38-.29,11.91-.23,15.48v1.54c0,1.08,0,2.43-2.65,3.77-.84.41-2.75.2-4.8-.08a20.46,20.46,0,0,1-13.44-8c-5.17-6.78-7.17-14.77-5.89-23.74.38-2.55.65-5,.83-7.57a17.38,17.38,0,0,0-3.11-11.2c-7.66-11-10-17.66-10-28.68,0-20.14,13.48-27.34,26.1-27.34,5.48,0,10.9,2.2,15.64,6.44a4.3,4.3,0,0,0,1.67.93,4.07,4.07,0,0,0,2.19,0,4.3,4.3,0,0,0,1.67-.93,23.42,23.42,0,0,1,15.64-6.44c12.62,0,26.09,7.2,26.09,27.34,0,11-2.35,17.72-10,28.68a17.45,17.45,0,0,0-3.1,11.18c.18,2.55.45,5,.83,7.57,0,.23,3.59,23.48,8.81,26.81,1.49,1,1.26,1.93,1,2.42C112.64,128.62,105.31,130.37,98.92,130.37Zm-24.17-26a4.73,4.73,0,0,1,5.09,4.25c.82,4.12,5.2,16.43,12,19.64,5.63,2.67,19.76.23,21.14-2.25.07-.14.28-.51-.64-1.09-5.61-3.58-9.12-26.54-9.27-27.51-.38-2.58-.65-5.08-.84-7.65a18.43,18.43,0,0,1,3.26-11.85c7.53-10.81,9.82-17.37,9.82-28.15,0-19.42-13-26.34-25.09-26.34-5.23,0-10.41,2.14-15,6.19a5.26,5.26,0,0,1-2.07,1.14,5,5,0,0,1-2.72,0,5.36,5.36,0,0,1-2.05-1.13c-4.56-4-9.74-6.19-15-6.19-12.07,0-25.07,6.91-25.07,26.33,0,10.77,2.3,17.34,9.85,28.1a18.37,18.37,0,0,1,3.25,11.85c-.18,2.57-.45,5.07-.83,7.65-1.29,8.68.64,16.42,5.72,23A19.46,19.46,0,0,0,59.05,128c1.2.16,3.62.49,4.26.17,2.11-1.06,2.1-1.89,2.09-2.86v-1.53c-.08-3.6-.3-13.18.25-15.6s3.66-3.33,4.9-3.53a4.93,4.93,0,0,1,.66-.07h2.23c.2,0,.8-.17,1.31-.17Z"/><path class="cls-6" d="M85.7,82.83l-.29,0A1.47,1.47,0,0,1,85.7,82.83Z"/><path class="cls-7" d="M57,45.11s-1.23-.06-5.63,2.67a14.17,14.17,0,0,1,5.14-4.43C56.56,43.62,57,45.11,57,45.11Z"/><path class="cls-7" d="M94.11,45.11s1.22-.06,5.62,2.67a14.17,14.17,0,0,0-5.14-4.43C94.57,43.62,94.11,45.11,94.11,45.11Z"/><polygon class="cls-4" points="38.95 20.62 45.85 29.55 38.75 38.33 47.69 31.43 56.46 38.53 49.56 29.59 56.66 20.82 47.73 27.72 38.95 20.62"/><polygon class="cls-4" points="47.63 36.33 48.41 30.29 54.46 29.65 48.42 28.87 47.78 22.82 47.01 28.86 40.95 29.5 46.99 30.27 47.63 36.33"/><path class="cls-1" d="M86,53.46a.83.83,0,1,0,.83-.83.83.83,0,0,0-.83.83Z"/><path class="cls-1" d="M84.81,53.94a.49.49,0,0,0,.48.48.48.48,0,0,0,.48-.46v0a.47.47,0,0,0-.48-.48A.49.49,0,0,0,84.81,53.94Z"/><rect class="cls-8" x="67.22" y="78.8" width="17.75" height="17.75" rx="4.36"/><path class="cls-9" d="M81.62,94.55h-9a4.36,4.36,0,0,1-4.36-4.36h0v-9a4,4,0,0,1,.09-.85,4.28,4.28,0,0,0-1.09,2.85v9a4.36,4.36,0,0,0,4.36,4.36h9A4.36,4.36,0,0,0,84.89,93,4.36,4.36,0,0,1,81.62,94.55Z"/><path class="cls-10" d="M101.31,92.86l-.33-.14c-19.4-8.21-39.07-8.22-58.48,0l-.33.14-1-.08L41.39,90h0v-.16h.3a76.5,76.5,0,0,1,60.14.06h.39l.2,3Z"/><path class="cls-4" d="M107.05,34.48a16.28,16.28,0,0,0-2.13-2.26c-.47-.13-1.77,1-9.5,4.61a17.92,17.92,0,0,1,4.29,5.7,27.33,27.33,0,0,1,1.42,12,35,35,0,0,0,10.13-2C111.38,42.93,109.13,37.05,107.05,34.48Z"/><path class="cls-1" d="M38.63,102a1.53,1.53,0,0,1-.73-.19,1.5,1.5,0,0,1-.58-2l.73-1.32a12.68,12.68,0,0,1-6.08-4A10.7,10.7,0,0,1,33,79.36a10.43,10.43,0,0,1,1.2-.9,12.91,12.91,0,0,1,9.07-2,1.51,1.51,0,1,1-.42,3,9.89,9.89,0,0,0-7,1.53,7.7,7.7,0,0,0-2.21,10.67,7.36,7.36,0,0,0,.63.84,10,10,0,0,0,6.26,3.41,1.5,1.5,0,0,1,1.27,1.7,1.34,1.34,0,0,1-.17.51L40,101.19A1.49,1.49,0,0,1,38.63,102Z"/><path class="cls-1" d="M109.79,85.93h-1.33c-7.28-.52-7.57-.54-11.22-2.63a1.53,1.53,0,0,1,1.48-2.68c3.07,1.74,3.07,1.74,10,2.24a16.26,16.26,0,0,0,10.59-3.14l1.42-3.85a1.5,1.5,0,0,1,2.92.69,1.63,1.63,0,0,1-.11.31L122,81.12a1.38,1.38,0,0,1-.41.6A19,19,0,0,1,109.79,85.93Z"/><path class="cls-11" d="M82.31,71.23s-.21-2.14-1.38-2.43l.24-1c1.89.47,2.13,3.2,2.14,3.32Z"/><path class="cls-9" d="M101.31,91.86l-.33-.14c-19.4-8.21-39.07-8.22-58.48,0l-.33.14-1-.07-.08,1,1,.08.33-.14c19.41-8.17,39.08-8.16,58.48,0l.33.14,1.1-.08-.06-1Z"/><rect class="cls-10" x="71.25" y="81.95" width="10.39" height="6.02" rx="1.26"/><path class="cls-9" d="M73.52,87a1.27,1.27,0,0,1-1.27-1.27V82.21a.72.72,0,0,1,0-.21,1.24,1.24,0,0,0-1,1.21V86.7A1.27,1.27,0,0,0,72.52,88h7.86a1.25,1.25,0,0,0,1.22-1,.81.81,0,0,1-.22,0Z"/><path class="cls-11" d="M75.64,73.18A11,11,0,0,1,70.51,72l.48-.87a10.1,10.1,0,0,0,4.65,1c3.62,0,6-1.42,6-2.76h1C82.69,71.53,79.59,73.18,75.64,73.18Z"/><path class="cls-7" d="M59,65.28l4.91.24A6.77,6.77,0,0,0,71,59.09v-2a5.6,5.6,0,0,0-2.16-3.47,9.42,9.42,0,0,0-4-1L49.34,52a1,1,0,0,0-1.1.88.49.49,0,0,0,0,.12v.42A11.31,11.31,0,0,0,59,65.28Z"/><path class="cls-7" d="M91.23,65.28l-4.92.24a6.77,6.77,0,0,1-7.09-6.43v-2a5.66,5.66,0,0,1,2.17-3.47,9.42,9.42,0,0,1,4-1l15.48-.6a1,1,0,0,1,1.1.88.49.49,0,0,1,0,.12v.42A11.3,11.3,0,0,1,91.25,65.28Z"/><path class="cls-7" d="M70.31,60,68.9,60V58.59l.66.65L69,58.53c3.23-2.75,8.66-4.38,13.36,0L80.94,60C76.12,55.49,71.2,59.24,70.31,60Zm-.67-.75.72.7Z"/><polygon class="cls-1" points="54.79 58.15 53.77 55.29 56.32 53.65 53.46 54.66 51.82 52.11 52.83 54.97 50.28 56.61 53.14 55.6 54.79 58.15"/><polygon class="cls-1" points="80.49 87.99 81.75 83.89 86.02 84.17 81.93 82.91 82.2 78.63 80.94 82.73 76.66 82.46 80.76 83.71 80.49 87.99"/><g class="cls-12"><rect class="cls-1" x="86.62" y="57.74" width="17.58" height="2.09" transform="translate(-0.96 115.99) rotate(-62.33)"/></g><g class="cls-12"><rect class="cls-1" x="83.93" y="58.16" width="17.58" height="0.52" transform="translate(-2.08 113.4) rotate(-62.33)"/></g><g class="cls-12"><rect class="cls-1" x="54.62" y="57.74" width="17.58" height="2.09" transform="translate(-18.1 87.65) rotate(-62.33)"/></g><g class="cls-12"><rect class="cls-1" x="51.94" y="58.16" width="17.58" height="0.52" transform="translate(-19.21 85.07) rotate(-62.33)"/></g></svg>