<svg id="Слой_1" data-name="Слой 1" xmlns="http://www.w3.org/2000/svg" xmlns:xlink="http://www.w3.org/1999/xlink" viewBox="0 0 150 150"><defs><style>.cls-1{fill:none;}.cls-2{fill:#fff;}.cls-3{opacity:0.1;}.cls-4{fill:#139ab0;}.cls-5{fill:#e8f5f8;}.cls-6{fill:#d7d9d8;}.cls-7{fill:#13181b;}.cls-8{fill:#161616;}.cls-9{fill:#eb5032;}.cls-10{fill:#1d1d1b;}.cls-11{fill:#ec6d75;}.cls-12{fill:#c95949;}.cls-13{fill:#ab4f55;}.cls-14{clip-path:url(#clip-path);}.cls-15{fill:#dde3e8;}.cls-16{fill:#dee4e9;}.cls-17{fill:#e0e5ea;}.cls-18{fill:#e1e6eb;}.cls-19{fill:#e2e7ec;}.cls-20{fill:#e3e8ec;}.cls-21{fill:#e4e9ed;}.cls-22{fill:#e5eaee;}.cls-23{fill:#e6ebef;}.cls-24{fill:#e8ecf0;}.cls-25{fill:#e9edf1;}.cls-26{fill:#eaeef2;}.cls-27{fill:#ebeff3;}.cls-28{fill:#ecf0f3;}.cls-29{fill:#edf1f4;}.cls-30{fill:#eef2f5;}.cls-31{fill:#eff3f6;}.cls-32{fill:#f0f4f7;}.cls-33{fill:#f1f5f7;}.cls-34{fill:#f2f6f8;}.cls-35{fill:#f2f7f9;}.cls-36{fill:#f3f8fa;}.cls-37{fill:#f4f8fa;}.cls-38{fill:#f5f9fb;}.cls-39{fill:#f6fafb;}.cls-40{fill:#f7fbfc;}.cls-41{fill:#f7fbfd;}.cls-42{fill:#f8fcfd;}.cls-43{fill:#f9fdfe;}.cls-44{fill:#e6eaed;}.cls-45{fill:#f6fafc;}.cls-46{fill:#fafeff;}.cls-47{fill:#e8edf0;}.cls-48{clip-path:url(#clip-path-2);}.cls-49{fill:#dce2e7;}.cls-50{fill:#ebeff2;}.cls-51{fill:#e4e8eb;}.cls-52{fill:#d1dbe2;}.cls-53{fill:#c9d2da;}.cls-54{fill:#d5dee5;}.cls-55{fill:#d16f60;}.cls-56{fill:#edf3f6;}.cls-57{fill:#e4eaee;}.cls-58{fill:#dfe6ea;}.cls-59{fill:#e9eff3;}.cls-60{fill:#e4ecf0;}.cls-61{fill:#d6dfe4;}.cls-62{fill:#d9e2e8;}.cls-63{fill:#d0dae0;}.cls-64{fill:#dce5ea;}.cls-65{fill:#e0e8ed;}.cls-66{clip-path:url(#clip-path-3);}.cls-67{clip-path:url(#clip-path-4);}.cls-68{fill:#bac7d0;}.cls-69{fill:#f18a91;}.cls-70{fill:#e8eff2;}.cls-71{fill:#e3ebf0;}.cls-72{fill:#e3eaee;}.cls-73{fill:#dde5ea;}.cls-74{fill:#dbe3e9;}</style><clipPath id="clip-path"><path class="cls-1" d="M114.35,70.64c-.19.29-.53.45-.67.77l-.06.17h-.06a4.21,4.21,0,0,0-.71,0l-.21.06-.15.07-.13.07h0a1.66,1.66,0,0,1-.45.12.72.72,0,0,1-.61-.29,2.3,2.3,0,0,0-.76-.66,1.15,1.15,0,0,1-.21-.23h0v-.09a2.13,2.13,0,0,0,.11-.9,1.71,1.71,0,0,1,0-.32,1.13,1.13,0,0,1,.17-.39h0a1.09,1.09,0,0,1,.17-.13h.57a1.61,1.61,0,0,1,.31,0L112,69a.48.48,0,0,0,.17,0l.11,0,.29-.17.16-.1h0l.14-.07H113a.6.6,0,0,1,.51.24c.08.11.14.42.24.55l.14.15.22.19a1.5,1.5,0,0,1,.27.29.2.2,0,0,1,0,.11.24.24,0,0,1,0,.12.06.06,0,0,1,0,.06.34.34,0,0,1,0,.2Z"/></clipPath><clipPath id="clip-path-2"><path class="cls-1" d="M111.28,71.85V72h0a2.48,2.48,0,0,1-.76.18h-.41a1,1,0,0,0-.47.09h-.07a.75.75,0,0,1-1-.17,2.33,2.33,0,0,0-.67-.62,1.07,1.07,0,0,1-.25-.31,3.7,3.7,0,0,0-.1-.58.81.81,0,0,1,0-.31,1,1,0,0,1,.09-.41h0a.6.6,0,0,1,.21-.14l.19-.06h.09a1.55,1.55,0,0,1,.43,0h.54l.1-.06.27-.21.2-.16h0l.17-.11h.2a.71.71,0,0,1,.59.17c.11.1.24.4.37.5a1.24,1.24,0,0,0,.18.14l.27.15a1.66,1.66,0,0,1,.34.25.46.46,0,0,1,.14.22h0a.41.41,0,0,1,0,.22,2,2,0,0,1-.14.41C111.69,71.31,111.35,71.52,111.28,71.85Z"/></clipPath><clipPath id="clip-path-3"><path class="cls-1" d="M115.7,67.73c-.2.28-.53.45-.67.76a1.34,1.34,0,0,0-.07.18h0a2.89,2.89,0,0,0-.72,0l-.21.06-.15.07-.13.07h0a1.21,1.21,0,0,1-.46.12.65.65,0,0,1-.6-.29,2.27,2.27,0,0,0-.76-.65,1.2,1.2,0,0,1-.22-.23h0v-.1a1.93,1.93,0,0,0,.1-.89,1.71,1.71,0,0,1,0-.32,1.11,1.11,0,0,1,.16-.39h0a.4.4,0,0,1,.16-.13h.75l.32.08a.54.54,0,0,0,.18,0h.1l.29-.17.17-.1h0l.14-.07h0a.43.43,0,0,1,.16,0,.53.53,0,0,1,.5.24c.09.11.15.42.25.54a1,1,0,0,0,.13.16l.23.18a1.48,1.48,0,0,1,.26.3.2.2,0,0,1,0,.11.24.24,0,0,1,0,.12v-.26a.34.34,0,0,1,0,.2A1.43,1.43,0,0,1,115.7,67.73Z"/></clipPath><clipPath id="clip-path-4"><path class="cls-1" d="M112.63,68.94v.12h0a2.48,2.48,0,0,1-.76.18h-.52a1.06,1.06,0,0,0-.46.1h-.08a.77.77,0,0,1-1-.17,2.09,2.09,0,0,0-.67-.62,1.11,1.11,0,0,1-.25-.32,3.57,3.57,0,0,0-.1-.57,1.6,1.6,0,0,1,0-.31,1.17,1.17,0,0,1,.1-.41h0v0h0a.57.57,0,0,1,.21-.13l.19-.07h.08a1.55,1.55,0,0,1,.43,0h.36a.54.54,0,0,0,.18,0l.1,0,.28-.21.2-.16h0l.17-.11.26-.14h.11a.68.68,0,0,1,.59.17c.11.1.24.4.37.5l.18.14.27.15a1.2,1.2,0,0,1,.34.25.51.51,0,0,1,.15.21v0a.41.41,0,0,1,0,.22,1.53,1.53,0,0,1-.14.41C113,68.4,112.71,68.61,112.63,68.94Z"/></clipPath></defs><title>Услуги</title><path class="cls-2" d="M66.28,104.53a3.22,3.22,0,0,0-.61.06c-1.1.19-4,.91-4.52,3.16-.64,2.8-.21,15.71-.21,16.78s.21,2.26-2.37,3.55c-.77.39-3.13.07-4.55-.13A20,20,0,0,1,41,120.12c-4.09-5.29-7.38-12.91-5.83-23.38.45-3,.69-5.57.84-7.6a17.84,17.84,0,0,0-3.17-11.53C25,66.49,22.85,60.76,22.85,50.26c0-20.84,11.5-26.84,25.6-26.84,5.51,0,10.9,1.36,15.31,5.31a4.78,4.78,0,0,0,1.87,1h0a4.63,4.63,0,0,0,2.45,0h0a4.78,4.78,0,0,0,1.87-1c4.46-3.95,9.8-5.31,15.31-5.31,14.14,0,25.6,7.67,25.6,25.84,0,10.5-2.12,17.23-9.94,28.39a17.84,17.84,0,0,0-3.17,11.53c.15,2,.38,4.56.84,7.6,0,0,3.55,23.67,9,27.17s-14.24,7.39-20.94,4.17-11.3-15.14-12.3-20S69,104.49,68,104.49C67.55,104.49,66.53,104.53,66.28,104.53Z"/><g class="cls-3"><path class="cls-4" d="M47.05,120.57c-4-3.58-12-15.47-8.38-27.53C42,82,51.15,82,52.78,81.69c-1.21.09-6.43-.71-18.43-16.57C24.62,52.18,27.1,37.21,29.5,29.31,25.44,33.74,23,40.12,23,48.53c0,10.87,2.27,17.71,10.81,29.59a13.14,13.14,0,0,1,2.42,8.36,91.75,91.75,0,0,1-1,9.56c-1.5,10.48,1.78,18.08,5.87,23.39a20.13,20.13,0,0,0,13.07,7.79c1.42.19,3.78.51,4.55.13,2.58-1.29,2.37-2.48,2.37-3.55v-1.22C57.35,124.94,51.14,124.23,47.05,120.57Z"/></g><g class="cls-3"><path class="cls-4" d="M97.73,87.86a13.2,13.2,0,0,1,2.42-8.36C108.69,67.61,111,60.77,111,49.9c0-18.18-11.46-26.84-25.61-26.84-5.85,0-11.5,2.65-16.12,7.05l-2.29.63-2.27-.62c-4.62-4.4-10.27-7-16.12-7C34.41,23.06,23,31.72,23,49.9c0,10.87,2.27,17.71,10.81,29.6a13.14,13.14,0,0,1,2.42,8.36,91.75,91.75,0,0,1-1,9.56c-1.54,10.47,1.74,18.08,5.83,23.37a20.14,20.14,0,0,0,13.07,7.8c1.42.19,3.78.51,4.55.12,2.58-1.29,2.37-2.47,2.37-3.54s-.43-14,.21-16.78,5-3.23,5-3.23h1.51a8.41,8.41,0,0,1,3.63,1.31c-1.24-1.86-4.38-2.18-4.38-2.18H65.46s-4.17.42-4.8,3.13-.21,15.24-.21,16.28.21,2.19-2.29,3.44c-.75.38-3,.07-4.41-.12a19.48,19.48,0,0,1-12.69-7.56c-4-5.13-7.15-12.52-5.65-22.68.59-4,.8-7,.92-9.27A12.7,12.7,0,0,0,34,79.4C25.7,67.85,23.5,61.22,23.5,50.67c0-17.63,11.12-26,24.84-26C54,24.67,59.5,27.25,64,31.51l2.22.62,2.22-.62c4.47-4.3,9.93-6.88,15.63-6.88,13.72,0,24.84,8.41,24.84,26,0,10.55-2.2,17.18-10.49,28.73a12.76,12.76,0,0,0-2.34,8.11"/></g><path class="cls-5" d="M94.76,59.29a30.13,30.13,0,0,1-4.15,8.83c-2.51,3.68-4,5.83-4.88,7.06-.17.24-1,1.1-1,1.1l13.56-3.16a34.41,34.41,0,0,0,7.06-15.37A35.81,35.81,0,0,1,94.76,59.29Z"/><path class="cls-5" d="M96.6,108.25a13.92,13.92,0,0,0,.75,2.26,45.05,45.05,0,0,0,4.1,7.81s.8,3.76-3.25,1.59c-3.3-1.77-7.72-6.66-9.55-12.08.39.16.82.31,1.28.47A12.1,12.1,0,0,0,96.6,108.25Z"/><path class="cls-5" d="M87.17,104.84c-2.18-4.21-2.59-7-2.4-10.12a14.76,14.76,0,0,1,.58-2.38l8.38-.9a29.75,29.75,0,0,0,2.72,13c-.22.12-.43.23-.67.34C92.86,106.18,89.35,105.52,87.17,104.84Z"/><path class="cls-4" d="M94,129.87a18.8,18.8,0,0,1-7.53-1.25c-7.08-3.38-11.68-16.1-12.54-20.36-.75-3.77-3.7-3.47-5.28-3.31H65.76c-.85.15-3.66.79-4.12,2.79-.53,2.38-.29,11.91-.23,15.48v1.54c0,1.08,0,2.43-2.65,3.77-.83.41-2.75.2-4.81-.08a20.47,20.47,0,0,1-13.43-8c-5.26-6.8-7.25-14.79-5.92-23.76.38-2.55.65-5,.83-7.57a17.31,17.31,0,0,0-3.08-11.18c-7.84-11.23-10-17.18-10-27.68,0-18.14,8.78-27.34,26.1-27.34,6.4,0,11.51,1.78,15.64,5.44a4.3,4.3,0,0,0,1.67.93,4.07,4.07,0,0,0,2.19,0,4.3,4.3,0,0,0,1.67-.93c4.13-3.66,9.24-5.44,15.64-5.44,16.34,0,26.09,9.85,26.09,26.34,0,11-2.35,17.72-10,28.68a17.45,17.45,0,0,0-3.1,11.18c.18,2.54.45,5,.83,7.57,0,.23,3.59,23.48,8.81,26.81,1.49,1,1.26,1.93,1,2.42C107.68,128.12,100.35,129.87,94,129.87Zm-24.17-26a4.7,4.7,0,0,1,5.08,4.25c.83,4.12,5.21,16.43,12,19.64,5.63,2.67,19.76.23,21.14-2.25.07-.14.28-.51-.65-1.09-5.6-3.58-9.11-26.54-9.26-27.51-.38-2.58-.66-5.08-.84-7.65a18.43,18.43,0,0,1,3.26-11.85c7.54-10.81,9.83-17.37,9.83-28.15,0-16.14-9.14-25.34-25.09-25.34-6.14,0-11,1.7-15,5.19a5.26,5.26,0,0,1-2.07,1.14,5,5,0,0,1-2.72,0,5.36,5.36,0,0,1-2-1.13c-3.93-3.5-8.83-5.2-15-5.2-16.89,0-25.1,8.62-25.1,26.34,0,10.37,2,16,9.85,27.1a18.37,18.37,0,0,1,3.25,11.85c-.18,2.57-.45,5.07-.83,7.65-1.29,8.68.64,16.42,5.72,23a19.46,19.46,0,0,0,12.75,7.61c1.19.16,3.62.49,4.26.17,2.11-1.06,2.1-1.89,2.09-2.86v-1.53c-.08-3.6-.3-13.18.25-15.6s3.66-3.33,4.9-3.53a4.93,4.93,0,0,1,.66-.07h2.23c.2,0,.8-.17,1.31-.17Z"/><path class="cls-6" d="M80.74,82.33l-.29,0A1.35,1.35,0,0,1,80.74,82.33Z"/><path class="cls-7" d="M50.07,45s-1.23-.06-5.63,2.67a14.26,14.26,0,0,1,5.14-4.43C49.6,43.52,50.07,45,50.07,45Z"/><path class="cls-7" d="M83.15,44.61s1.22-.06,5.62,2.67a14.17,14.17,0,0,0-5.14-4.43C83.61,43.12,83.15,44.61,83.15,44.61Z"/><polygon class="cls-5" points="33.99 20.12 40.89 29.05 33.79 37.83 42.73 30.93 51.5 38.03 44.6 29.09 51.7 20.32 42.77 27.22 33.99 20.12"/><polygon class="cls-5" points="42.67 35.83 43.45 29.79 49.5 29.15 43.46 28.37 42.82 22.32 42.05 28.36 35.99 29 42.03 29.77 42.67 35.83"/><path class="cls-2" d="M81,53a.83.83,0,1,0,.83-.83A.83.83,0,0,0,81,53Z"/><path class="cls-2" d="M79.85,53.44a.49.49,0,0,0,.48.48.47.47,0,0,0,.48-.46v0a.47.47,0,0,0-.48-.48A.49.49,0,0,0,79.85,53.44Z"/><path class="cls-5" d="M102.09,34A16.28,16.28,0,0,0,100,31.72c-.47-.13-1.77,1-9.5,4.61A18.07,18.07,0,0,1,94.75,42a27.33,27.33,0,0,1,1.42,12,35,35,0,0,0,10.13-2C106.42,42.43,104.17,36.55,102.09,34Z"/><path class="cls-2" d="M33.67,101.47a1.56,1.56,0,0,1-.73-.19,1.51,1.51,0,0,1-.58-2L33.09,98c-5.63-1.73-9.37-7-8.58-12.51.84-6.23,7.08-10.49,13.84-9.53a1.51,1.51,0,0,1-.42,3c-5.11-.73-9.8,2.39-10.45,6.94s3,8.85,8.1,9.58a1.5,1.5,0,0,1,1.27,1.7,1.4,1.4,0,0,1-.17.51L35,100.72A1.5,1.5,0,0,1,33.67,101.47Z"/><path class="cls-2" d="M104.55,89.47a11.67,11.67,0,0,1-1.56-.1,9.36,9.36,0,0,1-6.23-3.48,9.81,9.81,0,0,0-2.49-2.14,1.51,1.51,0,0,1,1.49-2.63h0a12.36,12.36,0,0,1,3.2,2.7,6.45,6.45,0,0,0,4.47,2.55A15.14,15.14,0,0,0,110.9,85a1.47,1.47,0,0,1,.93-.25,1.86,1.86,0,0,1,.34.06l5.18,1.57a1.49,1.49,0,0,1,1,1.87,1.51,1.51,0,0,1-1.87,1l-4.64-1.38A19.3,19.3,0,0,1,104.55,89.47Z"/><path class="cls-8" d="M78.12,69.12c0,2.48-4.75,8.27-10.61,8.27s-10.62-5.78-10.62-8.27c0-1.25,5.31,1.89,10.62,1.89S78.12,67.88,78.12,69.12Z"/><path class="cls-9" d="M67.51,77.9c-6,0-11.16-5.89-11.16-8.78a.72.72,0,0,1,.31-.62c.49-.37,1.29-.13,3.22.48a25.62,25.62,0,0,0,7.59,1.53A25.62,25.62,0,0,0,75.06,69c1.93-.61,2.73-.85,3.22-.48a.71.71,0,0,1,.3.62C78.62,72,73.48,77.9,67.51,77.9Zm-10.1-8.56c.26,2.31,4.64,7.56,10.1,7.56s9.84-5.25,10.1-7.56a16.77,16.77,0,0,0-2.21.6,26.23,26.23,0,0,1-7.89,1.58,26.36,26.36,0,0,1-7.9-1.58A16.63,16.63,0,0,0,57.41,69.34Z"/><path class="cls-10" d="M56.29,56.49a2.94,2.94,0,1,1-2.94-3A3,3,0,0,1,56.29,56.49Z"/><path class="cls-2" d="M52.84,55.12a.77.77,0,1,1-.77-.77.75.75,0,0,1,.77.75Z"/><path class="cls-2" d="M53.9,55.58a.45.45,0,1,1-.45-.45h0a.44.44,0,0,1,.44.44Z"/><path class="cls-10" d="M83.29,56.49a2.94,2.94,0,1,1-2.94-3A3,3,0,0,1,83.29,56.49Z"/><path class="cls-2" d="M79.84,55.12a.77.77,0,1,1-.77-.77.75.75,0,0,1,.77.75Z"/><path class="cls-2" d="M80.9,55.58a.45.45,0,1,1-.45-.45h0a.44.44,0,0,1,.44.44Z"/><path class="cls-11" d="M123.64,85.12a1.73,1.73,0,0,0-.13-1.77,1,1,0,0,0-.28-.27c-.15-.08-.19-.18-.36-.2l-.81-.07a2.09,2.09,0,0,1-.56,0c-.24-.1-.48-.23-.72-.34l-1.64-.77-3.79-1.73-3.76-1.8-3.18-1.49-1.91-.89a1.23,1.23,0,0,0-.26-.12,49.76,49.76,0,0,1,6.82-2.21.8.8,0,0,0,.56-1,1,1,0,0,0-.11-.23l-.74-1s-5,.28-8.31,2.3l-1,.86L102,76.46a2.7,2.7,0,0,0-.27.39v.06h0l-.12.26c-1.09,2.87,2.38,6.5,4.5,7.77A10.39,10.39,0,0,0,109.18,86q2.11.45,4.26.69c1.5.17,3,.29,4.52.38,1.27.08,2.57,0,3.84.06.31,0,.48.05.73-.15A7.64,7.64,0,0,0,123.64,85.12Z"/><path class="cls-12" d="M114.41,71.43s1.13,2.17.81,2.81c-.68,1.37-10,4.46-10,4.46l-1-3.06,3.29-3.06Z"/><path class="cls-13" d="M122.44,82.74a2.37,2.37,0,0,0-.61-.37,2.8,2.8,0,0,0-1-.06h-3c-1.51,0-3-.12-4.53-.27a19.65,19.65,0,0,1-3.73-.63,4.83,4.83,0,0,1-.88-.37c-1.42-.92-4.35-3.84-3.78-5.43s6.44-3.27,9.11-4a.74.74,0,0,0,.54-.9.58.58,0,0,0-.12-.25l-.7-1c-.43.12-.87.26-1.3.4-1,.33-2,.69-3,1.09a28.88,28.88,0,0,0-3.43,1.6,8.24,8.24,0,0,0-2.51,1.92c-.09.12-.18.25-.26.38a2.12,2.12,0,0,0-.18,1,1.6,1.6,0,0,0,0,.31c0,.12.09.23.1.36a1.65,1.65,0,0,1-.18.57,1.13,1.13,0,0,0,.07.81,1,1,0,0,0,.19.36c.1.11.24.14.33.28a.89.89,0,0,1,.12.39,3.69,3.69,0,0,0,.19.56,1,1,0,0,0,.6.59.74.74,0,0,1,.21,0c.15.09.14.3.18.46a1.4,1.4,0,0,0,.37.66,1.38,1.38,0,0,0,.5.43c.18.06.34,0,.52.13a2.5,2.5,0,0,1,.34.39,2.5,2.5,0,0,0,.47.39,1.48,1.48,0,0,0,.82.24,1,1,0,0,1,.55,0c.18.1.22.34.38.45a2,2,0,0,0,.7.22,2.36,2.36,0,0,0,.65,0h.36c.12,0,.37-.1.58,0a3,3,0,0,1,.38.24,2.49,2.49,0,0,0,.9.39,2.26,2.26,0,0,0,.52,0,1.61,1.61,0,0,0,.38-.08c.12,0,.2-.15.35-.14a.92.92,0,0,1,.35.19,1.91,1.91,0,0,0,1.31.1,1.82,1.82,0,0,1,.46-.06,1.75,1.75,0,0,1,.6.14.79.79,0,0,0,.52.09c.12,0,.22-.2.35-.17a.29.29,0,0,1,.14.08,1.32,1.32,0,0,0,1,.23,1.16,1.16,0,0,1,.66-.08,4,4,0,0,1,.49.15.87.87,0,0,0,.55-.09.18.18,0,0,0,.14-.11s.26.2.29.21a1.46,1.46,0,0,0,.55.11,1.3,1.3,0,0,0,.62,0,2.83,2.83,0,0,1,.55-.21c.35,0,.7.07,1-.2a.56.56,0,0,0,.18-.58,1,1,0,0,0-.28-.39A5.06,5.06,0,0,0,122.44,82.74Z"/><g class="cls-14"><polygon class="cls-15" points="110.3 71.74 110.35 71.88 110.3 71.88 110.3 71.74"/><polygon class="cls-16" points="110.3 71.3 110.5 71.88 110.35 71.88 110.3 71.74 110.3 71.3"/><polygon class="cls-17" points="110.3 70.86 110.65 71.88 110.5 71.88 110.3 71.3 110.3 70.86"/><polygon class="cls-18" points="110.3 70.42 110.8 71.88 110.65 71.88 110.3 70.86 110.3 70.42"/><polygon class="cls-19" points="110.3 69.98 110.96 71.88 110.8 71.88 110.3 70.42 110.3 69.98"/><polygon class="cls-20" points="110.3 69.55 111.11 71.88 110.96 71.88 110.3 69.98 110.3 69.55"/><polygon class="cls-21" points="110.3 69.11 111.26 71.88 111.11 71.88 110.3 69.55 110.3 69.11"/><polygon class="cls-22" points="110.3 68.67 111.41 71.88 111.26 71.88 110.3 69.11 110.3 68.67"/><polygon class="cls-23" points="110.34 68.32 111.56 71.88 111.41 71.88 110.3 68.67 110.3 68.32 110.34 68.32"/><polygon class="cls-24" points="110.49 68.32 111.71 71.88 111.56 71.88 110.34 68.32 110.49 68.32"/><polygon class="cls-25" points="110.64 68.32 111.86 71.88 111.71 71.88 110.49 68.32 110.64 68.32"/><polygon class="cls-26" points="110.79 68.32 112.01 71.88 111.86 71.88 110.64 68.32 110.79 68.32"/><polygon class="cls-27" points="110.94 68.32 112.16 71.88 112.01 71.88 110.79 68.32 110.94 68.32"/><polygon class="cls-28" points="111.09 68.32 112.31 71.88 112.16 71.88 110.94 68.32 111.09 68.32"/><polygon class="cls-29" points="111.24 68.32 112.46 71.88 112.31 71.88 111.09 68.32 111.24 68.32"/><polygon class="cls-30" points="111.39 68.32 112.61 71.88 112.46 71.88 111.24 68.32 111.39 68.32"/><polygon class="cls-31" points="111.54 68.32 112.77 71.88 112.61 71.88 111.39 68.32 111.54 68.32"/><polygon class="cls-32" points="111.69 68.32 112.91 71.88 112.77 71.88 111.54 68.32 111.69 68.32"/><polygon class="cls-33" points="111.84 68.32 113.07 71.88 112.91 71.88 111.69 68.32 111.84 68.32"/><polygon class="cls-34" points="111.99 68.32 113.22 71.88 113.07 71.88 111.84 68.32 111.99 68.32"/><polygon class="cls-35" points="112.14 68.32 113.37 71.88 113.22 71.88 111.99 68.32 112.14 68.32"/><polygon class="cls-36" points="112.29 68.32 113.52 71.88 113.37 71.88 112.14 68.32 112.29 68.32"/><polygon class="cls-37" points="112.45 68.32 113.67 71.88 113.52 71.88 112.29 68.32 112.45 68.32"/><polygon class="cls-38" points="112.6 68.32 113.82 71.88 113.67 71.88 112.45 68.32 112.6 68.32"/><polygon class="cls-39" points="112.75 68.32 113.97 71.88 113.82 71.88 112.6 68.32 112.75 68.32"/><polygon class="cls-40" points="112.9 68.32 114.12 71.88 113.97 71.88 112.75 68.32 112.9 68.32"/><polygon class="cls-41" points="113.05 68.32 114.27 71.88 114.12 71.88 112.9 68.32 113.05 68.32"/><polygon class="cls-42" points="113.2 68.32 114.42 71.88 114.27 71.88 113.05 68.32 113.2 68.32"/><polygon class="cls-43" points="113.35 68.32 114.57 71.88 114.42 71.88 113.2 68.32 113.35 68.32"/><polygon class="cls-43" points="113.5 68.32 114.6 71.51 114.6 71.88 114.57 71.88 113.35 68.32 113.5 68.32"/><polygon class="cls-43" points="114.6 71.51 113.5 68.32 114.6 68.32 114.6 71.51"/></g><path class="cls-44" d="M112,71.18a1.05,1.05,0,0,0,.12-1,1.68,1.68,0,0,0-.92-.84l-.15-.07H111a.76.76,0,0,0-.2.06.66.66,0,0,0-.2.14h0a2.66,2.66,0,0,1,0,.69,3.86,3.86,0,0,1,.09.49h0a2.3,2.3,0,0,1,.76.66.76.76,0,0,0,.37.26,1.58,1.58,0,0,1,.09-.31C111.82,71.4,111.93,71.3,112,71.18Z"/><path class="cls-45" d="M112.13,70.38a1.8,1.8,0,0,1-.44-.43,1.71,1.71,0,0,0-.44-.32,1.51,1.51,0,0,1-.47-.36.58.58,0,0,1-.13-.3.62.62,0,0,1,.32-.21h.19a2.09,2.09,0,0,1,.5,0h.49a3.87,3.87,0,0,0,.59-.25.8.8,0,0,1,.39-.14.6.6,0,0,1,.51.24c.08.11.15.42.24.54a1.07,1.07,0,0,0,.14.16l.22.19a1.5,1.5,0,0,1,.27.29.63.63,0,0,1,.08.23.39.39,0,0,1-.22.33.51.51,0,0,1-.3.07l-.35-.06a1.5,1.5,0,0,0-.37,0,1.09,1.09,0,0,0-.44,0l-.19.07a.63.63,0,0,0-.32.06A.63.63,0,0,1,112.13,70.38Z"/><path class="cls-46" d="M111.87,69.43a1.13,1.13,0,0,1,.26,0,.49.49,0,0,1,.24,0,2.34,2.34,0,0,1,.5.19H113a.3.3,0,0,0,.16-.08,1.43,1.43,0,0,1,.14-.2.14.14,0,0,1,.09,0,.72.72,0,0,1,.5,0c.22.08.87.51.51.83a.59.59,0,0,1-.41.1,3.08,3.08,0,0,0-1.21-.06,1.7,1.7,0,0,1-.32.1,1,1,0,0,1-.33-.06c-.12,0-.14-.13-.2-.25a.54.54,0,0,0-.38-.28h-.06C111.4,69.6,111.81,69.45,111.87,69.43Z"/><path class="cls-46" d="M112.18,69.33a.86.86,0,0,0-.39,0,1.28,1.28,0,0,0-.25.15s-.14.12-.21.1l-.08-.1a.66.66,0,0,0-.48-.29h-.06c0-.16.14-.25.26-.31a1.05,1.05,0,0,1,.43-.07,2.27,2.27,0,0,1,.52.09,1,1,0,0,0,.67-.14,2.9,2.9,0,0,1,.54-.31h.11a.59.59,0,0,1,.51.42.48.48,0,0,1,0,.17l.06.15a.28.28,0,0,1,0,.11h-.25a.31.31,0,0,0-.19,0c-.1,0-.19.07-.29.09s-.19,0-.29-.07a.53.53,0,0,0-.35,0A1.08,1.08,0,0,1,112.18,69.33Z"/><path class="cls-2" d="M112.14,68.93l.48-.18a2,2,0,0,1,.52-.24.4.4,0,0,1,.45.23c0,.11.07.22.11.33a1.74,1.74,0,0,0-.45.06,1,1,0,0,1-.24,0l-.24-.06a.54.54,0,0,0-.25.06,1.18,1.18,0,0,1-.42.05.61.61,0,0,0-.19,0,1.38,1.38,0,0,0-.27.08,1,1,0,0,0-.22.09h0a.69.69,0,0,1-.13-.11.22.22,0,0,0-.1-.09A.19.19,0,0,1,111,69c-.06-.11.09-.2.16-.23h.14a1.19,1.19,0,0,1,.46,0A.93.93,0,0,0,112.14,68.93Z"/><path class="cls-2" d="M113.64,69.36a.82.82,0,0,1,.49.2c.09.08.32.21.25.37s-.39.15-.57.12a1.79,1.79,0,0,0-1,.06.78.78,0,0,1-.43.06.48.48,0,0,1-.22-.12l-.09-.17a.57.57,0,0,0-.16-.15c-.06,0-.14-.06-.13-.13s.06-.08.11-.1a1,1,0,0,1,.68.07,2.14,2.14,0,0,0,.39.16.51.51,0,0,0,.43-.22A.33.33,0,0,1,113.64,69.36Z"/><path class="cls-47" d="M113.82,71.12a.6.6,0,0,0-.14.26.57.57,0,0,1-.12.23,4.21,4.21,0,0,0-.71,0h0c0-.14-.14-.11-.24,0a1,1,0,0,0-.26.29,1.66,1.66,0,0,1-.45.12h0a.48.48,0,0,0,0-.17,1.14,1.14,0,0,1,.1-.19,1.15,1.15,0,0,0,.19-.46.72.72,0,0,1,.16-.47.2.2,0,0,1,.09-.07.81.81,0,0,1,.25-.08,1.39,1.39,0,0,1,.57-.09,2,2,0,0,1,.43.07,1.63,1.63,0,0,1,.37.13c.08,0,.06.16,0,.24A1.55,1.55,0,0,1,113.82,71.12Z"/><path class="cls-16" d="M112.64,71.6l-.15.07-.13.07a.5.5,0,0,1,.22-.13Z"/><g class="cls-48"><polygon class="cls-49" points="107.44 72.33 107.5 72.51 107.44 72.51 107.44 72.33"/><polygon class="cls-15" points="107.44 71.88 107.66 72.51 107.5 72.51 107.44 72.33 107.44 71.88"/><polygon class="cls-16" points="107.44 71.43 107.81 72.51 107.66 72.51 107.44 71.88 107.44 71.43"/><polygon class="cls-17" points="107.44 70.98 107.97 72.51 107.81 72.51 107.44 71.43 107.44 70.98"/><polygon class="cls-18" points="107.44 70.53 108.12 72.51 107.97 72.51 107.44 70.98 107.44 70.53"/><polygon class="cls-19" points="107.44 70.08 108.28 72.51 108.12 72.51 107.44 70.53 107.44 70.08"/><polygon class="cls-20" points="107.44 69.62 108.43 72.51 108.28 72.51 107.44 70.08 107.44 69.62"/><polygon class="cls-21" points="107.44 69.17 108.59 72.51 108.43 72.51 107.44 69.62 107.44 69.17"/><polygon class="cls-22" points="107.49 68.86 108.75 72.51 108.59 72.51 107.44 69.17 107.44 68.86 107.49 68.86"/><polygon class="cls-23" points="107.65 68.86 108.9 72.51 108.75 72.51 107.49 68.86 107.65 68.86"/><polygon class="cls-24" points="107.8 68.86 109.06 72.51 108.9 72.51 107.65 68.86 107.8 68.86"/><polygon class="cls-25" points="107.96 68.86 109.21 72.51 109.06 72.51 107.8 68.86 107.96 68.86"/><polygon class="cls-26" points="108.11 68.86 109.37 72.51 109.21 72.51 107.96 68.86 108.11 68.86"/><polygon class="cls-27" points="108.27 68.86 109.52 72.51 109.37 72.51 108.11 68.86 108.27 68.86"/><polygon class="cls-28" points="108.43 68.86 109.68 72.51 109.52 72.51 108.27 68.86 108.43 68.86"/><polygon class="cls-29" points="108.58 68.86 109.83 72.51 109.68 72.51 108.43 68.86 108.58 68.86"/><polygon class="cls-30" points="108.74 68.86 109.99 72.51 109.83 72.51 108.58 68.86 108.74 68.86"/><polygon class="cls-31" points="108.89 68.86 110.15 72.51 109.99 72.51 108.74 68.86 108.89 68.86"/><polygon class="cls-32" points="109.05 68.86 110.3 72.51 110.15 72.51 108.89 68.86 109.05 68.86"/><polygon class="cls-33" points="109.2 68.86 110.46 72.51 110.3 72.51 109.05 68.86 109.2 68.86"/><polygon class="cls-34" points="109.36 68.86 110.61 72.51 110.46 72.51 109.2 68.86 109.36 68.86"/><polygon class="cls-35" points="109.51 68.86 110.77 72.51 110.61 72.51 109.36 68.86 109.51 68.86"/><polygon class="cls-36" points="109.67 68.86 110.92 72.51 110.77 72.51 109.51 68.86 109.67 68.86"/><polygon class="cls-37" points="109.82 68.86 111.08 72.51 110.92 72.51 109.67 68.86 109.82 68.86"/><polygon class="cls-38" points="109.98 68.86 111.24 72.51 111.08 72.51 109.82 68.86 109.98 68.86"/><polygon class="cls-39" points="110.14 68.86 111.39 72.51 111.24 72.51 109.98 68.86 110.14 68.86"/><polygon class="cls-40" points="110.29 68.86 111.55 72.51 111.39 72.51 110.14 68.86 110.29 68.86"/><polygon class="cls-41" points="110.45 68.86 111.7 72.51 111.55 72.51 110.29 68.86 110.45 68.86"/><polygon class="cls-42" points="110.6 68.86 111.86 72.51 111.7 72.51 110.45 68.86 110.6 68.86"/><polygon class="cls-43" points="110.76 68.86 112 72.46 112 72.51 111.86 72.51 110.6 68.86 110.76 68.86"/><polygon class="cls-43" points="110.91 68.86 112 72.01 112 72.46 110.76 68.86 110.91 68.86"/><polygon class="cls-43" points="112 72.01 110.91 68.86 112 68.86 112 72.01"/></g><path class="cls-44" d="M108.74,72.35h0a1,1,0,0,1,.1-.49c.07-.13.19-.23.27-.35a1.08,1.08,0,0,0,.13-1,1.68,1.68,0,0,0-.92-.84l-.15-.07h-.09l-.19.06a.6.6,0,0,0-.21.14h0a1,1,0,0,0-.09.41.81.81,0,0,0,0,.31,3.7,3.7,0,0,1,.1.58,1.07,1.07,0,0,0,.25.31,2.33,2.33,0,0,1,.67.62A.8.8,0,0,0,108.74,72.35Z"/><path class="cls-45" d="M109.42,71.05a2.23,2.23,0,0,1-.56-.36,2.08,2.08,0,0,0-.52-.25,2.07,2.07,0,0,1-.58-.28.72.72,0,0,1-.2-.29.67.67,0,0,1,.3-.25l.19-.07a2.44,2.44,0,0,1,.54,0l.52-.08a3.25,3.25,0,0,0,.57-.33.91.91,0,0,1,.39-.2.71.71,0,0,1,.59.17c.11.1.24.4.37.5l.18.14.27.15a1.66,1.66,0,0,1,.34.25.46.46,0,0,1,.14.22c.06.14-.06.27-.17.35a.51.51,0,0,1-.31.11,2.41,2.41,0,0,1-.38,0h-.41a1.44,1.44,0,0,0-.46.08.76.76,0,0,0-.18.09c-.11,0-.22.07-.33.11A.52.52,0,0,1,109.42,71.05Z"/><path class="cls-46" d="M109,70.12a.77.77,0,0,1,.26-.07h.26a3.63,3.63,0,0,1,.57.13h.1a.24.24,0,0,0,.2-.06.46.46,0,0,1,.11-.22.24.24,0,0,1,.09-.06.72.72,0,0,1,.54,0c.25,0,1,.38.71.75a.56.56,0,0,1-.41.15,3.24,3.24,0,0,0-1.31.12,1.83,1.83,0,0,1-.32.14,1,1,0,0,1-.35,0c-.14,0-.19-.11-.27-.21a.58.58,0,0,0-.46-.22h-.07C108.54,70.57,108.9,70.19,109,70.12Z"/><path class="cls-46" d="M109.26,70a1,1,0,0,0-.41.09,1.3,1.3,0,0,0-.23.18s-.12.14-.2.13-.07,0-.1-.08a.83.83,0,0,0-.58-.23.09.09,0,0,1-.07,0h0a.41.41,0,0,1,.21-.35,1,1,0,0,1,.44-.13,2.71,2.71,0,0,1,.57,0,1,1,0,0,0,.68-.24,3.68,3.68,0,0,1,.51-.37h.13a.66.66,0,0,1,.62.35.22.22,0,0,0,.08.16c.08.06,0,.09.09.14s.07,0,.08.09h-.28a.67.67,0,0,0-.2,0l-.29.14a.86.86,0,0,1-.32,0,.66.66,0,0,0-.36.08A.92.92,0,0,1,109.26,70Z"/><path class="cls-2" d="M109.14,69.63a3.5,3.5,0,0,0,.47-.25,1.79,1.79,0,0,1,.51-.31.47.47,0,0,1,.52.16,1.92,1.92,0,0,0,.18.31,1.83,1.83,0,0,0-.46.12.73.73,0,0,1-.25.08h-.26a.82.82,0,0,0-.26.1,2.18,2.18,0,0,1-.44.11H109a1.59,1.59,0,0,0-.27.12,1.19,1.19,0,0,0-.22.12h0a.51.51,0,0,1-.16-.09.19.19,0,0,0-.12-.07,1.06,1.06,0,0,1-.25-.09c-.1-.07.06-.2.12-.24l.15,0a1.35,1.35,0,0,1,.49,0A1.14,1.14,0,0,0,109.14,69.63Z"/><path class="cls-2" d="M110.82,69.84a.91.91,0,0,1,.56.13c.11.06.38.16.34.33s-.38.2-.58.19a2,2,0,0,0-1.09.21.83.83,0,0,1-.44.12.51.51,0,0,1-.27-.09l-.13-.15a.32.32,0,0,0-.2-.12c-.07,0-.16,0-.16-.12s0-.09.1-.11a1.14,1.14,0,0,1,.73,0,3.63,3.63,0,0,0,.45.1.5.5,0,0,0,.41-.27A.35.35,0,0,1,110.82,69.84Z"/><path class="cls-47" d="M111.26,71.78a.74.74,0,0,1,0,.21,2.48,2.48,0,0,1-.76.18v-.11c-.07-.13-.16-.09-.26,0a.4.4,0,0,0-.1.12,1,1,0,0,0-.47.09h-.07v-.13a1,1,0,0,0,.1-.48.71.71,0,0,1,.07-.48l.08-.08c.08,0,.18-.08.26-.12a1.37,1.37,0,0,1,.59-.16h.46a1.2,1.2,0,0,1,.42.08c.1,0,.1.15.06.24a1.27,1.27,0,0,1-.23.34A.66.66,0,0,0,111.26,71.78Z"/><path class="cls-50" d="M108.43,72.7a.6.6,0,0,0,0-.19V72a1.52,1.52,0,0,1,.18-.67c0-.08.14-.2.13-.29a.34.34,0,0,0-.16-.21,2.34,2.34,0,0,1-.24-.31.28.28,0,0,0-.29-.08h-.36a2.36,2.36,0,0,0-.52.09,2,2,0,0,1-.33.09.85.85,0,0,1-.47-.1c-.13-.05-.35.09-.45.17a.38.38,0,0,0-.16.17v.2a3,3,0,0,1-.08.66.31.31,0,0,1-.06.22.6.6,0,0,1,0,.19v.21a1.63,1.63,0,0,0,.39.8.55.55,0,0,0,.49.22.48.48,0,0,0,.17,0,1.48,1.48,0,0,1,.72-.09,1.83,1.83,0,0,0,.66,0,2.09,2.09,0,0,0,.3-.14.46.46,0,0,0,.24-.4Z"/><path class="cls-51" d="M106.47,72.84a4.07,4.07,0,0,1,.29-1.14.38.38,0,0,0,0-.15.24.24,0,0,0,0-.12,1.76,1.76,0,0,0-.57-.64.66.66,0,0,0-.24-.11l-.08.06a.38.38,0,0,0-.16.17v.2a3,3,0,0,1-.08.66.31.31,0,0,1-.06.22.6.6,0,0,1,0,.19v.21a1.63,1.63,0,0,0,.39.8.55.55,0,0,0,.49.22h.08A5.51,5.51,0,0,0,106.47,72.84Z"/><path class="cls-45" d="M108.67,71a.2.2,0,0,0,0-.11,2.51,2.51,0,0,0-1-.83c-.08,0-.14-.09-.23,0a.16.16,0,0,0-.09,0,2.22,2.22,0,0,1-1.14.41.54.54,0,0,0-.41.29c0,.09,0,.1.09.11a.35.35,0,0,1,.25.1c.12.11.21.31.35.4a1.68,1.68,0,0,0,.42.22,1.2,1.2,0,0,0,.54-.14,2,2,0,0,1,.4-.1,1.55,1.55,0,0,1,.43,0C108.43,71.36,108.72,71.25,108.67,71Z"/><path class="cls-52" d="M104.24,73.12a2.65,2.65,0,0,0-.55,1.26,3.78,3.78,0,0,0-.17.6,3.64,3.64,0,0,1-.15.73c-.05.24-.12.51.15.47a.59.59,0,0,0,.19-.11h0a1.8,1.8,0,0,0,.06-.32,1.07,1.07,0,0,1,.11-.33,3.09,3.09,0,0,1,.54-.84.75.75,0,0,0,.2-.3,1.14,1.14,0,0,0-.16-.48,1.14,1.14,0,0,1,0-.58v-.16A.29.29,0,0,0,104.24,73.12Z"/><path class="cls-53" d="M104.67,74.2a1.14,1.14,0,0,0-.16-.48,1.14,1.14,0,0,1,0-.58V73a.3.3,0,0,0-.2.1,2.65,2.65,0,0,0-.55,1.26,3.78,3.78,0,0,0-.17.6,3.64,3.64,0,0,1-.15.73.81.81,0,0,0,0,.38,4,4,0,0,0,.31-1,10,10,0,0,1,.39-1.32.79.79,0,0,1,.16-.3.74.74,0,0,1,0,.21l.07.4v.16a2.18,2.18,0,0,1,.11.27A.83.83,0,0,0,104.67,74.2Z"/><path class="cls-54" d="M104.67,75V75a1,1,0,0,0,.08.29l.1.3a.43.43,0,0,1,.06.22,1.2,1.2,0,0,1-.18.51c-.06.16-.15.32-.21.48-.13.32-.31.63-.47,1-.08.16-.29.48-.51.36a.56.56,0,0,1-.22-.24,1.72,1.72,0,0,1-.08-.38,2,2,0,0,1,.16-.8c.14-.45.32-.88.5-1.32.09-.21.19-.42.28-.64s.07-.22.15-.26a.23.23,0,0,1,.29.13A.59.59,0,0,1,104.67,75Z"/><path class="cls-53" d="M103.24,77.52a1.72,1.72,0,0,0,.08.38l.08.13a2.41,2.41,0,0,0,0-.38,3.08,3.08,0,0,1,.08-.53,1.09,1.09,0,0,1,.13-.37c.23-.62.48-1.23.76-1.82a.13.13,0,0,1,.17-.11c.09,0,.11.07.14.13a.58.58,0,0,0,0-.32c-.06-.12-.15-.21-.29-.13s-.11.18-.15.26-.19.43-.28.64c-.18.44-.36.87-.5,1.32A2,2,0,0,0,103.24,77.52Z"/><path class="cls-55" d="M115.22,74.24s-7.4,1.66-9.75,3.51a12.65,12.65,0,0,0,3.41,3.47c1.92,1.19,8.84,1.54,12.44,1.64Z"/><path class="cls-56" d="M123.14,81.78c.11.12.25.21.29.38a.86.86,0,0,1,0,.39,6.62,6.62,0,0,1-.31,1.22,2.21,2.21,0,0,1-.16.35.55.55,0,0,1-.14.17c-.2.15-.43,0-.64-.07a1.62,1.62,0,0,0-.44,0,1.49,1.49,0,0,0-.44.17.56.56,0,0,1-.31.09,1,1,0,0,1-.66-.18.61.61,0,0,1-.19-.2,1.84,1.84,0,0,1-.17-.38.69.69,0,0,0-.12-.29.58.58,0,0,1-.1-.09s0-.1-.09-.12,0-.07,0-.09a2.35,2.35,0,0,0,.11-.91,1.71,1.71,0,0,1,0-.32,1.05,1.05,0,0,1,.17-.39h0a.61.61,0,0,1,.16-.12h.43a.71.71,0,0,1,.29,0,1.12,1.12,0,0,1,.31.1h.27l.28-.17.16-.09h0l.14-.06h.14a.54.54,0,0,1,.49.26c.09.14.08.35.18.48Z"/><path class="cls-57" d="M123.42,82.12a1,1,0,0,0-.28-.35l-.06-.07c-.1-.13-.09-.34-.18-.48a.54.54,0,0,0-.49-.26h-.14l-.14.06h0l-.16.09-.28.17h-.27a1.12,1.12,0,0,0-.31-.1.71.71,0,0,0-.29,0h-.35a1.67,1.67,0,0,1,.11.23.48.48,0,0,1,0,.29,3,3,0,0,1-.15.38,5.26,5.26,0,0,0-.15.6,4.37,4.37,0,0,0-.06.72v.51s.1.07.1.06a1.06,1.06,0,0,1,.06-.56c.12-.45.25-.89.38-1.33a.23.23,0,0,1,.06-.12.09.09,0,0,1,.12,0A.1.1,0,0,1,121,82a1.08,1.08,0,0,0,.51.26.64.64,0,0,0,.45,0,2.55,2.55,0,0,1,.76-.18h.4A.81.81,0,0,0,123.42,82.12Z"/><path class="cls-56" d="M120.22,83.86c0,.19,0,.4-.22.54a.59.59,0,0,1-.37,0l-.45-.08a3.24,3.24,0,0,0-.88,0h-.09a.74.74,0,0,1-.89-.48,2.22,2.22,0,0,0-.45-.79,1.09,1.09,0,0,1-.14-.38,3.72,3.72,0,0,0,.08-.57,1.08,1.08,0,0,1,.07-.31,1,1,0,0,1,.22-.36h0a.73.73,0,0,1,.24-.07h.3a1.17,1.17,0,0,1,.41.1,3.47,3.47,0,0,1,.59.27,1,1,0,0,0,.21.09,1.82,1.82,0,0,0,.33,0,6.31,6.31,0,0,1,.76.07.51.51,0,0,1,.3,0,.39.39,0,0,1,.15.28,1.64,1.64,0,0,1-.07.82Z"/><path class="cls-57" d="M118.59,81.77h.5a1.94,1.94,0,0,1,.5.16,1.89,1.89,0,0,0,.75,0c.1,0,.13,0,.12-.1a.2.2,0,0,0-.11,0,.51.51,0,0,0-.3,0,6.31,6.31,0,0,0-.76-.07,1.82,1.82,0,0,1-.33,0,1,1,0,0,1-.21-.09,3.47,3.47,0,0,0-.59-.27,1.17,1.17,0,0,0-.41-.1h-.3a.73.73,0,0,0-.24.07h0a1,1,0,0,0-.22.36,1.08,1.08,0,0,0-.07.31,3.72,3.72,0,0,1-.08.57A1.09,1.09,0,0,0,117,83c.16.24.44.52.44.83a.35.35,0,0,0,0-.08,1.72,1.72,0,0,0,.28-.72,3.43,3.43,0,0,1,.2-.84.77.77,0,0,1,.5-.48Z"/><path class="cls-56" d="M117.35,82.93v-.07a1.14,1.14,0,0,0,.06-.25l.09-.4a1.6,1.6,0,0,0,0-.31.86.86,0,0,0,0-.32.2.2,0,0,0,0-.11.24.24,0,0,0-.09-.08.68.68,0,0,0-.5-.11l-.27,0a1,1,0,0,1-.24,0,1.59,1.59,0,0,1-.38-.07,2.64,2.64,0,0,0-.4-.12l-.27,0a2,2,0,0,1-.45-.24c-.11-.08-.21-.29-.37-.21l-.14.11h-.08a.66.66,0,0,0-.17.23,1.71,1.71,0,0,0-.17.33l-.17.46a4.56,4.56,0,0,0-.18.52c0,.1-.09.19-.12.3a.82.82,0,0,0,0,.27.65.65,0,0,0,.06.33c.06.11.08.21.13.32a1.23,1.23,0,0,0,.14.25.91.91,0,0,0,.46.23,3.32,3.32,0,0,0,.44.06h.62a.74.74,0,0,1,.21,0h.21l.53.09a1,1,0,0,0,.43,0,.61.61,0,0,0,.39-.38,2.66,2.66,0,0,0,.11-.47A.9.9,0,0,0,117.35,82.93Z"/><path class="cls-58" d="M117.57,81.56a.24.24,0,0,0-.14-.17.68.68,0,0,0-.5-.11l-.27,0a1,1,0,0,1-.24,0,1.59,1.59,0,0,1-.38-.07,2.64,2.64,0,0,0-.4-.12l-.29,0a2,2,0,0,1-.45-.24c-.11-.08-.21-.29-.37-.21l-.14.11h-.08a.66.66,0,0,0-.17.23,1.71,1.71,0,0,0-.17.33l-.17.46a4.56,4.56,0,0,0-.18.52c0,.1-.09.19-.12.3a.82.82,0,0,0,0,.27.65.65,0,0,0,.06.33,1.78,1.78,0,0,0,.12.29,3.27,3.27,0,0,1,.19-.55c0-.1.16-.37.25-.55a2.62,2.62,0,0,0,.3-.51c0-.14,0-.27.24-.29s.32.09.48.13a3.1,3.1,0,0,0,.53.1c.22,0,.43-.07.64-.06s.5.11.76.11S117.61,81.74,117.57,81.56Z"/><path class="cls-59" d="M114.07,82.17c-.06.12-.12.25-.17.38s-.23.5-.36.74a1.11,1.11,0,0,1-.38.53,1.14,1.14,0,0,1-1.13,0,1.65,1.65,0,0,1-.51-.54c0-.08-.08-.16-.12-.24s-.23-.24-.27-.39a1.13,1.13,0,0,1,0-.26,1.15,1.15,0,0,1,.16-.58,2,2,0,0,0,.37-.63,1.6,1.6,0,0,1,.11-.4c.12-.34.39-1,.84-.87h0c.09.06.18.15.29.13l.31-.14a.73.73,0,0,1,.25-.08h.07a.39.39,0,0,1,.21.08,1.27,1.27,0,0,1,.38.35l.08.07a.39.39,0,0,1,.15.23.81.81,0,0,1,0,.22,3.2,3.2,0,0,1-.19,1.06A2.14,2.14,0,0,1,114.07,82.17Z"/><path class="cls-58" d="M114.24,80.72h.07c.09,0,.07-.08,0-.16a.46.46,0,0,0-.13-.18l-.08-.07a1.27,1.27,0,0,0-.38-.35.39.39,0,0,0-.21-.08h-.07a.73.73,0,0,0-.25.08l-.31.14a.55.55,0,0,1-.29-.13h0c-.45-.11-.72.53-.84.87a1.14,1.14,0,0,1-.11.4,2,2,0,0,1-.37.63,1.15,1.15,0,0,0-.16.58,1.13,1.13,0,0,0,0,.26c0,.15.18.26.27.39h0a3.34,3.34,0,0,0,.36-.85l.42-1.33a.79.79,0,0,1,.19-.25.35.35,0,0,1,.11-.1.45.45,0,0,1,.36,0,1.05,1.05,0,0,0,.49.13,2.44,2.44,0,0,1,.54,0A2.55,2.55,0,0,0,114.24,80.72Z"/><path class="cls-60" d="M111.64,81.62A1.57,1.57,0,0,0,111,79.8a1.31,1.31,0,0,0-.93-.1,3,3,0,0,0-1,.71c-.24.22-.22.56-.27.85s-.07.5-.09.75a2.16,2.16,0,0,0,0,.36,1.17,1.17,0,0,0,.14.35A.92.92,0,0,0,109,83a1.82,1.82,0,0,0,.41.27,1.6,1.6,0,0,0,.48.11,1.93,1.93,0,0,0,.34,0,.57.57,0,0,0,.32-.09,1.42,1.42,0,0,0,.3-.3,4.37,4.37,0,0,0,.31-.44c.14-.22.27-.46.39-.69Z"/><path class="cls-61" d="M108.79,82.74a3,3,0,0,0,.1-.66,7.39,7.39,0,0,1,.18-.89,2,2,0,0,1,.07-.35.72.72,0,0,1,.14-.24,2.1,2.1,0,0,1,.66-.6,2.14,2.14,0,0,1,.85-.22h.08a1.21,1.21,0,0,0-.84-.06,3,3,0,0,0-1,.71c-.24.22-.22.56-.27.85s-.07.5-.09.75a2.16,2.16,0,0,0,0,.36A1.12,1.12,0,0,0,108.79,82.74Z"/><path class="cls-62" d="M105.35,79l-.2.37c-.07.14-.17.25-.25.38l-.09.07a.14.14,0,0,1-.09,0h0a.29.29,0,0,1-.13,0,.61.61,0,0,1-.24-.15,3.33,3.33,0,0,1-.36-.56,1.2,1.2,0,0,1,.07-1c.13-.44.3-.85.46-1.27a2.9,2.9,0,0,1,.28-.65h0c.14-.16.36,0,.49.08a.7.7,0,0,1,.15.19c.13.16.25.33.37.49a1,1,0,0,1,.2.49.81.81,0,0,1,0,.22l-.15.37A10,10,0,0,1,105.35,79Z"/><path class="cls-63" d="M105.27,76.33a.66.66,0,0,1,.22.22l.34.45a.27.27,0,0,0,.17.19.87.87,0,0,0-.16-.3c-.12-.16-.24-.33-.37-.49a.7.7,0,0,0-.15-.19c-.13-.13-.35-.24-.49-.08h0a2.9,2.9,0,0,0-.28.65c-.16.42-.33.83-.46,1.27a1.2,1.2,0,0,0-.07,1,2.53,2.53,0,0,0,.13.22,8,8,0,0,1,.59-2.1,3.12,3.12,0,0,0,.15-.39,1.7,1.7,0,0,1,.1-.32.26.26,0,0,1,.15-.16A.28.28,0,0,1,105.27,76.33Z"/><path class="cls-64" d="M107.55,78.54l-.73-.67-.2-.17c-.18-.11-.46-.21-.61,0a2.33,2.33,0,0,0-.32.72c-.16.42-.32.85-.45,1.29s-.23.67,0,1a4.88,4.88,0,0,0,.48.53.52.52,0,0,0,.61.09,1.84,1.84,0,0,0,.61-.69,8.3,8.3,0,0,0,.65-1.21,3.12,3.12,0,0,0,.15-.39c0-.19,0-.23-.14-.35Z"/><path class="cls-63" d="M106.62,77.7c-.18-.11-.46-.21-.61,0a2.33,2.33,0,0,0-.32.72c-.16.42-.32.85-.45,1.29s-.23.67,0,1l.06.07a3.48,3.48,0,0,1,.1-.91,13.36,13.36,0,0,1,.47-1.39c.1-.24.2-.71.54-.62a.68.68,0,0,1,.21.1,1.78,1.78,0,0,1,.38.28,3.89,3.89,0,0,0,.43.38.06.06,0,0,0,0-.06l-.65-.6Z"/><path class="cls-65" d="M108.2,82.12a.43.43,0,0,1-.2.15.83.83,0,0,1-.22.08,1,1,0,0,1-.39,0,2.44,2.44,0,0,1-.28-.14l-.12-.1a.68.68,0,0,1-.17-.21.74.74,0,0,1,0-.21,1.34,1.34,0,0,1,.08-.66c.11-.41.27-.82.42-1.23a2.8,2.8,0,0,1,.23-.63h0a.54.54,0,0,1,.21-.16.5.5,0,0,1,.54.13l.7.39c.12.07.31.22.34.36a.38.38,0,0,1,0,.21,1,1,0,0,1-.13.37c-.15.34-.34.66-.52,1l-.21.38C108.39,81.91,108.3,82,108.2,82.12Z"/><path class="cls-63" d="M107,82.12v-.3a3.23,3.23,0,0,1,0-.44,2.82,2.82,0,0,1,.07-.31,13.83,13.83,0,0,1,.54-1.57,2.1,2.1,0,0,1,.13-.26.93.93,0,0,1,.14-.14,1.11,1.11,0,0,1,.29-.14.44.44,0,0,0-.39,0,.54.54,0,0,0-.21.16h0a2.82,2.82,0,0,0-.28.64c-.15.41-.31.82-.42,1.23a1.34,1.34,0,0,0-.08.66.74.74,0,0,0,0,.21.68.68,0,0,0,.17.21Z"/><path class="cls-2" d="M106.08,71.66c.06-.06,0-.14,0-.21s0-.1-.08-.13a.3.3,0,0,0-.15,0,.2.2,0,0,0-.2.1.75.75,0,0,0-.08.18l-.06.08a.11.11,0,0,0,0,.11.27.27,0,0,0,.08.07l.08,0h.09c.07,0,.1-.09.16-.14S106,71.71,106.08,71.66Z"/><path class="cls-2" d="M108.52,71.06a.28.28,0,0,0-.08-.24.59.59,0,0,0-.2-.24l-.21-.1c-.15-.12-.37-.38-.59-.35s-.34.21-.48.33h0v.1s.05.08,0,.11-.08,0-.11,0a.17.17,0,0,1-.11-.12.14.14,0,0,1,0-.07.11.11,0,0,0-.08,0,1.09,1.09,0,0,0-.36,0,.47.47,0,0,0-.28.09.2.2,0,0,0-.08.12c0,.15.12.17.22.22a1,1,0,0,1,.31.28.87.87,0,0,0,.27.23c.12.06.2,0,.33,0l.14-.06a.33.33,0,0,0,.1-.43s-.07-.07,0-.1a.06.06,0,0,1,.06,0h.25a.07.07,0,0,1,0,.09V71c0,.09.11.12.18.15a.17.17,0,0,0,.1,0h.29C108.35,71.2,108.49,71.17,108.52,71.06Z"/><g class="cls-66"><polygon class="cls-15" points="111.65 68.82 111.7 68.96 111.65 68.96 111.65 68.82"/><polygon class="cls-16" points="111.65 68.39 111.85 68.96 111.7 68.96 111.65 68.82 111.65 68.39"/><polygon class="cls-17" points="111.65 67.95 112 68.96 111.85 68.96 111.65 68.39 111.65 67.95"/><polygon class="cls-18" points="111.65 67.51 112.15 68.96 112 68.96 111.65 67.95 111.65 67.51"/><polygon class="cls-19" points="111.65 67.07 112.3 68.96 112.15 68.96 111.65 67.51 111.65 67.07"/><polygon class="cls-20" points="111.65 66.63 112.45 68.96 112.3 68.96 111.65 67.07 111.65 66.63"/><polygon class="cls-21" points="111.65 66.2 112.6 68.96 112.45 68.96 111.65 66.63 111.65 66.2"/><polygon class="cls-22" points="111.65 65.76 112.75 68.96 112.6 68.96 111.65 66.2 111.65 65.76"/><polygon class="cls-23" points="111.68 65.41 112.9 68.96 112.75 68.96 111.65 65.76 111.65 65.41 111.68 65.41"/><polygon class="cls-24" points="111.83 65.41 113.05 68.96 112.9 68.96 111.68 65.41 111.83 65.41"/><polygon class="cls-25" points="111.98 65.41 113.21 68.96 113.05 68.96 111.83 65.41 111.98 65.41"/><polygon class="cls-26" points="112.13 65.41 113.35 68.96 113.21 68.96 111.98 65.41 112.13 65.41"/><polygon class="cls-27" points="112.28 65.41 113.51 68.96 113.35 68.96 112.13 65.41 112.28 65.41"/><polygon class="cls-28" points="112.43 65.41 113.66 68.96 113.51 68.96 112.28 65.41 112.43 65.41"/><polygon class="cls-29" points="112.58 65.41 113.81 68.96 113.66 68.96 112.43 65.41 112.58 65.41"/><polygon class="cls-30" points="112.74 65.41 113.96 68.96 113.81 68.96 112.58 65.41 112.74 65.41"/><polygon class="cls-31" points="112.89 65.41 114.11 68.96 113.96 68.96 112.74 65.41 112.89 65.41"/><polygon class="cls-32" points="113.04 65.41 114.26 68.96 114.11 68.96 112.89 65.41 113.04 65.41"/><polygon class="cls-33" points="113.19 65.41 114.41 68.96 114.26 68.96 113.04 65.41 113.19 65.41"/><polygon class="cls-34" points="113.34 65.41 114.56 68.96 114.41 68.96 113.19 65.41 113.34 65.41"/><polygon class="cls-35" points="113.49 65.41 114.71 68.96 114.56 68.96 113.34 65.41 113.49 65.41"/><polygon class="cls-36" points="113.64 65.41 114.86 68.96 114.71 68.96 113.49 65.41 113.64 65.41"/><polygon class="cls-37" points="113.79 65.41 115.01 68.96 114.86 68.96 113.64 65.41 113.79 65.41"/><polygon class="cls-38" points="113.94 65.41 115.16 68.96 115.01 68.96 113.79 65.41 113.94 65.41"/><polygon class="cls-39" points="114.09 65.41 115.32 68.96 115.16 68.96 113.94 65.41 114.09 65.41"/><polygon class="cls-40" points="114.24 65.41 115.47 68.96 115.32 68.96 114.09 65.41 114.24 65.41"/><polygon class="cls-41" points="114.39 65.41 115.62 68.96 115.47 68.96 114.24 65.41 114.39 65.41"/><polygon class="cls-42" points="114.54 65.41 115.77 68.96 115.62 68.96 114.39 65.41 114.54 65.41"/><polygon class="cls-43" points="114.69 65.41 115.92 68.96 115.77 68.96 114.54 65.41 114.69 65.41"/><polygon class="cls-43" points="114.85 65.41 115.94 68.59 115.94 68.96 115.92 68.96 114.69 65.41 114.85 65.41"/><polygon class="cls-43" points="115.94 68.59 114.85 65.41 115.94 65.41 115.94 68.59"/></g><path class="cls-44" d="M113.35,68.27a1.08,1.08,0,0,0,.13-1,1.68,1.68,0,0,0-.92-.84l-.16-.07h-.05l-.19.07a.6.6,0,0,0-.21.14h0a2,2,0,0,1,0,.69,2,2,0,0,1,.09.49h0a2.27,2.27,0,0,1,.76.65.72.72,0,0,0,.37.27.8.8,0,0,1,.09-.31Z"/><path class="cls-45" d="M113.47,67.46A1.76,1.76,0,0,1,113,67a1.92,1.92,0,0,0-.43-.32,1.68,1.68,0,0,1-.48-.36.71.71,0,0,1-.13-.31.63.63,0,0,1,.33-.2h.19a2,2,0,0,1,.49,0h.49a3.87,3.87,0,0,0,.59-.25.84.84,0,0,1,.4-.14.53.53,0,0,1,.5.24c.09.11.15.42.25.54a1,1,0,0,0,.13.16l.23.18a1.08,1.08,0,0,1,.26.3.5.5,0,0,1,.09.23.41.41,0,0,1-.22.33.42.42,0,0,1-.31.06l-.34,0-.38-.06a1.09,1.09,0,0,0-.44,0c-.06,0-.12,0-.18.06a.71.71,0,0,0-.32.07A.46.46,0,0,1,113.47,67.46Z"/><path class="cls-46" d="M113.22,66.52h.49a2.85,2.85,0,0,1,.51.2h.09a.21.21,0,0,0,.15-.07c.06-.06.09-.15.15-.2a.16.16,0,0,1,.08-.06.74.74,0,0,1,.51,0c.22.09.87.52.5.84a.56.56,0,0,1-.4.1,2.79,2.79,0,0,0-1.22-.06,1.19,1.19,0,0,1-.32.1.71.71,0,0,1-.32-.07c-.13,0-.15-.12-.21-.24a.58.58,0,0,0-.37-.28h-.06A4.06,4.06,0,0,1,113.22,66.52Z"/><path class="cls-46" d="M113.52,66.42a.86.86,0,0,0-.39,0,1.58,1.58,0,0,0-.24.15c-.06,0-.15.12-.21.09s-.06,0-.08-.09a.7.7,0,0,0-.49-.29h-.06a.37.37,0,0,1,.26-.31.91.91,0,0,1,.43-.07,2.18,2.18,0,0,1,.51.09,1,1,0,0,0,.67-.15,5.7,5.7,0,0,1,.54-.3h.12a.59.59,0,0,1,.51.42v.32a.16.16,0,0,0,.06.11.75.75,0,0,0-.26,0,.28.28,0,0,0-.18,0,1.71,1.71,0,0,0-.3.09.35.35,0,0,1-.29-.07.65.65,0,0,0-.34,0A1.1,1.1,0,0,1,113.52,66.42Z"/><path class="cls-2" d="M113.48,66a4.68,4.68,0,0,0,.48-.18,1.7,1.7,0,0,1,.53-.24.39.39,0,0,1,.44.23c0,.11.07.21.11.32l-.45.06a1,1,0,0,1-.24,0,.33.33,0,0,1-.23-.06.58.58,0,0,0-.26.06,1.48,1.48,0,0,1-.42,0h-.18a1.52,1.52,0,0,0-.28.09.85.85,0,0,0-.22.09h0a.47.47,0,0,1-.13-.11.2.2,0,0,0-.1-.08.88.88,0,0,1-.21-.12c-.07-.08.09-.19.16-.22h.14a1.19,1.19,0,0,1,.46,0A.87.87,0,0,0,113.48,66Z"/><path class="cls-2" d="M115,66.45a.77.77,0,0,1,.48.2c.1.07.32.21.26.37s-.4.15-.57.11a1.8,1.8,0,0,0-1,.07.68.68,0,0,1-.42,0,.38.38,0,0,1-.23-.11l-.09-.17a.33.33,0,0,0-.16-.15c-.06,0-.14-.06-.13-.13a.13.13,0,0,1,.12-.1,1,1,0,0,1,.67.06,2,2,0,0,0,.4.16.54.54,0,0,0,.42-.21A.33.33,0,0,1,115,66.45Z"/><path class="cls-47" d="M115.16,68.17a.68.68,0,0,0-.14.25.44.44,0,0,1-.11.24,2.89,2.89,0,0,0-.72,0h0c0-.14-.13-.12-.24,0a1.12,1.12,0,0,0-.25.28,1.21,1.21,0,0,1-.46.12h0a.25.25,0,0,1,.05-.18,1.14,1.14,0,0,1,.1-.19,1,1,0,0,0,.18-.45.78.78,0,0,1,.16-.47l.09-.07a1.34,1.34,0,0,1,.26-.09,1.58,1.58,0,0,1,.57-.08,2,2,0,0,1,.42.07,1,1,0,0,1,.37.13c.09,0,.06.16,0,.24A1.42,1.42,0,0,1,115.16,68.17Z"/><path class="cls-16" d="M114,68.69l-.15.07-.13.07a.5.5,0,0,1,.22-.13Z"/><g class="cls-67"><polygon class="cls-49" points="108.79 69.42 108.85 69.6 108.79 69.6 108.79 69.42"/><polygon class="cls-15" points="108.79 68.97 109 69.6 108.85 69.6 108.79 69.42 108.79 68.97"/><polygon class="cls-16" points="108.79 68.52 109.16 69.6 109 69.6 108.79 68.97 108.79 68.52"/><polygon class="cls-17" points="108.79 68.07 109.31 69.6 109.16 69.6 108.79 68.52 108.79 68.07"/><polygon class="cls-18" points="108.79 67.61 109.47 69.6 109.31 69.6 108.79 68.07 108.79 67.61"/><polygon class="cls-19" points="108.79 67.16 109.62 69.6 109.47 69.6 108.79 67.61 108.79 67.16"/><polygon class="cls-20" points="108.79 66.71 109.78 69.6 109.62 69.6 108.79 67.16 108.79 66.71"/><polygon class="cls-21" points="108.79 66.26 109.93 69.6 109.78 69.6 108.79 66.71 108.79 66.26"/><polygon class="cls-22" points="108.84 65.95 110.09 69.6 109.93 69.6 108.79 66.26 108.79 65.95 108.84 65.95"/><polygon class="cls-23" points="108.99 65.95 110.25 69.6 110.09 69.6 108.84 65.95 108.99 65.95"/><polygon class="cls-24" points="109.15 65.95 110.4 69.6 110.25 69.6 108.99 65.95 109.15 65.95"/><polygon class="cls-25" points="109.3 65.95 110.56 69.6 110.4 69.6 109.15 65.95 109.3 65.95"/><polygon class="cls-26" points="109.46 65.95 110.71 69.6 110.56 69.6 109.3 65.95 109.46 65.95"/><polygon class="cls-27" points="109.61 65.95 110.87 69.6 110.71 69.6 109.46 65.95 109.61 65.95"/><polygon class="cls-28" points="109.77 65.95 111.02 69.6 110.87 69.6 109.61 65.95 109.77 65.95"/><polygon class="cls-29" points="109.93 65.95 111.18 69.6 111.02 69.6 109.77 65.95 109.93 65.95"/><polygon class="cls-30" points="110.08 65.95 111.33 69.6 111.18 69.6 109.93 65.95 110.08 65.95"/><polygon class="cls-31" points="110.24 65.95 111.49 69.6 111.33 69.6 110.08 65.95 110.24 65.95"/><polygon class="cls-32" points="110.39 65.95 111.65 69.6 111.49 69.6 110.24 65.95 110.39 65.95"/><polygon class="cls-33" points="110.55 65.95 111.8 69.6 111.65 69.6 110.39 65.95 110.55 65.95"/><polygon class="cls-34" points="110.7 65.95 111.96 69.6 111.8 69.6 110.55 65.95 110.7 65.95"/><polygon class="cls-35" points="110.86 65.95 112.11 69.6 111.96 69.6 110.7 65.95 110.86 65.95"/><polygon class="cls-36" points="111.01 65.95 112.27 69.6 112.11 69.6 110.86 65.95 111.01 65.95"/><polygon class="cls-37" points="111.17 65.95 112.42 69.6 112.27 69.6 111.01 65.95 111.17 65.95"/><polygon class="cls-38" points="111.32 65.95 112.58 69.6 112.42 69.6 111.17 65.95 111.32 65.95"/><polygon class="cls-39" points="111.48 65.95 112.74 69.6 112.58 69.6 111.32 65.95 111.48 65.95"/><polygon class="cls-40" points="111.64 65.95 112.89 69.6 112.74 69.6 111.48 65.95 111.64 65.95"/><polygon class="cls-41" points="111.79 65.95 113.05 69.6 112.89 69.6 111.64 65.95 111.79 65.95"/><polygon class="cls-42" points="111.95 65.95 113.2 69.6 113.05 69.6 111.79 65.95 111.95 65.95"/><polygon class="cls-43" points="112.1 65.95 113.34 69.55 113.34 69.6 113.2 69.6 111.95 65.95 112.1 65.95"/><polygon class="cls-43" points="112.26 65.95 113.34 69.1 113.34 69.55 112.1 65.95 112.26 65.95"/><polygon class="cls-43" points="113.34 69.1 112.26 65.95 113.34 65.95 113.34 69.1"/></g><path class="cls-44" d="M110.09,69.43h0a.93.93,0,0,1,.11-.49,2.33,2.33,0,0,1,.27-.35,1.05,1.05,0,0,0,.12-1,1.62,1.62,0,0,0-.92-.84l-.15-.07h-.08l-.19.07a.57.57,0,0,0-.21.13h0v.05h0a1.17,1.17,0,0,0-.1.41,1.6,1.6,0,0,0,0,.31,3.57,3.57,0,0,1,.1.57,1.11,1.11,0,0,0,.25.32,2.09,2.09,0,0,1,.67.62A.68.68,0,0,0,110.09,69.43Z"/><path class="cls-45" d="M110.77,68.12a1.92,1.92,0,0,1-.56-.36,2.14,2.14,0,0,0-.53-.25,2,2,0,0,1-.57-.29.65.65,0,0,1-.21-.28.55.55,0,0,1,.31-.25l.19-.07a2.35,2.35,0,0,1,.53,0l.52-.08a5.45,5.45,0,0,0,.58-.33.86.86,0,0,1,.39-.2.65.65,0,0,1,.58.17c.12.1.25.39.37.5l.18.14.27.15a1.2,1.2,0,0,1,.34.25.51.51,0,0,1,.15.21.34.34,0,0,1-.17.36.51.51,0,0,1-.31.11H112a1.09,1.09,0,0,0-.47.08l-.18.09-.32.1A.61.61,0,0,1,110.77,68.12Z"/><path class="cls-46" d="M110.35,67.25a.9.9,0,0,1,.27-.07,1,1,0,0,1,.25,0,2.85,2.85,0,0,1,.58.12.17.17,0,0,0,.1,0,.21.21,0,0,0,.15-.09,1.51,1.51,0,0,1,.11-.22.27.27,0,0,1,.08-.07.83.83,0,0,1,.54,0c.26.06,1,.39.71.76a.61.61,0,0,1-.41.15,3.17,3.17,0,0,0-1.3.12l-.32.13a1.09,1.09,0,0,1-.36,0c-.14,0-.18-.11-.26-.22a.72.72,0,0,0-.46-.22H110S110.24,67.28,110.35,67.25Z"/><path class="cls-46" d="M110.6,67.12a.93.93,0,0,0-.4.09,1.3,1.3,0,0,0-.23.18s-.13.14-.2.12a.21.21,0,0,1-.11-.08.87.87,0,0,0-.57-.22H109c0-.15.1-.27.21-.34a1,1,0,0,1,.45-.13,2.62,2.62,0,0,1,.56,0,1.07,1.07,0,0,0,.69-.24,3,3,0,0,1,.51-.37h.12a.68.68,0,0,1,.63.34l.08.16a1.09,1.09,0,0,0,.08.15s.07,0,.09.09a1.31,1.31,0,0,0-.28,0,.67.67,0,0,0-.2,0l-.3.13h-.32a.66.66,0,0,0-.36.08A1.58,1.58,0,0,1,110.6,67.12Z"/><path class="cls-2" d="M110.48,66.71a4.16,4.16,0,0,0,.47-.24,1.79,1.79,0,0,1,.51-.31.46.46,0,0,1,.52.16c.06.1.12.21.19.31a1.91,1.91,0,0,0-.47.12l-.25.08h-.26a.62.62,0,0,0-.26.09,1.52,1.52,0,0,1-.43.12.67.67,0,0,0-.2,0,1.39,1.39,0,0,0-.28.12,1.13,1.13,0,0,0-.21.12h0l-.15-.09a.24.24,0,0,0-.13-.07l-.24-.09c-.11-.07,0-.2.12-.24h.14a1.35,1.35,0,0,1,.49,0A1.11,1.11,0,0,0,110.48,66.71Z"/><path class="cls-2" d="M112.17,66.93a1,1,0,0,1,.55.13c.12.06.38.16.35.32s-.39.21-.58.2a2.09,2.09,0,0,0-1.1.21.74.74,0,0,1-.44.11.5.5,0,0,1-.26-.08l-.13-.15a.53.53,0,0,0-.2-.13c-.07,0-.17,0-.17-.11s0-.09.1-.11a1.14,1.14,0,0,1,.73,0,2.52,2.52,0,0,0,.46.1.48.48,0,0,0,.4-.28A.42.42,0,0,1,112.17,66.93Z"/><path class="cls-47" d="M112.61,68.87a.42.42,0,0,1-.06.21,2.48,2.48,0,0,1-.76.18v-.11a.2.2,0,0,0-.27,0l-.1.12a1.06,1.06,0,0,0-.46.1h-.08l.06-.13a1.15,1.15,0,0,0,.1-.48.66.66,0,0,1,.07-.48.2.2,0,0,1,.08-.08.88.88,0,0,1,.26-.12,1.34,1.34,0,0,1,.58-.17h.47a1.2,1.2,0,0,1,.42.08c.09,0,.09.15.06.23a1.36,1.36,0,0,1-.24.35A.54.54,0,0,0,112.61,68.87Z"/><path class="cls-50" d="M109.78,69.79a.6.6,0,0,0,0-.19v-.49a1.52,1.52,0,0,1,.18-.67.84.84,0,0,0,.13-.29.36.36,0,0,0-.16-.22,1.38,1.38,0,0,1-.24-.3.3.3,0,0,0-.3-.08H109a3.18,3.18,0,0,0-.52.1l-.34.09a.87.87,0,0,1-.47-.1,1.06,1.06,0,0,0-.45.16.39.39,0,0,0-.18.38,4.81,4.81,0,0,1-.08.65.86.86,0,0,0-.06.23.6.6,0,0,1,0,.19v.21a1.51,1.51,0,0,0,.39.8.55.55,0,0,0,.49.22H108a1.44,1.44,0,0,1,.71-.09,1.83,1.83,0,0,0,.66,0l.3-.14a.56.56,0,0,0,.22-.24A.36.36,0,0,0,109.78,69.79Z"/><path class="cls-51" d="M107.82,69.92a4.05,4.05,0,0,1,.28-1.14.19.19,0,0,0,0-.15.2.2,0,0,0,0-.11,1.79,1.79,0,0,0-.58-.64.66.66,0,0,0-.24-.11l-.08,0a.39.39,0,0,0-.18.38,4.81,4.81,0,0,1-.08.65.86.86,0,0,0-.06.23.6.6,0,0,1,0,.19v.21a1.51,1.51,0,0,0,.39.8.55.55,0,0,0,.49.22h.08A3.71,3.71,0,0,0,107.82,69.92Z"/><path class="cls-45" d="M110,68.12A.24.24,0,0,0,110,68a2.45,2.45,0,0,0-1-.83c-.07,0-.14-.09-.23-.05a.28.28,0,0,0-.09.07,2.23,2.23,0,0,1-1.15.42.53.53,0,0,0-.41.28c0,.09,0,.1.09.11a.34.34,0,0,1,.25.11c.13.11.21.3.36.39a2.06,2.06,0,0,0,.41.23c.23.05.35-.06.54-.15s.27,0,.4-.09a1.55,1.55,0,0,1,.43,0C109.77,68.45,110.07,68.33,110,68.12Z"/><path class="cls-50" d="M107.62,70a6,6,0,0,1,0-.85c0-.16.06-.63-.22-.39a1,1,0,0,0-.25.25c0,.09,0,.18-.17.18h-.17a.82.82,0,0,0-.42.15c-.07,0-.15.12-.23.1s-.14-.12-.22-.08-.15.33-.17.4a6.55,6.55,0,0,0-.21.9.42.42,0,0,0,.07.31l.41.18.42.22a1,1,0,0,0,.48,0,1.35,1.35,0,0,0,.49,0,.63.63,0,0,0,.33-.65,1.18,1.18,0,0,0-.1-.3A2,2,0,0,1,107.62,70Z"/><path class="cls-13" d="M117,65.4h0a.7.7,0,0,0-.14-.37L116.12,64a42.48,42.48,0,0,0-8.59,3.51l-1,.83a4.84,4.84,0,0,0-1.12,1,3.09,3.09,0,0,0-.6,1.43,1.13,1.13,0,0,0,.06.36A2.13,2.13,0,0,1,105,72.2a1.5,1.5,0,0,0,.24.89,8.83,8.83,0,0,0,1.11,1.9,11.91,11.91,0,0,0,3,2.75,8.53,8.53,0,0,0,1.06.5,23,23,0,0,0,4.16,1.11c1.65.32,3.31.55,5,.73.91.1,1.81.18,2.72.25H123a2.22,2.22,0,0,0,.63,0,2,2,0,0,0,.8-.48c.61-.49,1.35-.47,2-.84a3.11,3.11,0,0,0,1-1.3,1.28,1.28,0,0,0,.16-.6.44.44,0,0,0-.31-.47c-.22,0-.42.26-.72-.08-.16-.17-.31-.36-.47-.54L125,74.75l-2.55-3-4.59-5.38Z"/><path class="cls-45" d="M107.66,68.81h0a1.59,1.59,0,0,0-.13-.22c-.1-.13-.23-.32-.41-.27s-.26.18-.4.28-.29.09-.43.18a.94.94,0,0,0-.36.51.2.2,0,0,0,0,.11s.06.08.1.11a.52.52,0,0,0,.57-.12.24.24,0,0,1,.08-.09H107a.36.36,0,0,0,.17-.07C107.25,69.12,107.47,68.56,107.66,68.81Z"/><path class="cls-52" d="M105.63,71.41c0-.28-.07-.59-.3-.67h0c-.28-.09-.41.47-.46.64-.13.37-.23.76-.34,1.13a2.34,2.34,0,0,0-.08,1.41,1.75,1.75,0,0,0,.18.29v.05c.13,0,.23-.25.26-.33a10.21,10.21,0,0,0,.46-1.15,5.92,5.92,0,0,0,.27-1A2.32,2.32,0,0,0,105.63,71.41Z"/><path class="cls-68" d="M104.41,73.81a3.6,3.6,0,0,1,.12-.8c.06-.26.18-.53.27-.8a3.72,3.72,0,0,1,.49-1.22.45.45,0,0,1,.14-.12h.07a.26.26,0,0,0-.17-.14h0c-.28-.09-.41.47-.46.64-.13.37-.23.76-.34,1.13A2.65,2.65,0,0,0,104.41,73.81Z"/><path class="cls-54" d="M106,72.12a1.46,1.46,0,0,1,.07,1.24c-.09.34-.19.68-.3,1s-.28.66-.43,1c-.06.13-.17.42-.36.29a.83.83,0,0,1-.27-.55,2.28,2.28,0,0,1-.09-.51,1.86,1.86,0,0,1,.09-.47,15.55,15.55,0,0,1,.68-1.63C105.41,72.3,105.72,71.69,106,72.12Z"/><path class="cls-53" d="M106,72.26h.08c0-.06-.06-.13-.1-.2-.24-.38-.55.23-.64.42a16.51,16.51,0,0,0-.65,1.56,1.86,1.86,0,0,0-.09.47,2.28,2.28,0,0,0,.09.51v.1a7.61,7.61,0,0,1,1-2.69C105.75,72.31,105.83,72.22,106,72.26Z"/><path class="cls-56" d="M122.66,82a2.73,2.73,0,0,0-.56.15,1.32,1.32,0,0,1-.83.1,1.22,1.22,0,0,1-.49-.44,1.4,1.4,0,0,1-.27-.61,1.68,1.68,0,0,1,.17-.59,2.45,2.45,0,0,1,.34-.5,4.44,4.44,0,0,1,.8-.82,2.39,2.39,0,0,1,.91-.43,1,1,0,0,1,.53,0c.3.08.71.25.8.58a.75.75,0,0,1,0,.42c-.09.27-.26.53-.33.75a3.11,3.11,0,0,0-.11.68c0,.26-.14.72-.46.75h-.23Z"/><path class="cls-57" d="M121.53,80a3.73,3.73,0,0,1,.28-.38,1.91,1.91,0,0,1,1.64-.75l-.19-.06a1,1,0,0,0-.53,0,2.39,2.39,0,0,0-.91.43,4.44,4.44,0,0,0-.8.82,2.45,2.45,0,0,0-.34.5,1.68,1.68,0,0,0-.17.59,1.4,1.4,0,0,0,.27.61L121,82v-.09a2.22,2.22,0,0,1,0-.63A4.05,4.05,0,0,1,121.53,80Z"/><path class="cls-56" d="M120.69,78.8c.31,0,.66.22.54.58s-.25.7-.34,1.06-.17.73-.26,1.09a.44.44,0,0,1-.43.39c-.21,0-.2-.07-.31-.08h-.25a1.56,1.56,0,0,0-.68,0,1.33,1.33,0,0,1-.9-.08.72.72,0,0,1-.42-.72,1.68,1.68,0,0,1,.34-.81,3.79,3.79,0,0,1,.68-.86,2.68,2.68,0,0,1,.49-.4,1.3,1.3,0,0,1,.88-.2Z"/><path class="cls-57" d="M121.21,79.12a.57.57,0,0,0-.52-.27H120a1.3,1.3,0,0,0-.88.2,2.68,2.68,0,0,0-.49.4,3.79,3.79,0,0,0-.68.86,1.68,1.68,0,0,0-.34.81.72.72,0,0,0,.42.72h0c.07-.32,0-.67.06-1a2.53,2.53,0,0,1,.23-.72,3.26,3.26,0,0,1,1-1.12c.22-.16.48-.09.74-.1a2.83,2.83,0,0,1,1,.16Z"/><path class="cls-56" d="M116.55,78.21a1.63,1.63,0,0,0-.72.3,3.14,3.14,0,0,0-.51.52,4.12,4.12,0,0,0-.69,1.25,1,1,0,0,0-.08.3,1.09,1.09,0,0,0,.26.66.85.85,0,0,0,.6.44,3.57,3.57,0,0,0,.8,0c.41,0,1,.31,1.28-.11a.86.86,0,0,0,.15-.43c0-.15.06-.3.1-.44a8.19,8.19,0,0,1,.23-.85,1.72,1.72,0,0,0,.07-.21,1.21,1.21,0,0,0,.15-.83.67.67,0,0,0-.24-.39.76.76,0,0,0-.23-.13,1.47,1.47,0,0,0-.47-.17A2.8,2.8,0,0,0,116.55,78.21Z"/><path class="cls-58" d="M118,78.39a.76.76,0,0,0-.23-.13,1.59,1.59,0,0,0-.47-.14,2.38,2.38,0,0,0-.7.07,1.63,1.63,0,0,0-.72.3,3.14,3.14,0,0,0-.51.52,4.12,4.12,0,0,0-.69,1.25,1,1,0,0,0-.08.3,1.09,1.09,0,0,0,.26.66l.11.16a10.68,10.68,0,0,1,.49-1.76,2.54,2.54,0,0,1,1.07-1.24,2.1,2.1,0,0,1,1.48,0Z"/><path class="cls-59" d="M113,78.06l.16-.12a1.58,1.58,0,0,1,1-.33,1.19,1.19,0,0,1,1,.41,1.06,1.06,0,0,1,0,.82,6.79,6.79,0,0,1-.32,1.15,4.48,4.48,0,0,1-.29.58c-.07.1-.18.09-.29.07l-.4-.07a5.57,5.57,0,0,1-1,0,1.47,1.47,0,0,1-.74-.56.53.53,0,0,1,0-.46c.06-.18.17-.34.22-.51a3.12,3.12,0,0,1,.15-.43A1.68,1.68,0,0,1,113,78.06Z"/><path class="cls-60" d="M112.48,77.93a1.4,1.4,0,0,0,0-.29c-.1-.42-.37-.76-.83-.62a1.22,1.22,0,0,0-.79.56c-.21.33-.39.68-.57,1a1.23,1.23,0,0,0-.06,1.09l.13.18.2.25c.27.34.85.09,1.17,0L112,80a1,1,0,0,0,.3-.47c0-.16.13-.3.16-.46A3.39,3.39,0,0,0,112.48,77.93Z"/><path class="cls-61" d="M111.6,77a1.22,1.22,0,0,0-.79.56c-.21.33-.39.68-.57,1a1.23,1.23,0,0,0-.06,1.09l.13.18h0a1.82,1.82,0,0,1,0-.33,4.62,4.62,0,0,1,.91-2.09,1.13,1.13,0,0,1,.55-.46h.14A.57.57,0,0,0,111.6,77Z"/><path class="cls-62" d="M105.81,74.12a4.36,4.36,0,0,1,.48-.65c.13-.14.32-.36.54-.3a.7.7,0,0,1,.44.43,1.89,1.89,0,0,1,0,1,8.42,8.42,0,0,1-.36,1.18,9,9,0,0,1-.56,1.06h0c-.14.16-.36,0-.5-.08l-.15-.19c-.12-.16-.24-.33-.37-.49a1,1,0,0,1-.2-.49.81.81,0,0,1,0-.22.91.91,0,0,1,.15-.37A5.55,5.55,0,0,1,105.81,74.12Z"/><path class="cls-63" d="M106.83,73.12c-.22-.06-.41.16-.54.3a4.36,4.36,0,0,0-.48.65,5.19,5.19,0,0,0-.5,1c-.06.12-.1.24-.15.37a.81.81,0,0,0,0,.22.73.73,0,0,0,.07.24c.16-.36.31-.75.49-1.1a13.63,13.63,0,0,1,.79-1.19.9.9,0,0,1,.28-.3.5.5,0,0,1,.34,0A.51.51,0,0,0,106.83,73.12Z"/><path class="cls-64" d="M106.46,77.54a5.87,5.87,0,0,0,.72.69l.2.17c.18.11.45.21.61,0a2.34,2.34,0,0,0,.36-.68c.14-.36.28-.72.39-1.08s.15-.42.2-.64a1.14,1.14,0,0,0,0-.73c-.14-.35-.58-.85-1-.72a1,1,0,0,0-.45.42c-.13.2-.28.38-.4.58a10.57,10.57,0,0,0-.74,1.21.64.64,0,0,0-.11.36A1,1,0,0,0,106.46,77.54Z"/><path class="cls-63" d="M107.9,74.55a1,1,0,0,0-.45.42c-.13.2-.28.38-.4.58a10.3,10.3,0,0,0-.7,1.21.64.64,0,0,0-.11.36,1.11,1.11,0,0,0,.16.39,2.41,2.41,0,0,1,.16-.54,9.46,9.46,0,0,1,.79-1.43c.21-.29.59-1,1-.87h0A.61.61,0,0,0,107.9,74.55Z"/><path class="cls-65" d="M110.43,76.26c-.23-.18-.65-.38-.94-.22a1.13,1.13,0,0,0-.3.24,8.16,8.16,0,0,0-.74,1.16,4.93,4.93,0,0,0-.4.91.54.54,0,0,0,0,.18.77.77,0,0,0,.14.32,1,1,0,0,0,.27.23l.56.32.23.12a.63.63,0,0,0,.66-.08h0v0a2,2,0,0,0,.23-.5c.08-.24.2-.47.27-.71.15-.55.48-1.29.1-1.82A.39.39,0,0,0,110.43,76.26Z"/><path class="cls-63" d="M109.8,76.17a.49.49,0,0,1,.41,0,.74.74,0,0,0-.72-.08,1.13,1.13,0,0,0-.3.24,8.16,8.16,0,0,0-.74,1.16,4.93,4.93,0,0,0-.4.91.54.54,0,0,0,0,.18.77.77,0,0,0,.14.32h0a7.41,7.41,0,0,1,1.16-2.23A1.54,1.54,0,0,1,109.8,76.17Z"/><path class="cls-2" d="M107.43,68.75a.17.17,0,0,0,0-.21.11.11,0,0,0-.08-.13.34.34,0,0,0-.15-.06.26.26,0,0,0-.2.1,1.54,1.54,0,0,1-.08.19l-.06.08a.17.17,0,0,0,0,.1.3.3,0,0,0,.08.08h.17c.08,0,.11-.09.16-.13S107.35,68.8,107.43,68.75Z"/><path class="cls-2" d="M106.77,69V69c0-.13.1-.17.19-.25a.31.31,0,0,0,.09-.22h0a1.51,1.51,0,0,1-.28.22.85.85,0,0,1-.22.09.32.32,0,0,0-.2.08.42.42,0,0,0-.11.15l-.06.17a.25.25,0,0,0,0,.17.14.14,0,0,0,.16.05l.1-.08a.38.38,0,0,1,.12-.1.11.11,0,0,1,.08,0h.06A.48.48,0,0,0,106.77,69Z"/><path class="cls-2" d="M109.86,68.12a.29.29,0,0,0-.07-.25.74.74,0,0,0-.2-.23.22.22,0,0,1-.22-.11c-.07-.11-.37-.38-.58-.35a1.1,1.1,0,0,0-.49.33h0v.1s.06.08,0,.11-.07,0-.11,0a.25.25,0,0,1-.11-.12.08.08,0,0,0,0-.07.11.11,0,0,0-.08,0,1.15,1.15,0,0,0-.37,0,.53.53,0,0,0-.27.08.27.27,0,0,0-.09.12c0,.15.13.17.22.22a1,1,0,0,1,.31.29,1.49,1.49,0,0,0,.27.23.38.38,0,0,0,.33,0h.15a.34.34,0,0,0,.09-.43s-.07-.07,0-.11a.06.06,0,0,1,.06,0H109a.14.14,0,0,1,0,.09v.1c0,.09.1.11.17.15s0,0,.1,0h.29C109.69,68.29,109.83,68.26,109.86,68.12Z"/><path class="cls-11" d="M126.91,76.68a2,2,0,0,1-.33-.39c-2.49-4.44-.68-6-3.21-8.94-1.35-1.58-3.35-1.84-5.92-3-1.41-.66-5.14.13-8,1.85l-1.84,1.49a1.94,1.94,0,0,0-.23.33h0a1.51,1.51,0,0,0-.11.22c-.93,2.45,2,5.55,3.84,6.63,2.55,1.52,10.45,1.89,13.82,2C125.35,76.88,126.84,77,126.91,76.68Z"/><path class="cls-13" d="M125.35,73.32c-.28,0-.58.09-1,.12a12.29,12.29,0,0,0-1.6.21,25.55,25.55,0,0,1-3.5.15h-.9a17.49,17.49,0,0,1-5.55-1,8.49,8.49,0,0,1-2.38-1.39,7.44,7.44,0,0,1-2.59-3.65l-.06-.28-.18.15a1.94,1.94,0,0,0-.23.33h0a1.51,1.51,0,0,0-.11.22,3.1,3.1,0,0,0-.12,1.6l.44.6a12.84,12.84,0,0,0,2.26,2.34,11.07,11.07,0,0,0,3.93,1.84,32.64,32.64,0,0,0,9.61.79,12.83,12.83,0,0,0,2.77,0A14,14,0,0,1,125.35,73.32Z"/><path class="cls-11" d="M112.17,63a10,10,0,0,0-1.66,1,15.16,15.16,0,0,0-3.23,2.46,13.38,13.38,0,0,0-2.49,4,.6.6,0,0,1,.85,0v0a1.51,1.51,0,0,1,.18,1v.1a.18.18,0,0,0,.09.06c.22.09.4.15.48.39s0,.39.09.59.43.14.56.2a1,1,0,0,1,.5.39.92.92,0,0,1,.14.32c.06.16,0,.36.13.5a.33.33,0,0,0,.27.15.43.43,0,0,0,.16,0,.89.89,0,0,1,.36.11,1.41,1.41,0,0,1,.86,1.06.39.39,0,0,0,.06.21c.09.1.24,0,.36.07s.25,0,.35.06a.82.82,0,0,1,.41.3c.11.16.16.34.27.5a.41.41,0,0,0,.48.19,1,1,0,0,1,.58-.1,1.35,1.35,0,0,1,1,.66.49.49,0,0,0,.11.14.39.39,0,0,0,.3,0,1.74,1.74,0,0,1,2.07.51.77.77,0,0,0,.18.18.53.53,0,0,0,.25,0,5.53,5.53,0,0,1,1.27-.27,2.19,2.19,0,0,1,1.55.82c0,.05.1.1.16.1a.12.12,0,0,0,.13-.07,1.7,1.7,0,0,1,1.14-.59,2.1,2.1,0,0,1,1.41.57c.06,0,.12.11.2.1a.2.2,0,0,0,.11,0,4,4,0,0,1,1-.52,1.64,1.64,0,0,1,1.34.41,2.21,2.21,0,0,0,1.26.44,2,2,0,0,0,1.36-.62,2.16,2.16,0,0,0,.27-.25,2.43,2.43,0,0,0,.29-.49,2.57,2.57,0,0,0,.23-.6c.19-1-1.15-.81-1.78-.83l-1.4,0c-1.43-.06-2.87-.15-4.3-.29a43.24,43.24,0,0,1-4.37-.59,10.46,10.46,0,0,1-3.17-1c-1.81-1.08-4.77-4.18-3.84-6.63l.1-.22h0a5.91,5.91,0,0,1,2.08-1.83c.57-.29,1.11-.62,1.69-.89a30.62,30.62,0,0,1,3.2-1.3l1-.34a1.59,1.59,0,0,1,.56-.14c.17,0,.28.17.35.31a.58.58,0,0,0-.09-.52l-.28-.36a.89.89,0,0,0-.28-.23,2.13,2.13,0,0,0-.5-.18,2.3,2.3,0,0,0-.64-.09,1.51,1.51,0,0,0-.56.07A14.43,14.43,0,0,0,112.17,63Z"/><path class="cls-13" d="M107.78,68.12c-.57,2,1.37,4.57,3.33,4.92-.2,0-.5-.48-.63-.63s-.36-.46-.54-.69c-.32-.43-.56-.92-.85-1.38-.8-1.28.53-2.82,1.53-3.54a14.9,14.9,0,0,1,4.9-2.14c.29-.08.59-.11.88-.16a2.67,2.67,0,0,1,.56-.06,1.21,1.21,0,0,0,.38,0c.23-.09.29-.54.35-.74a2.6,2.6,0,0,0,.11-.83c0-.45-.6-.51-.94-.39a11,11,0,0,1-1.29.32c-.64.14-1.22.45-1.86.53a4.73,4.73,0,0,0-1.82.61,9.24,9.24,0,0,0-1.1.79,10.87,10.87,0,0,0-2.63,2.61A3.13,3.13,0,0,0,107.78,68.12Z"/><path class="cls-69" d="M108.1,71.85a13.13,13.13,0,0,0,2.25,2.34A9,9,0,0,0,114.27,76a40.34,40.34,0,0,0,9.62.83,12.18,12.18,0,0,0,2.83,0c.38-.07,1-.1.92-.59a1.58,1.58,0,0,0-.69-1.15c-.76-.59-1.18-.31-2-.24a12.76,12.76,0,0,0-1.6.21,25.55,25.55,0,0,1-3.5.15h-.9a17,17,0,0,1-5.56-1A8.46,8.46,0,0,1,111,72.85a7.5,7.5,0,0,1-2.61-3.68c-.41-1.59.91-3.28,2.21-4,.53-.3,1-.65,1.58-.91a12,12,0,0,1,1.88-.74,8.36,8.36,0,0,1,1.9-.46h1.49a.66.66,0,0,0,.28,0c.2-.12,0-.4,0-.52a1.53,1.53,0,0,0-.34-.42A1.29,1.29,0,0,0,117,62a2.34,2.34,0,0,0-1.22-.23c-.5.11-3.5,1.23-4.54,1.68-2.18.94-5.28,3.19-4.74,5.64a5.91,5.91,0,0,0,.93,1.86C107.64,71.21,107.86,71.53,108.1,71.85Z"/><path class="cls-58" d="M114.7,77.7a1.65,1.65,0,0,0-1.53.24l-.16.12a1.63,1.63,0,0,0-.42.52,3.12,3.12,0,0,0-.15.43c0,.17-.16.33-.22.51a.53.53,0,0,0,0,.46,1.33,1.33,0,0,0,.35.36,2.61,2.61,0,0,1,.1-.57,4,4,0,0,1,.18-.7A2.2,2.2,0,0,1,114.7,77.7Z"/><path class="cls-32" d="M115,78.75a.74.74,0,0,0,0-.68.54.54,0,0,0-.28-.19.15.15,0,0,0-.13,0,.28.28,0,0,0-.21.2,5.51,5.51,0,0,0-.07,1.15A3.28,3.28,0,0,1,114,80.5a.38.38,0,0,0,.5-.21h0A10.32,10.32,0,0,0,115,78.75Z"/><path class="cls-32" d="M113.87,82.18l.06-.12a2.84,2.84,0,0,0,.38-1,.23.23,0,0,0,0-.2.26.26,0,0,0-.27,0,1.14,1.14,0,0,1-.26.09l-.3,0a.24.24,0,0,0-.27.1.43.43,0,0,0,0,.16,10.93,10.93,0,0,1-.17,1.28,2.27,2.27,0,0,1-.6,1.48l.18.06c.09,0,.14,0,.22-.07a.66.66,0,0,0,.36-.16,2.27,2.27,0,0,0,.29-.4A10,10,0,0,1,113.87,82.18Z"/><path class="cls-32" d="M117.5,80.54a5.81,5.81,0,0,1,.37-1.16.77.77,0,0,0,.09-.69l-.06-.07a.79.79,0,0,0-.86-.06.2.2,0,0,0-.13.14A.34.34,0,0,0,117,79a1.63,1.63,0,0,1,.07,1,2.24,2.24,0,0,1-.57,1.41l.48.1h.11a.16.16,0,0,0,.08-.06A1.91,1.91,0,0,0,117.5,80.54Z"/><path class="cls-32" d="M116.92,83.26a5.61,5.61,0,0,1,.24-1c.07-.29-.11-.16-.3-.18s-.42-.17-.57,0-.09.24-.11.37a2,2,0,0,1-.83,1.24c-.14.13-.34.26-.51.19a3.39,3.39,0,0,0,1,.09,4.37,4.37,0,0,1,.5.09.57.57,0,0,0,.47-.13A.92.92,0,0,0,116.92,83.26Z"/><path class="cls-32" d="M120.62,79.12a.31.31,0,0,1,.28.22.5.5,0,0,1-.07.29,5.24,5.24,0,0,0-.41,1.6c0,.18,0,.41-.23.46a.59.59,0,0,1-.37-.08,1,1,0,0,0-.81,0c0-.31.29-.52.5-.74a3.07,3.07,0,0,0,.55-1C120.17,79.57,120.18,79,120.62,79.12Z"/><path class="cls-32" d="M120.25,82.77c.07-.18.22-.43,0-.56s-.36,0-.52-.06-.25-.13-.38,0a.49.49,0,0,0-.14.42,2,2,0,0,1-.08.65.89.89,0,0,1-.42.63c-.1.05-.22.07-.33.12a.28.28,0,0,0-.18.27,1.43,1.43,0,0,1,1,0l.31.09a.36.36,0,0,0,.3-.11.45.45,0,0,0,.07-.25A4,4,0,0,1,120.25,82.77Z"/><path class="cls-32" d="M122.74,83.67c.11-.3.44-.83.37-1.16s-.47-.16-.68-.08a2,2,0,0,1-.68.13h-.1s0,.21,0,.33a.62.62,0,0,1-.25.6c-.18.16-.39.26-.56.41a.33.33,0,0,0-.11.15.15.15,0,0,0,0,.16.21.21,0,0,0,.19,0,1.71,1.71,0,0,1,.75-.28,2.07,2.07,0,0,1,.43.1.56.56,0,0,0,.44-.06A.75.75,0,0,0,122.74,83.67Z"/><path class="cls-32" d="M123.28,81.64v-.09a2.47,2.47,0,0,0,0-.38,2.7,2.7,0,0,1,.37-1.11c.14-.22.3-.51.09-.73a.72.72,0,0,0-1,0l-.06.08v.08a.38.38,0,0,0,0,.15,1.9,1.9,0,0,1-.18,1.24,3.51,3.51,0,0,1-.27.4.78.78,0,0,0-.19.36.28.28,0,0,0,.17.32.34.34,0,0,0,.2,0l.19-.06C122.88,81.82,123.16,81.94,123.28,81.64Z"/><path class="cls-70" d="M111.07,80.43c-.12,0-.25-.11-.36,0s-.06.23,0,.36a1.61,1.61,0,0,1-.28,1.08c-.2.32-.46.6-.67.93a.25.25,0,0,0,0,.17.27.27,0,0,0,.11.1.74.74,0,0,0,.68-.06,1.86,1.86,0,0,0,.49-.52,3.65,3.65,0,0,0,.34-.61,1.84,1.84,0,0,0,.21-.55c0-.36,0-.74-.41-.87Z"/><path class="cls-70" d="M112,77.25a.27.27,0,0,0-.32-.06.3.3,0,0,0-.15.24,1.4,1.4,0,0,0,0,.29,3.35,3.35,0,0,1,0,1,1.57,1.57,0,0,1-.13.47c-.14.28-.41.49-.55.78s.35.18.47.1a1.76,1.76,0,0,0,.67-.76,2.39,2.39,0,0,0,.26-.85A1.32,1.32,0,0,0,112,77.25Z"/><path class="cls-71" d="M110,76.23a.2.2,0,0,0-.14.06.48.48,0,0,0,0,.17,1.85,1.85,0,0,1-.11.77,6.54,6.54,0,0,1-.56,1.27,3.09,3.09,0,0,0-.34.65c.17.09.64.32.82.18a1.37,1.37,0,0,0,.2-.29,2.57,2.57,0,0,0,.2-.45,7.36,7.36,0,0,0,.34-1,2.64,2.64,0,0,0,.12-.78C110.53,76.56,110.35,76.21,110,76.23Z"/><path class="cls-71" d="M109,79.58a.39.39,0,0,0-.33-.09c-.15.06-.18.33-.23.46s-.18.36-.25.54-.25.58-.39.87-.2.54-.42.67.16.21.29.23c.49.07.78-.84,1-1.15s.38-.72.54-1.09a.38.38,0,0,0,0-.15C109.19,79.77,109.09,79.66,109,79.58Z"/><path class="cls-72" d="M108.35,75.73a3.28,3.28,0,0,0,.24-.73.28.28,0,0,1,.15.2.72.72,0,0,1,.06.29,5,5,0,0,1-.45,1.73c-.11.29-.29,1-.65,1.13s-.56-.31-.35-.59a6.76,6.76,0,0,0,.78-1.45S108.26,76,108.35,75.73Z"/><path class="cls-72" d="M107,78.34h-.07c-.07,0-.1.09-.11.16a4.34,4.34,0,0,1-1.26,2.36,1.7,1.7,0,0,0,.38.26.51.51,0,0,0,.45,0,.76.76,0,0,0,.2-.2,8.44,8.44,0,0,0,.8-1.4c.08-.17.37-.72.21-.86s-.17,0-.25-.07A2.12,2.12,0,0,0,107,78.34Z"/><path class="cls-73" d="M105.76,77.88l.12-.28a.67.67,0,0,0,0-.2c0-.2-.2-.29-.31-.43a8.93,8.93,0,0,1-.71,1.54l-.24.42a2.53,2.53,0,0,1-.13.22.7.7,0,0,1-.26.19h0a.64.64,0,0,0,.2.2h.12a.57.57,0,0,0,.13-.08,3.07,3.07,0,0,0,.5-.58A6.67,6.67,0,0,0,105.76,77.88Z"/><path class="cls-73" d="M107,74.85a4.89,4.89,0,0,0,.14-.64,1.38,1.38,0,0,0,0-.7.35.35,0,0,0-.26-.2,1.77,1.77,0,0,1,0,.46,4.61,4.61,0,0,1-.4,1.13,9.35,9.35,0,0,1-.6,1.18.77.77,0,0,0-.15.3c0,.18.19.42.39.36a.12.12,0,0,0,.11-.1A5.43,5.43,0,0,0,107,75,.62.62,0,0,0,107,74.85Z"/><path class="cls-74" d="M104.76,75.73a.43.43,0,0,1,0,.16.67.67,0,0,1-.07.18l-.64,1.38a1,1,0,0,1-.46.57h0a.86.86,0,0,1,.09-.39l.47-1.17.24-.57a2,2,0,0,1,.08-.26.66.66,0,0,1,.1-.25c0-.08.13,0,.15.07A2.36,2.36,0,0,1,104.76,75.73Z"/><path class="cls-74" d="M106,73.12l-.1.34a12.61,12.61,0,0,1-.54,1.4,3.77,3.77,0,0,1-.32.59s-.24-.18-.26-.21h0a1.34,1.34,0,0,0,.27-.44c.18-.37.36-.74.51-1.13,0-.1.43-1.21.4-1.22C106.18,72.5,106,73,106,73.12Z"/><polygon class="cls-2" points="120.32 83.56 119.31 80.7 121.86 79.06 119 80.07 117.36 77.52 118.37 80.38 115.82 82.02 118.68 81.01 120.32 83.56"/></svg>