<svg id="Слой_1" data-name="Слой 1" xmlns="http://www.w3.org/2000/svg" viewBox="0 0 151 151"><defs><style>.cls-1{fill:#eb5032;}.cls-2{fill:#fff;}.cls-3{fill:#82291d;}.cls-4{fill:#b04687;}.cls-5{opacity:0.1;}.cls-6{fill:#139ab0;}.cls-7{fill:#d7d9d8;}.cls-8{fill:#13181b;}.cls-9{fill:#e8f5f8;}.cls-10{fill:#1d1d1b;}.cls-11{fill:#a4a4a6;}.cls-12{opacity:0.6;}.cls-13{fill:#848887;}</style></defs><title>Услуги</title><path class="cls-1" d="M42.61,65.53s-2.85,6.41-8.21,22.56-23,12.18-23,12.18-2.78,7.67,10,12.73,12.31-.88,14.14,3.38,9.17,8.07,15.3,8.39c0,0,5,.67,11.42-3.91s15-1.25,16.16.42,3.9,3.72,10.49,2.9,8.89-4.42,9.29-5.17,12.93-21.83-2.29-41.83S56,47.05,49,51.51,45.38,59.76,42.61,65.53Z"/><path class="cls-2" d="M51.6,125.05a5.34,5.34,0,0,1-.8,0c-6.43-.33-13.68-4.32-15.5-8.53-.71-1.67-.92-1.62-2.08-1.37-1.62.35-4.64,1-11.93-1.88-12.86-5.09-10.18-13-10.15-13.09l.08-.21h.21c.17,0,17.51,3.73,22.74-12,5.3-16,8.18-22.52,8.21-22.58h0a15.24,15.24,0,0,0,1.35-5.59c.29-3,.55-5.64,5.12-8.53C56.06,46.71,80.61,56.64,96.09,77c14.17,18.65,4.48,38.25,2.4,42l-.06.11c-.39.74-2.68,4.47-9.48,5.3s-9.52-1.19-10.75-3c-.51-.75-2.73-1.87-5.43-2.36a13.68,13.68,0,0,0-10.38,2C57.38,124.63,53.27,125.05,51.6,125.05ZM34.06,114.48c.68,0,1.1.39,1.7,1.8,1.75,4.06,8.8,7.91,15.08,8.24.07,0,5,.59,11.26-3.86a14.27,14.27,0,0,1,10.79-2.09c3,.54,5.18,1.73,5.75,2.57,1,1.4,3.54,3.62,10.28,2.8,6.55-.8,8.73-4.33,9.09-5l.07-.11c2.06-3.7,11.62-23-2.36-41.44-15-19.82-39.67-30-46.57-25.63-4.37,2.76-4.61,5.26-4.9,8.16a16.08,16.08,0,0,1-1.36,5.71c-.09.19-3,6.74-8.2,22.54-5,15.17-21,12.77-23.09,12.39-.34,1.25-1.46,7.7,9.93,12.21,7.14,2.82,10.06,2.19,11.63,1.85A4.45,4.45,0,0,1,34.06,114.48Z"/><path class="cls-3" d="M95.89,77.18C80.68,57.18,56,47.05,49,51.51s-3.61,8.25-6.38,14c0,0-.91,2.38-2.86,7.62,1.06,1.78,2.18,3.55,3.6,5.56a17.92,17.92,0,0,1,3.16,11.53c-.15,2-.38,4.56-.83,7.6-1.55,10.49,1.73,18.11,5.82,23.36a19.79,19.79,0,0,0,3,3,20.79,20.79,0,0,0,7.78-3.37,13.38,13.38,0,0,1,9.11-2.24,65.58,65.58,0,0,1,.34-9.81c.53-2.25,3.43-3,4.53-3.16a4.74,4.74,0,0,1,.75-.06h.85a4.87,4.87,0,0,1,.76.06c1.1.19,4,.91,4.52,3.16s.33,11.32.25,15a17,17,0,0,0,5.5.42c6.62-.81,8.89-4.42,9.29-5.17S111.11,97.18,95.89,77.18Z"/><path class="cls-2" d="M81.83,105.59a4.87,4.87,0,0,1,.76.06c1.1.19,4,.91,4.52,3.16.65,2.8.22,15.71.22,16.78s-.22,2.26,2.36,3.55c.78.39,3.13.07,4.55-.13a20.07,20.07,0,0,0,13.08-7.83c4.09-5.29,7.37-12.91,5.82-23.38-.45-3-.69-5.57-.83-7.6a17.79,17.79,0,0,1,3.16-11.53c7.82-11.16,9.94-17.89,9.94-28.39,0-18.1-11.46-26.8-25.6-26.8-5.51,0-10.84,2.36-15.3,6.31a4.89,4.89,0,0,1-1.88,1h0a4.63,4.63,0,0,1-2.45,0h0a4.78,4.78,0,0,1-1.87-1A23.22,23.22,0,0,0,63,23.48c-14.11,0-25.6,8.7-25.6,26.84,0,10.5,2.12,17.23,10,28.39a17.92,17.92,0,0,1,3.16,11.53c-.15,2-.38,4.56-.83,7.6-1.6,10.47,1.68,18.09,5.77,23.34A20,20,0,0,0,68.58,129c1.41.2,3.77.52,4.54.13,2.58-1.29,2.37-2.47,2.37-3.55s-.43-14,.21-16.78c.53-2.25,3.43-3,4.53-3.16a4.74,4.74,0,0,1,.75-.06Z"/><path class="cls-4" d="M71.89,129.82a26.42,26.42,0,0,1-3.33-.31,20.5,20.5,0,0,1-13.44-8c-5.23-6.78-7.23-14.77-5.94-23.74.38-2.55.65-5,.83-7.57A17.48,17.48,0,0,0,46.94,79c-7.69-11-10-17.66-10-28.68C36.89,30.18,50.39,23,63,23c5.48,0,10.89,2.2,15.64,6.44a4.3,4.3,0,0,0,1.67.93,4.07,4.07,0,0,0,2.19,0,4.3,4.3,0,0,0,1.67-.93A23.41,23.41,0,0,1,99.81,23c12.62,0,26.08,7.2,26.08,27.34,0,11-2.34,17.72-10,28.68a17.31,17.31,0,0,0-3.08,11.18c.18,2.55.45,5,.82,7.57,1.33,9-.66,17-5.92,23.76a20.5,20.5,0,0,1-13.4,8c-2.09.28-4,.5-4.84.08-2.68-1.34-2.66-2.69-2.65-3.77v-1.54c.08-3.57.3-13.06-.23-15.35-.46-2-3.27-2.64-4.12-2.79a3.75,3.75,0,0,0-.67,0H81a3.75,3.75,0,0,0-.67,0c-.85.15-3.66.79-4.12,2.79-.5,2.25-.27,11.78-.2,15.35v1.54c0,1.08,0,2.43-2.64,3.77A3.7,3.7,0,0,1,71.89,129.82ZM81,105.09h.85a4,4,0,0,1,.84.07c1.29.22,4.35,1,4.93,3.54s.33,12,.25,15.6v1.53c0,1,0,1.8,2.1,2.86.63.32,3.06,0,4.22-.17a19.46,19.46,0,0,0,12.7-7.61c5.08-6.57,7-14.31,5.72-23-.38-2.58-.65-5.08-.83-7.65A18.37,18.37,0,0,1,115,78.41c7.55-10.76,9.85-17.33,9.85-28.1,0-19.42-13-26.34-25.1-26.34-5.2,0-10.38,2.15-14.89,6.21a5.4,5.4,0,0,1-2.07,1.14,5,5,0,0,1-2.72,0A5.21,5.21,0,0,1,78,30.18c-4.57-4-9.74-6.19-15-6.19C50.89,24,37.89,30.9,37.89,50.32c0,10.77,2.31,17.34,9.86,28.1A18.49,18.49,0,0,1,51,90.27c-.18,2.57-.46,5.07-.84,7.65-1.28,8.68.64,16.42,5.72,23a19.5,19.5,0,0,0,12.75,7.61c1.2.16,3.63.49,4.26.17C75,127.64,75,126.81,75,125.84v-1.53c-.08-3.6-.3-13.18.26-15.6s3.65-3.33,4.9-3.53a3.86,3.86,0,0,1,.84-.09Z"/><g class="cls-5"><path class="cls-6" d="M61.79,122.27c-4-3.58-12-15.47-8.39-27.53,3.28-11,12.49-11,14.12-11.35-1.22.09-6.4-.71-18.42-16.62C39.36,53.88,41.83,38.91,44.23,31c-4,4.42-6.54,10.78-6.54,19.22,0,10.87,2.27,17.71,10.81,29.6a13.14,13.14,0,0,1,2.39,8.35,86.52,86.52,0,0,1-1,9.56c-1.48,10.44,1.8,18.09,5.89,23.38a20.1,20.1,0,0,0,13.11,7.8c1.42.19,3.77.51,4.55.12,2.58-1.29,2.36-2.47,2.36-3.54v-1.23C72.12,126.64,65.89,125.93,61.79,122.27Z"/></g><path class="cls-7" d="M67.52,83.39l.29,0A1.35,1.35,0,0,0,67.52,83.39Z"/><g class="cls-5"><path class="cls-6" d="M125.7,50.23c0-18.18-11.47-26.84-25.6-26.84C94.25,23.39,88.59,26,84,30.44l-2.29.63-2.29-.63c-4.61-4.4-10.26-7-16.12-7-14.13,0-25.59,8.66-25.59,26.84C37.69,61.15,40,68,48.5,79.88a13.14,13.14,0,0,1,2.39,8.3,86.52,86.52,0,0,1-1,9.56c-1.48,10.44,1.8,18.09,5.89,23.38a20.1,20.1,0,0,0,13.11,7.8c1.42.19,3.77.51,4.55.12,2.58-1.29,2.36-2.47,2.36-3.54s-.43-14,.22-16.78,5-3.23,5-3.23h1.51a8.39,8.39,0,0,1,3.6,1.31c-1.24-1.86-4.38-2.18-4.38-2.18H80.2s-4.18.42-4.8,3.13S75.19,123,75.19,124s.21,2.19-2.3,3.44c-.75.38-3,.07-4.41-.12a19.52,19.52,0,0,1-12.69-7.56c-4-5.13-7.15-12.52-5.64-22.68.58-4,.8-7,.92-9.27a12.75,12.75,0,0,0-2.35-8.11C40.44,68.18,38.24,61.55,38.24,51c0-17.63,11.12-26,24.83-26,5.68,0,11.16,2.58,15.64,6.84l2.22.62,2.22-.62c4.48-4.26,10-6.84,15.64-6.84,13.72,0,24.84,8.41,24.84,26,0,10.55-2.21,17.18-10.49,28.73a12.63,12.63,0,0,0-2.35,8.11c.13,2.23.34,5.29.93,9.27,1.5,10.16-1.68,17.55-5.65,22.68a19.56,19.56,0,0,1-12.69,7.56c-1.37.19-3.66.5-4.41.12a6.17,6.17,0,0,1-1.31-.83c.14.75.62,1.55,2.32,2.4.77.39,3.13.07,4.54-.12a20.16,20.16,0,0,0,13.08-7.8c4.09-5.29,7.37-12.9,5.82-23.37-.61-4.11-.82-7.26-1-9.56a13,13,0,0,1,2.47-8.36C123.42,67.94,125.7,61.1,125.7,50.23Z"/></g><path class="cls-8" d="M73.89,45s-.62,1.06-5.33,3.22a14.18,14.18,0,0,0,6.53-1.85A17,17,0,0,1,73.89,45Z"/><path class="cls-8" d="M98.89,45.6s1.21-.17,5.84,2.16a14.3,14.3,0,0,0-5.51-4C99.19,44.08,98.89,45.6,98.89,45.6Z"/><path class="cls-9" d="M116.44,34a16.28,16.28,0,0,0-2.13-2.26c-.47-.13-1.77,1-9.5,4.61A18.07,18.07,0,0,1,109.1,42a27.33,27.33,0,0,1,1.42,12,35.11,35.11,0,0,0,10.13-2C120.77,42.42,118.52,36.55,116.44,34Z"/><path class="cls-9" d="M109.49,59.62a30.32,30.32,0,0,1-4.14,8.87c-2.51,3.68-4,5.83-4.88,7.06-.17.24-1,1.1-1,1.1L113,73.4a34.49,34.49,0,0,0,7.07-15.33A35.5,35.5,0,0,1,109.49,59.62Z"/><path class="cls-9" d="M99.89,109.23a13.32,13.32,0,0,1-1,2.17A44.91,44.91,0,0,1,94,118.71s-1.21,3.66,3,1.94c3.47-1.4,8.4-5.79,10.8-11l-1.33.33A12.15,12.15,0,0,1,99.89,109.23Z"/><path class="cls-9" d="M109.59,103a18,18,0,0,0-1.22-10.32,17.23,17.23,0,0,0-1.37-2l-8.18,2a29.33,29.33,0,0,1,1.91,13.11l.74.09C104.71,106.23,107.78,104.4,109.59,103Z"/><path class="cls-2" d="M112.39,83.57c-.44,0-.88,0-1.31,0a1.51,1.51,0,1,1,.28-3h0c.67.06,16.19,1.33,22.36-13.77a1.5,1.5,0,1,1,2.78,1.13C130.58,82.39,116.72,83.57,112.39,83.57Z"/><path class="cls-2" d="M47.89,102.53a1.53,1.53,0,0,1-.73-.19,1.5,1.5,0,0,1-.58-2L47.31,99a12.65,12.65,0,0,1-6.07-4,10.8,10.8,0,0,1-2.51-8.51c.88-6.19,7.08-10.45,13.84-9.49a1.51,1.51,0,1,1-.42,3C47,79.29,42.35,82.41,41.7,87a7.84,7.84,0,0,0,1.84,6.17,9.91,9.91,0,0,0,6.26,3.41A1.5,1.5,0,0,1,51,98.27a2,2,0,0,1-.13.41l-1.7,3.07A1.48,1.48,0,0,1,47.89,102.53Z"/><polygon class="cls-9" points="66.27 21.18 59.37 30.11 66.47 38.89 57.54 31.99 48.76 39.09 55.66 30.15 48.56 21.38 57.49 28.28 66.27 21.18"/><polygon class="cls-9" points="57.59 36.89 56.82 30.85 50.76 30.21 56.8 29.43 57.44 23.38 58.22 29.42 64.27 30.06 58.23 30.83 57.59 36.89"/><path class="cls-1" d="M80.68,71.46l-1-.08c0-.11.25-2.85,2.15-3.31l.23,1C80.89,69.33,80.68,71.44,80.68,71.46Z"/><path class="cls-1" d="M87.34,73.42c-4,0-7-1.66-7-3.76h1c0,1.33,2.43,2.76,6,2.76a10.13,10.13,0,0,0,4.65-1l.48.87A10.87,10.87,0,0,1,87.34,73.42Z"/><path class="cls-10" d="M95.4,57.25a2.94,2.94,0,1,0,2.94-3A3,3,0,0,0,95.4,57.25Z"/><path class="cls-2" d="M98.89,55.88a.77.77,0,0,0,.76.78.78.78,0,0,0,.78-.76.77.77,0,0,0-.76-.78h0a.75.75,0,0,0-.77.75Z"/><path class="cls-2" d="M97.78,56.33a.45.45,0,1,0,.89.13v-.13a.45.45,0,0,0-.38-.51.44.44,0,0,0-.51.37A.33.33,0,0,0,97.78,56.33Z"/><path class="cls-10" d="M71.4,57.25a2.94,2.94,0,1,0,2.94-3A3,3,0,0,0,71.4,57.25Z"/><path class="cls-2" d="M74.89,55.88a.77.77,0,0,0,.76.78.78.78,0,0,0,.78-.76.77.77,0,0,0-.76-.78h0a.75.75,0,0,0-.77.75Z"/><path class="cls-2" d="M73.78,56.33a.45.45,0,0,0,.89.13v-.13a.45.45,0,0,0-.38-.51.44.44,0,0,0-.51.37A.33.33,0,0,0,73.78,56.33Z"/><path class="cls-1" d="M86.51,51.34c-19.92.47-47.48-4.42-48.14-4.58s-.53.48-.53.48l0,7c.22-.25,2.68-.36,24.22,7,25.89,8.91,63.12-3.61,63.12-4.68V43.18S106.43,50.87,86.51,51.34Zm-12.17,9.9a4,4,0,1,1,3.93-4.07v.07A4,4,0,0,1,74.34,61.24Zm24,0a4,4,0,1,1,3.93-4.07v.07A4,4,0,0,1,98.34,61.24Z"/><g id="Слой_5" data-name="Слой 5"><path class="cls-11" d="M116.48,39.47s4,6,4.64,7.28a36,36,0,0,1,2.7,9.21c.72,4.09,6.31,31.09,7.67,37.68a1.44,1.44,0,0,0,1.7,1.12h0L139,93.43a1.44,1.44,0,0,0,1.09-1.72v0c-2-7.77-11.66-44.24-11.44-44.65s-7-11.23-7-11.23Z"/><g class="cls-12"><path class="cls-13" d="M128.63,47c.24-.47-7-11.23-7-11.23l-.75.55c2.1,3.15,5.8,8.78,5.63,9.12s9.38,36.89,11.38,44.65a1.45,1.45,0,0,1-1,1.77h0l-5.45,1.24.11.52a1.44,1.44,0,0,0,1.7,1.12h0L139,93.43a1.44,1.44,0,0,0,1.09-1.72v0C138,83.89,128.41,47.42,128.63,47Z"/></g><path class="cls-13" d="M121.59,35.78l-5.11,3.69,1,1.49,5.15-3.65Z"/><path class="cls-13" d="M118.31,42.14,123,38.8a1.15,1.15,0,0,1,1.6.26h0a1.15,1.15,0,0,1-.26,1.6L119.65,44a1.15,1.15,0,0,1-1.61-.26h0A1.14,1.14,0,0,1,118.31,42.14Z"/><path class="cls-13" d="M121.89,30.58c0-.42,8.13-4.19,8.13-4.19l-7.63,5.19-.5-1.4"/><path class="cls-11" d="M122.38,35.75l-7.49,5.32a1.3,1.3,0,0,1-1.82-.3l-.07-.11-3.41-6a1.31,1.31,0,0,1,.49-1.79l.11,0,8.38-3.77a2.57,2.57,0,0,1,3.32,1.13l1.27,2.21A2.59,2.59,0,0,1,122.38,35.75Z"/><polygon class="cls-2" points="112 38.43 112.37 34.47 108.61 33.19 112.56 33.56 113.85 29.8 113.47 33.76 117.23 35.04 113.28 34.66 112 38.43"/></g></svg>