<svg id="Слой_1" data-name="Слой 1" xmlns="http://www.w3.org/2000/svg" viewBox="0 0 150 150"><defs><style>.cls-1{fill:#139ab0;}.cls-2{fill:#fff;}.cls-3{fill:#13181b;}.cls-4{fill:#e8f5f8;}.cls-5{fill:#eb5032;}.cls-6{fill:#848887;}.cls-7{fill:#5a595d;}.cls-8{fill:#383838;}.cls-9{opacity:0.6;}.cls-10{fill:#1d1d1b;}</style></defs><title>Услуги</title><g id="Слой_3" data-name="Слой 3"><path class="cls-1" d="M74.79,96.05a162,162,0,0,1-21.12-1.38l-9.61-1.26a1.19,1.19,0,0,0-.46,0,.52.52,0,0,1-.48-.07.55.55,0,0,1-.21-.44,17.75,17.75,0,0,0-3.14-11.24C31.91,70.45,29.51,63.6,29.51,52.35c0-20.61,13.78-27.95,26.68-27.95,5.6,0,11.13,2.28,16,6.58a4.14,4.14,0,0,0,5.65,0c4.84-4.3,10.39-6.58,16-6.58,12.9,0,26.67,7.34,26.67,28,0,11.24-2.41,18.1-10.23,29.32a17.77,17.77,0,0,0-3.13,11.44.61.61,0,0,1-.28.56.52.52,0,0,1-.56,0,1,1,0,0,0-.77-.24L96,94.66A162.75,162.75,0,0,1,74.79,96.05Z"/><path class="cls-2" d="M118.37,52.52c0-18.17-11.46-26.84-25.6-26.84C87.26,25.68,81.92,28,77.46,32a4.78,4.78,0,0,1-1.87,1,4.63,4.63,0,0,1-2.45,0,4.78,4.78,0,0,1-1.87-1A23.2,23.2,0,0,0,56,25.68c-14.1,0-25.6,8.67-25.6,26.84,0,10.49,2.12,17.23,9.94,28.39a17.75,17.75,0,0,1,3.17,11.36,1.44,1.44,0,0,1,.68-.08l9.41,1.23a158.15,158.15,0,0,0,41.24,0l9.33-1.23a1.43,1.43,0,0,1,1.14.35.21.21,0,0,0,0-.11,17.83,17.83,0,0,1,3.17-11.52C116.25,69.75,118.37,63,118.37,52.52Z"/><path class="cls-3" d="M92.86,47.62s1.22-.06,5.62,2.67a14.09,14.09,0,0,0-5.14-4.43A17.58,17.58,0,0,1,92.86,47.62Z"/><path class="cls-3" d="M56.79,47s-1.23-.06-5.63,2.67a14.37,14.37,0,0,1,5.15-4.43A17.58,17.58,0,0,0,56.79,47Z"/><path class="cls-4" d="M109.11,35.93A15.64,15.64,0,0,0,107,33.67c-.47-.13-1.77,1-9.5,4.61a18.15,18.15,0,0,1,4.29,5.7,27.36,27.36,0,0,1,1.41,12,34.65,34.65,0,0,0,10.13-2C113.45,44.37,111.19,38.5,109.11,35.93Z"/><path class="cls-4" d="M102.17,61.57A30.1,30.1,0,0,1,98,70.44c-2.51,3.68-4,5.83-4.88,7.06-.17.24-1,1.1-1,1.1l13.54-3.25A34.35,34.35,0,0,0,112.76,60,35.18,35.18,0,0,1,102.17,61.57Z"/><polygon class="cls-4" points="58.95 23.13 52.04 32.06 59.14 40.84 50.21 33.94 41.43 41.04 48.33 32.1 41.24 23.33 50.17 30.23 58.95 23.13"/><polygon class="cls-4" points="50.26 38.84 49.49 32.8 43.43 32.16 49.47 31.38 50.11 25.33 50.89 31.37 56.94 32.01 50.9 32.78 50.26 38.84"/><path class="cls-4" d="M44.55,91.69l3.63.58c4-7,10.81-6.67,12.21-6.93C59.18,85.43,54,84.63,42,68.72c-8.77-11.59-7.43-26.1-5.37-34.4-3.31,4.22-6,9.1-5.74,16.53.37,18.28,4,20.52,10.74,30.83,1.62,2.48,1.71,4.35,2.34,8.11a5.74,5.74,0,0,1,0,1.85A1.38,1.38,0,0,1,44.55,91.69Z"/><path class="cls-4" d="M60.39,85.34a1.34,1.34,0,0,0,.3,0Z"/><path class="cls-4" d="M119.07,52.48c0-18.18-11.46-26.84-25.6-26.84-5.85,0-11.5,2.65-16.12,7l-2.29.63-2.28-.63c-4.62-4.4-10.27-7-16.12-7-12,0-19.53,9.26-19.76,10.18,4.55-5.84,11.61-8.66,19.55-8.66,5.67,0,11.16,2.58,15.64,6.84l2.22.62,2.21-.62c4.48-4.26,10-6.84,15.64-6.84,13.72,0,24.84,8.41,24.84,26,0,10.55-2.2,17.18-10.49,28.73a12.79,12.79,0,0,0-2.34,8.19,14.73,14.73,0,0,0,.16,1.47h.5c.44-.06.66-.21,1,.08-.07-.89.08-.51,0-1.23a13.21,13.21,0,0,1,2.43-8.32C116.8,70.19,119.07,63.35,119.07,52.48Z"/><path class="cls-5" d="M75.92,75.94a14.67,14.67,0,0,1-1.75-.1c-4.1-.5-7.77-2.7-9.35-5.62l.88-.48c1.41,2.6,4.86,4.65,8.59,5.1,3.92.47,7.88-.86,9.64-3.23l.8.59C83,74.53,79.61,75.94,75.92,75.94Z"/><path class="cls-5" d="M65.05,72.13l-1-.08c0-.15.31-3.58,2.65-4.16l.24,1C65.3,69.27,65.05,72.13,65.05,72.13Z"/><path class="cls-6" d="M69.5,126.8c3.42.12,6.57.08,10.36-.1a1.5,1.5,0,0,0,1.4-1.57v-3a1.49,1.49,0,0,0-1.48-1.52h-.06c-3.39.13-6.67.11-10.11,0a1.5,1.5,0,0,0-1.55,1.45v3.27A1.51,1.51,0,0,0,69.5,126.8Z"/><path class="cls-7" d="M64.13,122.74A134.37,134.37,0,0,0,85,122.62a1.5,1.5,0,0,0,1.39-1.49v-3.3a1.48,1.48,0,0,0-1.47-1.52h-.13a131.33,131.33,0,0,1-20.42-.06,1.49,1.49,0,0,0-1.58,1.39.49.49,0,0,0,0,.12v3.46A1.51,1.51,0,0,0,64.13,122.74Z"/><path class="cls-6" d="M59.33,116.69c11.81,1,16.75.92,30,0a1.5,1.5,0,0,0,1.41-1.56v-3.37a1.5,1.5,0,0,0-1.47-1.53H89.1c-10.61,1.13-18.47.94-29.51,0a1.48,1.48,0,0,0-1.6,1.37.76.76,0,0,0,0,.15v3.37A1.5,1.5,0,0,0,59.33,116.69Z"/><path class="cls-7" d="M95.47,109.89l-3.88.52h-.08c-15.8,1.18-20.28,1.34-34.38,0l-3.92-.52a1.52,1.52,0,0,1-1.29-1.51v-3.45a1.5,1.5,0,0,1,1.46-1.52h.21l3.57.48c13.24,1.26,21.7,1.52,34.42,0l3.51-.47a1.5,1.5,0,0,1,1.66,1.32,1.09,1.09,0,0,1,0,.18v3.45A1.5,1.5,0,0,1,95.47,109.89Z"/><path class="cls-6" d="M100.24,101.71A1.5,1.5,0,0,1,99,103.22l-4.67.64a151.64,151.64,0,0,1-39.36,0l-4.67-.64A1.52,1.52,0,0,1,49,101.71v-3.2A1.51,1.51,0,0,1,50.45,97h.2l4.32.6a150.69,150.69,0,0,0,39.35,0L98.57,97a1.49,1.49,0,0,1,1.66,1.3.74.74,0,0,1,0,.21Z"/><path class="cls-7" d="M105,96.85l-9.74,1.28a158.15,158.15,0,0,1-41.24,0l-9.74-1.28A1.5,1.5,0,0,1,43,95.34V91.9a1.51,1.51,0,0,1,1.47-1.53h.19L54,91.62a158.15,158.15,0,0,0,41.24,0l9.33-1.23a1.51,1.51,0,0,1,1.66,1.33,1.21,1.21,0,0,1,0,.19v3.44A1.49,1.49,0,0,1,105,96.85Z"/><path class="cls-8" d="M105,95.85l-9.74,1.28a158.15,158.15,0,0,1-41.24,0l-9.74-1.28A1.5,1.5,0,0,1,43,94.34v1a1.5,1.5,0,0,0,1.29,1.51L54,98.13a158.15,158.15,0,0,0,41.24,0L105,96.85a1.49,1.49,0,0,0,1.29-1.51v-1A1.49,1.49,0,0,1,105,95.85Z"/><g class="cls-9"><path class="cls-8" d="M99,102.22l-4.67.64a151.64,151.64,0,0,1-39.36,0l-4.67-.64A1.52,1.52,0,0,1,49,100.71v1a1.52,1.52,0,0,0,1.28,1.51l4.67.64a151.64,151.64,0,0,0,39.36,0l4.67-.64a1.5,1.5,0,0,0,1.28-1.51v-1A1.5,1.5,0,0,1,99,102.22Z"/></g><path class="cls-2" d="M49.16,103.13a1.31,1.31,0,0,1-.28,0,1.51,1.51,0,0,1-1.19-1.75h0L48,99.84c-4,0-10.72-1.61-12.06-9.16A10.85,10.85,0,0,1,38.13,82a12.92,12.92,0,0,1,8-4.74,1.52,1.52,0,0,1,.52,3,9.9,9.9,0,0,0-6.14,3.62,7.88,7.88,0,0,0-1.65,6.22c1.42,8,10.59,6.59,10.68,6.58a1.49,1.49,0,0,1,1.32.42,1.45,1.45,0,0,1,.4,1.34l-.65,3.45A1.51,1.51,0,0,1,49.16,103.13Z"/><path class="cls-2" d="M101.92,103.13a1.51,1.51,0,0,1-1.47-1.21l-.66-3.45a1.54,1.54,0,0,1,.4-1.34,1.5,1.5,0,0,1,1.33-.42c.09,0,9.27,1.41,10.69-6.58a7.86,7.86,0,0,0-1.63-6.23,9.85,9.85,0,0,0-6.14-3.62,1.52,1.52,0,0,1,.52-3h0A12.87,12.87,0,0,1,113,82a10.8,10.8,0,0,1,2.21,8.59c-1.34,7.55-8,9.15-12.06,9.16l.3,1.53a1.5,1.5,0,0,1-1.2,1.76A1.37,1.37,0,0,1,101.92,103.13Z"/><polygon class="cls-2" points="87.03 108.31 88.76 103.43 84.4 100.62 89.29 102.35 92.1 98 90.37 102.88 94.72 105.69 89.84 103.96 87.03 108.31"/><path class="cls-8" d="M95.47,108.89l-3.88.52h-.08c-15.8,1.18-20.28,1.34-34.38,0l-3.92-.52a1.52,1.52,0,0,1-1.29-1.51v1a1.52,1.52,0,0,0,1.29,1.51l3.92.52c14.1,1.34,18.58,1.18,34.38,0h.08l3.88-.52a1.5,1.5,0,0,0,1.29-1.51v-1A1.5,1.5,0,0,1,95.47,108.89Z"/><g class="cls-9"><path class="cls-8" d="M89.37,115.65c-13.29,1-18.23,1.09-30,0A1.5,1.5,0,0,1,58,114.13v1a1.51,1.51,0,0,0,1.35,1.52c11.81,1,16.75.92,30,0a1.5,1.5,0,0,0,1.41-1.52v-1A1.5,1.5,0,0,1,89.37,115.65Z"/></g><path class="cls-8" d="M85,121.62a134.37,134.37,0,0,1-20.85.12,1.51,1.51,0,0,1-1.37-1.52v1a1.51,1.51,0,0,0,1.37,1.52A134.37,134.37,0,0,0,85,122.62a1.5,1.5,0,0,0,1.39-1.49v-1A1.5,1.5,0,0,1,85,121.62Z"/><g class="cls-9"><path class="cls-8" d="M79.86,125.7c-3.79.18-6.94.22-10.36.1a1.5,1.5,0,0,1-1.44-1.52v1a1.5,1.5,0,0,0,1.44,1.52c3.42.12,6.57.08,10.36-.1a1.5,1.5,0,0,0,1.4-1.57v-1A1.5,1.5,0,0,1,79.86,125.7Z"/></g><path class="cls-10" d="M64,58.13a2.94,2.94,0,1,1-2.94-3A3,3,0,0,1,64,58.13Z"/><path class="cls-2" d="M60.54,56.74a.77.77,0,0,1-1.54,0,.77.77,0,0,1,1.54,0Z"/><path class="cls-2" d="M61.59,57.19a.44.44,0,0,1-.44.44.45.45,0,1,1-.13-.89.29.29,0,0,1,.13,0,.44.44,0,0,1,.44.44Z"/><path class="cls-10" d="M91,58.13a2.94,2.94,0,1,1-2.94-3A3,3,0,0,1,91,58.13Z"/><path class="cls-2" d="M87.54,56.74a.77.77,0,0,1-1.54,0,.77.77,0,0,1,1.54,0Z"/><path class="cls-2" d="M88.59,57.19a.44.44,0,0,1-.44.44.45.45,0,0,1-.13-.89.29.29,0,0,1,.13,0,.44.44,0,0,1,.44.44Z"/></g></svg>